<svg width="63" height="103" viewBox="0 0 63 103" fill="none" xmlns="http://www.w3.org/2000/svg">
<g id="steel-single" clip-path="url(#clip0_368_6644)">
<g id="&#227;&#131;&#172;&#227;&#130;&#164;&#227;&#131;&#164;&#227;&#131;&#188; 1">
<g id="Group">
<path id="Vector" d="M59.0596 35.6517V39.618H55.1245H51.1895V43.5786H55.1245V47.5393V51.5V55.4607V59.4213V63.3876V67.3483V71.309V75.2697V79.2303V83.1516L55.1301 83.1966L55.1245 83.1798V83.191V87.1573V91.118H51.1895V95.0786H55.1245H59.0596V91.118H63.0002V87.1573V83.191V79.2303V75.2697V71.309V67.3483V63.3876V59.4213V55.4607V51.5V47.5393V43.5786V39.618V35.6517H59.0596Z" fill="#A2A0C2"/>
<path id="Vector_2" d="M55.1252 91.118V87.1573V83.191V83.1798L55.1308 83.1967L55.1252 83.1517V79.2304V75.2697V71.309V67.3483V63.3877V59.4214V55.4607V51.5V47.5393V43.5787H51.1902V47.5393H47.2495V51.5V55.4607V59.4214V63.3877V67.3483V71.309V75.2697V79.2304V83.191V87.1573V91.118H43.3145V95.0787H47.2495H51.1902V91.118H55.1252Z" fill="#4E4C77"/>
<path id="Vector_3" d="M51.1895 35.6517V39.618H55.1245H59.0596V35.6517H55.1245H51.1895Z" fill="#B2FF00"/>
<path id="Vector_4" d="M51.1887 35.6517H47.248V39.618H51.1887V35.6517Z" fill="#A2A0C2"/>
<path id="Vector_5" d="M43.314 95.0786V91.118H47.2491V47.5393H51.1897V43.5786H39.3734V47.5393H27.5626V43.5786H15.7519V39.618H7.87619V35.6517H3.93555V87.1573H7.87619V95.0786H15.7519V99.0393H23.6276V103H43.314V99.0393H51.1897V95.0786H43.314ZM35.4383 99.0393V51.5H39.3734V99.0393H35.4383Z" fill="#A2A0C2"/>
<path id="Vector_6" d="M43.3137 39.618H39.373V43.5787H43.3137H47.2487H51.1894V39.618H47.2487H43.3137Z" fill="#B2FF00"/>
<path id="Vector_7" d="M43.3145 15.8483H47.2495V19.809V23.7696H51.1902V27.7303V31.691V35.6517H55.1252H59.0603V31.691V27.7303V23.7696V19.809H55.1252V15.8483H51.1902V11.882H47.2495V7.92133H43.3145V11.882V15.8483Z" fill="#A2A0C2"/>
<path id="Vector_8" d="M43.3137 3.96069H39.373V7.92137H43.3137V3.96069Z" fill="#A2A0C2"/>
<path id="Vector_9" d="M39.3726 91.118V87.1573V83.191V79.2303V75.2697V71.309V67.3483V63.3876V59.4213V55.4607V51.5H35.4375V55.4607V59.4213V63.3876V67.3483V71.309V75.2697V79.2303V83.191V87.1573V91.118V95.0787V99.0393H39.3726V95.0787V91.118Z" fill="#4E4C77"/>
<path id="Vector_10" d="M39.3737 27.7303V23.7696H35.4387V19.809H31.498V23.7696V27.7303H35.4387V31.691V35.6517H39.3737V31.691V27.7303Z" fill="#4E4C77"/>
<path id="Vector_11" d="M31.4976 43.5787H27.5625V47.5393H31.4976H35.4382H39.3733V43.5787H35.4382H31.4976Z" fill="#B2FF00"/>
<path id="Vector_12" d="M35.4387 35.6517H31.498V39.618H35.4387V35.6517Z" fill="#4E4C77"/>
<path id="Vector_13" d="M31.498 3.96069V7.92137H35.4387V11.882V15.8483H39.3737V19.809H43.3144V23.7697V27.7304V31.691V35.6517H39.3737V39.618H43.3144H47.2494V35.6517H51.1901V31.691V27.7304V23.7697H47.2494V19.809V15.8483H43.3144V11.882V7.92137H39.3737V3.96069H35.4387H31.498Z" fill="#4E4C77"/>
<path id="Vector_14" d="M35.4387 3.96067H39.3737V0H35.4387H31.498V3.96067H35.4387Z" fill="#A2A0C2"/>
<path id="Vector_15" d="M31.4971 3.96067V0H27.562H23.627V3.96067H27.562H31.4971Z" fill="#B2FF00"/>
<path id="Vector_16" d="M23.6277 39.618H19.687H15.752V43.5787H19.687H23.6277H27.5627V39.618H23.6277Z" fill="#B2FF00"/>
<path id="Vector_17" d="M23.6262 3.96069H19.6855V7.92137H23.6262V3.96069Z" fill="#B2FF00"/>
<path id="Vector_18" d="M19.687 7.92133H15.752V11.882H19.687V7.92133Z" fill="#B2FF00"/>
<path id="Vector_19" d="M11.8101 35.6517H7.875V39.618H11.8101H15.7507V35.6517H11.8101Z" fill="#B2FF00"/>
<path id="Vector_20" d="M15.7512 11.882H11.8105V15.8483H15.7512V11.882Z" fill="#B2FF00"/>
<path id="Vector_21" d="M7.875 27.7304V31.691V35.6517H11.8101H15.7507V39.618H19.6858H23.6264H27.5615V43.5787H31.4965H35.4372H39.3722V39.618V35.6517H35.4372V39.618H31.4965V35.6517H35.4372V31.691V27.7304H31.4965V23.7697V19.809H35.4372V23.7697H39.3722V27.7304V31.691V35.6517H43.3128V31.691V27.7304V23.7697V19.809H39.3722V15.8483H35.4372V11.882V7.92137H31.4965V3.96069H27.5615H23.6264V7.92137H19.6858V11.882H15.7507V15.8483H11.8101V19.809H7.875V23.7697V27.7304Z" fill="#A2A0C2"/>
<path id="Vector_22" d="M11.8101 15.8483H7.875V19.809H11.8101V15.8483Z" fill="#B2FF00"/>
<path id="Vector_23" d="M7.87619 87.1573H3.93555V91.118H7.87619V87.1573Z" fill="#B2FF00"/>
<path id="Vector_24" d="M7.87619 31.691V27.7303V23.7696V19.809H3.93555V23.7696V27.7303V31.691V35.6517H7.87619V31.691Z" fill="#B2FF00"/>
<path id="Vector_25" d="M3.93505 79.2303V75.2696V71.309V67.3483V63.3876V59.4213V55.4607V51.5V47.5393V43.5786V39.618V35.6517H0V39.618V43.5786V47.5393V51.5V55.4607V59.4213V63.3876V67.3483V71.309V75.2696V79.2303V83.191V87.1573H3.93505V83.191V79.2303Z" fill="#B2FF00"/>
</g>
</g>
</g>
<defs>
<clipPath id="clip0_368_6644">
<rect width="63" height="103" fill="white"/>
</clipPath>
</defs>
</svg>
