<svg width="366" height="496" viewBox="0 0 366 496" fill="none" xmlns="http://www.w3.org/2000/svg">
<g clip-path="url(#clip0_368_9188)">
<path d="M360.096 76.7598V82.6631V88.5664V94.4753V100.379V106.282V112.185V118.088V123.992V129.906V135.81V141.713V147.616V153.519V159.428V165.332V171.235V177.138V183.041V188.945V194.859V200.763V206.666V212.569V218.472V224.376V230.285V236.188V242.091V247.995V253.898V259.812V265.716V271.619V277.522V283.425V289.329V295.238V301.141V307.044V312.948V318.851V324.754V330.669V336.572V342.475V348.379V354.282V360.191V366.094V371.997V377.901V383.804V389.707V395.622V401.525V407.428V413.332V419.235V425.138V431.047V436.95V442.854V448.757V454.66V460.575V466.478V472.381V478.285V484.188H366.001V478.285V472.381V466.478V460.575V454.66V448.757V442.854V436.95V431.047V425.138V419.235V413.332V407.428V401.525V395.622V389.707V383.804V377.901V371.997V366.094V360.191V354.282V348.379V342.475V336.572V330.669V324.754V318.851V312.948V307.044V301.141V295.238V289.329V283.425V277.522V271.619V265.716V259.812V253.898V247.995V242.091V236.188V230.285V224.376V218.472V212.569V206.666V200.763V194.859V188.945V183.041V177.138V171.235V165.332V159.428V153.519V147.616V141.713V135.81V129.906V123.992V118.088V112.185V106.282V100.379V94.4753V88.5664V82.6631V76.7598H360.096Z" fill="white"/>
<path d="M360.095 484.188H354.195V490.091H360.095V484.188Z" fill="white"/>
<path d="M360.095 472.381V466.478V460.575V454.66V448.757V442.854V436.95V431.047V425.138V419.235V413.332V407.428V401.525V395.622V389.707V383.804V377.901V371.997V366.094V360.191V354.282V348.379V342.475V336.572V330.669V324.754V318.851V312.948V307.044V301.141V295.238V289.329V283.425V277.522V271.619V265.716V259.812V253.898V247.995V242.091V236.188V230.285V224.376V218.472V212.569V206.666V200.763V194.859V188.945V183.041V177.138V171.235V165.332V159.428V153.519V147.616V141.713V135.81V129.906V123.992V118.088V112.185V106.282V100.379V94.4753V88.5664V82.6631V76.7598H354.195V82.6631V88.5664V94.4753V100.379V106.282V112.185V118.088V123.992V129.906V135.81V141.713V147.616V153.519V159.428V165.332V171.235V177.138V183.041V188.945V194.859V200.763V206.666V212.569V218.472V224.376V230.285V236.188V242.091V247.995V253.898V259.812V265.716V271.619V277.522V283.425V289.329V295.238V301.141V307.044V312.948V318.851V324.754V330.669V336.572V342.475V348.379V354.282V360.191V366.094V371.997V377.901V383.804V389.707V395.622V401.525V407.428V413.332V419.235V425.138V431.047V436.95V442.854V448.757V454.66V460.575V466.478V472.381V478.285V484.188H360.095V478.285V472.381Z" fill="#3B0C79"/>
<path d="M354.195 76.7597H360.095V70.8564V64.9531H354.195V70.8564V76.7597Z" fill="white"/>
<path d="M348.285 484.188H342.386H336.481H330.581H324.671H318.771H312.872H306.967H301.068H295.157H289.257H283.352H277.453H271.554H265.643H259.743H253.838H247.939H242.028H236.129H230.224H224.325H218.425H212.514H206.615H200.71H194.811H188.9H183H177.101H171.196H165.297H159.386H153.487H147.581H141.682H135.771H129.872H123.973H118.068H112.168H106.257H100.358H94.453H88.5536H82.6429H76.7435H70.8441H64.939H59.0396H53.129H47.2295H41.3245H35.4251H29.5256H23.615H17.7156H11.8105V490.091H17.7156H23.615H29.5256H35.4251H41.3245H47.2295H53.129H59.0396H64.939H70.8441H76.7435H82.6429H88.5536H94.453H100.358H106.257H112.168H118.068H123.973H129.872H135.771H141.682H147.581H153.487H159.386H165.297H171.196H177.101H183H188.9H194.811H200.71H206.615H212.514H218.425H224.325H230.224H236.129H242.028H247.939H253.838H259.743H265.643H271.554H277.453H283.352H289.257H295.157H301.068H306.967H312.872H318.771H324.671H330.581H336.481H342.386H348.285H354.196V484.188H348.285Z" fill="#3B0C79"/>
<path d="M348.285 70.8564V76.7597H354.196V70.8564V64.9531H348.285V70.8564Z" fill="#3B0C79"/>
<path d="M354.196 59.0498H348.285V64.9531H354.196V59.0498Z" fill="white"/>
<path d="M342.386 490.091H336.481H330.581H324.671H318.771H312.872H306.967H301.068H295.157H289.257H283.352H277.453H271.554H265.643H259.743H253.838H247.939H242.028H236.129H230.224H224.325H218.425H212.514H206.615H200.71H194.811H188.9H183H177.101H171.196H165.297H159.386H153.487H147.581H141.682H135.771H129.872H123.973H118.068H112.168H106.257H100.358H94.453H88.5536H82.6429H76.7435H70.8441H64.939H59.0396H53.129H47.2295H41.3245H35.4251H29.5256H23.615H17.7156H11.8105V496H17.7156H23.615H29.5256H35.4251H41.3245H47.2295H53.129H59.0396H64.939H70.8441H76.7435H82.6429H88.5536H94.453H100.358H106.257H112.168H118.068H123.973H129.872H135.771H141.682H147.581H153.487H159.386H165.297H171.196H177.101H183H188.9H194.811H200.71H206.615H212.514H218.425H224.325H230.224H236.129H242.028H247.939H253.838H259.743H265.643H271.554H277.453H283.352H289.257H295.157H301.068H306.967H312.872H318.771H324.671H330.581H336.481H342.386H348.285H354.196V490.091H348.285H342.386Z" fill="white"/>
<path d="M348.285 70.8564V64.9531H342.385V59.0498H336.48V53.1353H330.581V47.232H324.67V41.3287H318.771V35.4254H312.871V29.5221H306.966V23.6188H295.156V17.71H283.352V484.188H354.195V76.7597H348.285V70.8564ZM295.156 419.235V88.5663H306.966V94.4752H312.871V100.378H318.771V106.282H324.67V112.185H330.581V118.088H336.48V425.138H295.156V419.235Z" fill="#3200CC"/>
<path d="M348.284 59.0498H342.385V64.9531H348.284V59.0498Z" fill="#3B0C79"/>
<path d="M348.284 53.1353H342.385V59.0497H348.284V53.1353Z" fill="white"/>
<path d="M342.386 53.1353H336.48V59.0497H342.386V53.1353Z" fill="#3B0C79"/>
<path d="M342.386 47.2319H336.48V53.1352H342.386V47.2319Z" fill="white"/>
<path d="M330.58 129.906V135.809V141.713V147.616V153.519V159.428V165.332V171.235V177.138V183.041V188.945V194.859V200.762V206.666V212.569V218.472V224.376V230.285V236.188V242.091V247.994V253.898V259.812V265.716V271.619V277.522V283.425V289.329V295.238V301.141V307.044V312.948V318.851V324.754V330.669V336.572V342.475V348.378V354.282V360.191V366.094V371.997V377.901V383.804V389.707V395.622V401.525V407.428V413.332V419.235V425.138H336.48V419.235V413.332V407.428V401.525V395.622V389.707V383.804V377.901V371.997V366.094V360.191V354.282V348.378V342.475V336.572V330.669V324.754V318.851V312.948V307.044V301.141V295.238V289.329V283.425V277.522V271.619V265.716V259.812V253.898V247.994V242.091V236.188V230.285V224.376V218.472V212.569V206.666V200.762V194.859V188.945V183.041V177.138V171.235V165.332V159.428V153.519V147.616V141.713V135.809V129.906V123.992V118.088H330.58V123.992V129.906Z" fill="#A400FC"/>
<path d="M336.48 47.2319H330.58V53.1352H336.48V47.2319Z" fill="#3B0C79"/>
<path d="M336.48 41.3286H330.58V47.2319H336.48V41.3286Z" fill="white"/>
<path d="M330.581 112.185H324.67V118.088H330.581V112.185Z" fill="#A400FC"/>
<path d="M330.581 41.3286H324.67V47.2319H330.581V41.3286Z" fill="#3B0C79"/>
<path d="M330.581 35.4253H324.67V41.3286H330.581V35.4253Z" fill="white"/>
<path d="M324.671 106.282H318.771V112.185H324.671V106.282Z" fill="#A400FC"/>
<path d="M324.671 35.4253H318.771V41.3286H324.671V35.4253Z" fill="#3B0C79"/>
<path d="M324.671 29.522H318.771V35.4253H324.671V29.522Z" fill="white"/>
<path d="M318.771 100.378H312.871V106.282H318.771V100.378Z" fill="#A400FC"/>
<path d="M318.771 29.522H312.871V35.4253H318.771V29.522Z" fill="#3B0C79"/>
<path d="M318.771 23.6189H312.871V29.5222H318.771V23.6189Z" fill="white"/>
<path d="M312.872 94.4751H306.967V100.378H312.872V94.4751Z" fill="#A400FC"/>
<path d="M312.872 23.6189H306.967V29.5222H312.872V23.6189Z" fill="#3B0C79"/>
<path d="M312.872 17.71H306.967V23.6188H312.872V17.71Z" fill="white"/>
<path d="M306.966 425.138H312.871V419.235V413.331V407.428V401.525V395.622V389.707V383.804V377.9V371.997V366.094V360.191V354.282V348.378V342.475V336.572V330.669V324.754V318.851V312.947V307.044V301.141V295.238V289.329V283.425V277.522V271.619V265.715V259.812V253.898V247.994V242.091V236.188V230.284V224.376V218.472V212.569V206.666V200.762V194.859V188.945V183.041V177.138V171.235V165.331V159.428V153.519V147.616V141.713V135.809V129.906V123.992V118.088H306.966V112.185V106.282H301.067V100.378V94.4751H295.156V100.378V106.282V112.185V118.088V123.992V129.906V135.809V141.713V147.616V153.519V159.428V165.331V171.235V177.138V183.041V188.945V194.859V200.762V206.666V212.569V218.472V224.376V230.284V236.188V242.091V247.994V253.898V259.812V265.715V271.619V277.522V283.425V289.329V295.238V301.141V307.044V312.947V318.851V324.754V330.669V336.572V342.475V348.378V354.282V360.191V366.094V371.997V377.9V383.804V389.707V395.622V401.525V407.428V413.331V419.235V425.138H301.067H306.966Z" fill="#3B0C79"/>
<path d="M301.066 100.378V106.282H306.966V112.185V118.088H312.871V123.992V129.906V135.809V141.713V147.616V153.519V159.428V165.331V171.235V177.138V183.041V188.945V194.859V200.762V206.666V212.569V218.472V224.376V230.284V236.188V242.091V247.994V253.898V259.812V265.715V271.619V277.522V283.425V289.329V295.238V301.141V307.044V312.947V318.851V324.754V330.669V336.572V342.475V348.378V354.282V360.191V366.094V371.997V377.9V383.804V389.707V395.622V401.525V407.428V413.331V419.235V425.138H318.77H324.67H330.58V419.235V413.331V407.428V401.525V395.622V389.707V383.804V377.9V371.997V366.094V360.191V354.282V348.378V342.475V336.572V330.669V324.754V318.851V312.947V307.044V301.141V295.238V289.329V283.425V277.522V271.619V265.715V259.812V253.898V247.994V242.091V236.188V230.284V224.376V218.472V212.569V206.666V200.762V194.859V188.945V183.041V177.138V171.235V165.331V159.428V153.519V147.616V141.713V135.809V129.906V123.992V118.088H324.67V112.185H318.77V106.282H312.871V100.378H306.966V94.4751H301.066V100.378Z" fill="#4800FF"/>
<path d="M306.966 94.4751V88.5662H301.067H295.156V94.4751H301.067H306.966Z" fill="#A400FC"/>
<path d="M295.156 17.71V23.6188H301.067H306.966V17.71H301.067H295.156Z" fill="#3B0C79"/>
<path d="M301.067 17.7099H306.966V11.8066H301.067H295.156V17.7099H301.067Z" fill="white"/>
<path d="M283.353 11.8066H277.453V17.7099H283.353H289.258H295.157V11.8066H289.258H283.353Z" fill="#3B0C79"/>
<path d="M283.352 472.381V17.7099H277.453V11.8066H88.5532V17.7099H82.6426V484.188H94.4526V448.757H100.358V442.854H265.643V448.757H271.553V484.188H283.352V472.381ZM94.4526 413.332V94.4752H100.358V88.5663H265.643V94.4752H271.553V419.235H265.643V425.138H100.358V419.235H94.4526V413.332Z" fill="#4800FF"/>
<path d="M283.353 11.8066H289.258H295.157V5.90332H289.258H283.353H277.453V11.8066H283.353Z" fill="white"/>
<path d="M271.553 472.381V466.478V460.575V454.66V448.757H265.643V454.66V460.575V466.478V472.381V478.285V484.188H271.553V478.285V472.381Z" fill="#A400FC"/>
<path d="M265.643 106.282V112.185V118.088V123.992V129.906V135.809V141.713V147.616V153.519V159.428V165.331V171.235V177.138V183.041V188.945V194.859V200.762V206.666V212.569V218.472V224.376V230.284V236.188V242.091V247.994V253.898V259.812V265.715V271.619V277.522V283.425V289.329V295.238V301.141V307.044V312.947V318.851V324.754V330.669V336.572V342.475V348.378V354.282V360.191V366.094V371.997V377.9V383.804V389.707V395.622V401.525V407.428V413.331V419.235H271.553V413.331V407.428V401.525V395.622V389.707V383.804V377.9V371.997V366.094V360.191V354.282V348.378V342.475V336.572V330.669V324.754V318.851V312.947V307.044V301.141V295.238V289.329V283.425V277.522V271.619V265.715V259.812V253.898V247.994V242.091V236.188V230.284V224.376V218.472V212.569V206.666V200.762V194.859V188.945V183.041V177.138V171.235V165.331V159.428V153.519V147.616V141.713V135.809V129.906V123.992V118.088V112.185V106.282V100.378V94.4751H265.643V100.378V106.282Z" fill="#A400FC"/>
<path d="M265.642 472.381V466.478V460.575H259.742V466.478H253.837V472.381H247.938V478.285H242.027V484.188H247.938H253.837H259.742H265.642V478.285V472.381Z" fill="#B2FF00"/>
<path d="M253.838 419.235H247.938H242.028H236.128H230.223H224.324H218.424H212.514H206.614H200.709H194.81H188.899H183H177.1H171.195H165.296H159.385H153.486H147.581H141.681H135.771H129.871H123.972H118.067H112.167H106.257H100.357V425.138H106.257H112.167H118.067H123.972H129.871H135.771H141.681H147.581H153.486H159.385H165.296H171.195H177.1H183H188.899H194.81H200.709H206.614H212.514H218.424H224.324H230.223H236.128H242.028H247.938H253.838H259.743H265.642V419.235H259.743H253.838Z" fill="#A400FC"/>
<path d="M247.939 478.285V472.381H253.838V466.478H259.743V460.575H265.643V454.66V448.757H259.743H253.838V454.66H247.939V460.575H242.028V466.478H236.129V472.381H230.224V478.285H224.324V484.188H230.224H236.129H242.028V478.285H247.939Z" fill="#E5FF00"/>
<path d="M242.029 159.428H230.224V153.519H206.615V200.762H230.224V194.859H236.129V188.945H242.029V200.762H247.939V183.041H242.029V165.331H247.939V153.519H242.029V159.428ZM212.515 194.859V159.428H218.425V194.859H212.515ZM224.325 188.945V165.331H230.224V188.945H224.325Z" fill="#E5FF00"/>
<path d="M230.223 242.091V247.994V253.898V259.812V265.715V271.619V277.522V283.425V289.329V295.237V301.141V307.044V312.947V318.851V324.754V330.668V336.572V342.475V348.378H236.128V342.475V336.572V330.668V324.754V318.851V312.947V307.044V301.141V295.237V289.329V283.425V277.522V271.619V265.715V259.812V253.898V247.994V242.091V236.188H230.223V242.091Z" fill="#E5FF00"/>
<path d="M230.224 478.285V472.381H236.129V466.478H242.029V460.575H247.939V454.66H253.839V448.757H247.939H242.029H236.129H230.224H224.325H218.426V454.66H212.515V460.575H206.615V466.478H200.71V472.381H194.811V478.285H188.9V484.188H194.811H200.71H206.615H212.515H218.426H224.325V478.285H230.224Z" fill="#B2FF00"/>
<path d="M230.224 336.572V330.668V324.754V318.851V312.947V307.044V301.141V295.238V289.329V283.425V277.522V271.619V265.715V259.812V253.898V247.994V242.091H224.324V247.994V253.898V259.812H218.425V265.715V271.619V277.522H212.514V283.425V289.329H206.615V295.238V301.141H200.71V307.044H194.81V312.947H188.9V318.851H183V324.754H177.101V330.668H171.196H165.296V336.572H159.386V342.475H153.486H147.581H141.682V348.378H147.581H153.486H159.386H165.296H171.196H177.101H183H188.9H194.81H200.71H206.615H212.514H218.425H224.324H230.224V342.475V336.572Z" fill="#E00000"/>
<path d="M230.224 177.138V171.235V165.332H224.324V171.235V177.138V183.041V188.945H230.224V183.041V177.138Z" fill="#3B0C79"/>
<path d="M218.425 348.378H212.514H206.615H200.71H194.811H188.9H183.001H177.101H171.196H165.297H159.386H153.487H147.582H141.682H135.771V354.282H141.682H147.582H153.487H159.386H165.297H171.196H177.101H183.001H188.9H194.811H200.71H206.615H212.514H218.425H224.325H230.224V348.378H224.325H218.425Z" fill="#E5FF00"/>
<path d="M218.424 183.041V177.138V171.235V165.332V159.428H212.514V165.332V171.235V177.138V183.041V188.945V194.859H218.424V188.945V183.041Z" fill="#3B0C79"/>
<path d="M194.809 165.331V171.235H188.898V159.428H194.809V153.519H182.999V194.859H177.1V200.762H200.709V159.428H194.809V165.331ZM194.809 188.945V194.859H188.898V183.041H194.809V188.945Z" fill="#E5FF00"/>
<path d="M194.81 478.285V472.381H200.709V466.478H206.614V460.575H212.514V454.66H218.424V448.757H212.514H206.614H200.709V454.66H194.81V460.575H188.899V466.478H183V472.381H177.1V478.285H171.195V484.188H177.1H183H188.899V478.285H194.81Z" fill="#E5FF00"/>
<path d="M188.9 188.945V194.859H194.811V188.945V183.041H188.9V188.945Z" fill="#3B0C79"/>
<path d="M188.9 165.332V171.235H194.811V165.332V159.428H188.9V165.332Z" fill="#3B0C79"/>
<path d="M177.1 478.285V472.381H182.999V466.478H188.899V460.575H194.809V454.66H200.709V448.757H194.809H188.899V454.66H182.999V460.575H177.1V466.478H171.195V472.381H165.295V478.285H159.385V484.188H165.295H171.195V478.285H177.1Z" fill="#B2FF00"/>
<path d="M165.296 478.285V472.381H171.196V466.478H177.101V460.575H183V454.66H188.9V448.757H183H177.101H171.196V454.66H165.296V460.575H159.386V466.478H153.486V472.381H147.581V478.285H141.682V484.188H147.581H153.486H159.386V478.285H165.296Z" fill="#E5FF00"/>
<path d="M165.296 200.762H171.196V177.138H159.386V159.428H165.296V165.331H171.196V153.519H153.486V200.762H165.296ZM159.386 188.945V183.041H165.296V194.859H159.386V188.945Z" fill="#E5FF00"/>
<path d="M165.295 188.945V183.041H159.385V188.945V194.859H165.295V188.945Z" fill="#3B0C79"/>
<path d="M147.581 478.285V472.381H153.486V466.478H159.385V460.575H165.296V454.66H171.195V448.757H165.296H159.385H153.486H147.581H141.681H135.771H129.871V454.66H123.972V460.575H118.067V466.478H112.167V472.381H106.257V478.285H100.357V484.188H106.257H112.167H118.067H123.972H129.871H135.771H141.681V478.285H147.581Z" fill="#B2FF00"/>
<path d="M147.582 236.188H153.487H159.386H165.297H171.196H177.101H183.001H188.9H194.811H200.71H206.615H212.514H218.425H224.325H230.224V230.284H224.325H218.425H212.514H206.615H200.71H194.811H188.9H183.001H177.101H171.196H165.297H159.386H153.487H147.582H141.682H135.771V236.188H141.682H147.582Z" fill="#E5FF00"/>
<path d="M141.682 342.475H147.582H153.487H159.386V336.572H165.297V330.668H171.196H177.101V324.754H183.001V318.851H188.9V312.947H194.811V307.044H200.71V301.141H206.615V295.237V289.329H212.514V283.425V277.522H218.425V271.619V265.715V259.812H224.325V253.898V247.994V242.091H230.224V236.188H224.325H218.425H212.514H206.615H200.71H194.811H188.9H183.001H177.101H171.196H165.297H159.386H153.487H147.582H141.682H135.771V242.091V247.994V253.898V259.812V265.715V271.619V277.522V283.425V289.329V295.237V301.141V307.044V312.947V318.851V324.754V330.668V336.572V342.475V348.378H141.682V342.475Z" fill="#FF0000"/>
<path d="M135.771 336.572V330.668V324.754V318.851V312.947V307.044V301.141V295.237V289.329V283.425V277.522V271.619V265.715V259.812V253.898V247.994V242.091V236.188H129.871V242.091V247.994V253.898V259.812V265.715V271.619V277.522V283.425V289.329V295.237V301.141V307.044V312.947V318.851V324.754V330.668V336.572V342.475V348.378H135.771V342.475V336.572Z" fill="#E5FF00"/>
<path d="M129.871 200.762H135.77V194.859H141.681V200.762H147.58V153.519H141.681V177.138H135.77V153.519H118.066V200.762H129.871ZM123.971 165.331V159.428H129.871V171.235H123.971V165.331ZM123.971 188.945V177.138H129.871V183.041H135.77V188.945H129.871V194.859H123.971V188.945Z" fill="#E5FF00"/>
<path d="M129.872 188.945H135.772V183.041H129.872V177.138H123.973V183.041V188.945V194.859H129.872V188.945Z" fill="#3B0C79"/>
<path d="M129.872 165.332V159.428H123.973V165.332V171.235H129.872V165.332Z" fill="#3B0C79"/>
<path d="M118.067 448.757H112.167V454.66H106.257V460.575H100.357V466.478V472.381V478.285H106.257V472.381H112.167V466.478H118.067V460.575H123.972V454.66H129.871V448.757H123.972H118.067Z" fill="#E5FF00"/>
<path d="M112.167 448.757H118.067H123.972H129.871H135.771H141.681H147.581H153.486H159.385H165.296H171.195H177.1H183H188.899H194.81H200.709H206.614H212.514H218.424H224.324H230.223H236.128H242.028H247.938H253.838H259.743H265.642V442.854H259.743H253.838H247.938H242.028H236.128H230.223H224.324H218.424H212.514H206.614H200.709H194.81H188.899H183H177.1H171.195H165.296H159.385H153.486H147.581H141.681H135.771H129.871H123.972H118.067H112.167H106.257H100.357V448.757H106.257H112.167Z" fill="#3200CC"/>
<path d="M112.167 94.4751H118.067H123.972H129.871H135.771H141.681H147.581H153.486H159.385H165.296H171.195H177.1H183H188.899H194.81H200.709H206.614H212.514H218.424H224.324H230.223H236.128H242.028H247.938H253.838H259.743H265.642V88.5662H259.743H253.838H247.938H242.028H236.128H230.223H224.324H218.424H212.514H206.614H200.709H194.81H188.899H183H177.1H171.195H165.296H159.385H153.486H147.581H141.681H135.771H129.871H123.972H118.067H112.167H106.257H100.357V94.4751H106.257H112.167Z" fill="#3200CC"/>
<path d="M100.357 460.575H106.257V454.66H112.167V448.757H106.257H100.357V454.66V460.575Z" fill="#B2FF00"/>
<path d="M100.357 106.282V419.235H265.642V94.4751H100.357V106.282ZM247.938 159.428V165.331H242.028V183.041H247.938V200.762H242.028V188.945H236.128V194.859H230.223V200.762H206.614V153.519H230.223V159.428H242.028V153.519H247.938V159.428ZM118.067 194.859V153.519H135.771V177.138H141.681V153.519H147.581V200.762H141.681V194.859H135.771V200.762H118.067V194.859ZM200.709 165.331V200.762H177.1V194.859H183V153.519H194.81V159.428H200.709V165.331ZM153.486 194.859V153.519H171.195V165.331H165.296V159.428H159.385V177.138H171.195V200.762H153.486V194.859ZM236.128 242.091V348.378H230.223V354.282H135.771V348.378H129.871V236.188H135.771V230.284H230.223V236.188H236.128V242.091Z" fill="#3B0C79"/>
<path d="M100.358 472.381V466.478V460.575V454.66V448.757H94.4531V454.66V460.575V466.478V472.381V478.285V484.188H100.358V478.285V472.381Z" fill="#3200CC"/>
<path d="M100.358 413.331V407.428V401.525V395.622V389.707V383.804V377.9V371.997V366.094V360.191V354.282V348.378V342.475V336.572V330.669V324.754V318.851V312.947V307.044V301.141V295.238V289.329V283.425V277.522V271.619V265.715V259.812V253.898V247.994V242.091V236.188V230.284V224.376V218.472V212.569V206.666V200.762V194.859V188.945V183.041V177.138V171.235V165.331V159.428V153.519V147.616V141.713V135.809V129.906V123.992V118.088V112.185V106.282V100.378V94.4751H94.4531V100.378V106.282V112.185V118.088V123.992V129.906V135.809V141.713V147.616V153.519V159.428V165.331V171.235V177.138V183.041V188.945V194.859V200.762V206.666V212.569V218.472V224.376V230.284V236.188V242.091V247.994V253.898V259.812V265.715V271.619V277.522V283.425V289.329V295.238V301.141V307.044V312.947V318.851V324.754V330.669V336.572V342.475V348.378V354.282V360.191V366.094V371.997V377.9V383.804V389.707V395.622V401.525V407.428V413.331V419.235H100.358V413.331Z" fill="#3200CC"/>
<path d="M100.357 5.9033H106.257H112.167H118.067H123.972H129.871H135.771H141.681H147.581H153.486H159.385H165.296H171.195H177.1H183H188.899H194.81H200.709H206.614H212.514H218.424H224.324H230.223H236.128H242.028H247.938H253.838H259.743H265.642H271.553H277.452V0H271.553H265.642H259.743H253.838H247.938H242.028H236.128H230.223H224.324H218.424H212.514H206.614H200.709H194.81H188.899H183H177.1H171.195H165.296H159.385H153.486H147.581H141.681H135.771H129.871H123.972H118.067H112.167H106.257H100.357H94.4522H88.5527V5.9033H94.4522H100.357Z" fill="white"/>
<path d="M94.4522 11.8066H100.357H106.257H112.167H118.067H123.972H129.871H135.771H141.681H147.581H153.486H159.385H165.296H171.195H177.1H183H188.899H194.81H200.709H206.614H212.514H218.424H224.324H230.223H236.128H242.028H247.938H253.838H259.743H265.642H271.553H277.452V5.90332H271.553H265.642H259.743H253.838H247.938H242.028H236.128H230.223H224.324H218.424H212.514H206.614H200.709H194.81H188.899H183H177.1H171.195H165.296H159.385H153.486H147.581H141.681H135.771H129.871H123.972H118.067H112.167H106.257H100.357H94.4522H88.5527V11.8066H94.4522Z" fill="#3B0C79"/>
<path d="M82.6429 472.381V17.71H70.8441V23.6188H59.0396V29.5221H53.129V35.4254H47.2295V41.3287H41.3245V47.232H35.4251V53.1353H29.5256V59.0498H23.615V64.9531H17.7156V76.7597H11.8105V484.188H82.6429V472.381ZM70.8441 94.4752V431.047H29.5256V118.088H35.4251V112.185H41.3245V106.282H47.2295V100.378H53.129V94.4752H59.0396V88.5663H70.8441V94.4752Z" fill="#3200CC"/>
<path d="M82.6426 11.8066H88.5532V5.90332H82.6426H76.7432H70.8438V11.8066H76.7432H82.6426Z" fill="white"/>
<path d="M76.7432 17.7099H82.6426H88.5532V11.8066H82.6426H76.7432H70.8438V17.7099H76.7432Z" fill="#3B0C79"/>
<path d="M64.939 100.378V106.282V112.185H59.0395V118.088H53.1289V123.992V129.906V135.809V141.713V147.616V153.519V159.428V165.331V171.235V177.138V183.041V188.945V194.859V200.762V206.666V212.569V218.472V224.376V230.284V236.188V242.091V247.994V253.898V259.812V265.715V271.619V277.522V283.425V289.329V295.238V301.141V307.044V312.947V318.851V324.754V330.669V336.572V342.475V348.378V354.282V360.191V366.094V371.997V377.9V383.804V389.707V395.622V401.525V407.428V413.331V419.235V425.138H59.0395H64.939H70.844V419.235V413.331V407.428V401.525V395.622V389.707V383.804V377.9V371.997V366.094V360.191V354.282V348.378V342.475V336.572V330.669V324.754V318.851V312.947V307.044V301.141V295.238V289.329V283.425V277.522V271.619V265.715V259.812V253.898V247.994V242.091V236.188V230.284V224.376V218.472V212.569V206.666V200.762V194.859V188.945V183.041V177.138V171.235V165.331V159.428V153.519V147.616V141.713V135.809V129.906V123.992V118.088V112.185V106.282V100.378V94.4751H64.939V100.378Z" fill="#3B0C79"/>
<path d="M70.8435 17.7099V11.8066H64.9385H59.0391V17.7099H64.9385H70.8435Z" fill="white"/>
<path d="M59.0394 425.138H53.1287H47.2293H41.3243H35.4248V419.235V413.332V407.428V401.525V395.622V389.707V383.804V377.901V371.997V366.094V360.191V354.282V348.378V342.475V336.572V330.669V324.754V318.851V312.948V307.044V301.141V295.238V289.329V283.425V277.522V271.619V265.716V259.812V253.898V247.994V242.091V236.188V230.285V224.376V218.472V212.569V206.666V200.762V194.859V188.945V183.041V177.138V171.235V165.332V159.428V153.519V147.616V141.713V135.809V129.906V123.992V118.088H29.5254V123.992V129.906V135.809V141.713V147.616V153.519V159.428V165.332V171.235V177.138V183.041V188.945V194.859V200.762V206.666V212.569V218.472V224.376V230.285V236.188V242.091V247.994V253.898V259.812V265.716V271.619V277.522V283.425V289.329V295.238V301.141V307.044V312.948V318.851V324.754V330.669V336.572V342.475V348.378V354.282V360.191V366.094V371.997V377.901V383.804V389.707V395.622V401.525V407.428V413.332V419.235V425.138V431.047H35.4248H41.3243H47.2293H53.1287H59.0394H64.9388H70.8438V425.138H64.9388H59.0394Z" fill="#A400FC"/>
<path d="M59.0391 88.5662V94.4751H64.9385H70.8435V88.5662H64.9385H59.0391Z" fill="#A400FC"/>
<path d="M64.9385 23.6188H70.8435V17.71H64.9385H59.0391V23.6188H64.9385Z" fill="#3B0C79"/>
<path d="M59.0395 94.4751H53.1289V100.378H59.0395V94.4751Z" fill="#A400FC"/>
<path d="M59.0395 23.6189H53.1289V29.5222H59.0395V23.6189Z" fill="#3B0C79"/>
<path d="M59.0395 17.71H53.1289V23.6188H59.0395V17.71Z" fill="white"/>
<path d="M53.128 100.378H47.2285V106.282H53.128V100.378Z" fill="#A400FC"/>
<path d="M53.128 29.522H47.2285V35.4253H53.128V29.522Z" fill="#3B0C79"/>
<path d="M53.128 23.6189H47.2285V29.5222H53.128V23.6189Z" fill="white"/>
<path d="M47.2292 106.282H41.3242V112.185H47.2292V106.282Z" fill="#A400FC"/>
<path d="M47.2292 35.4253H41.3242V41.3286H47.2292V35.4253Z" fill="#3B0C79"/>
<path d="M47.2292 29.522H41.3242V35.4253H47.2292V29.522Z" fill="white"/>
<path d="M35.4238 129.906V135.809V141.713V147.616V153.519V159.428V165.331V171.235V177.138V183.041V188.945V194.859V200.762V206.666V212.569V218.472V224.376V230.284V236.188V242.091V247.994V253.898V259.812V265.715V271.619V277.522V283.425V289.329V295.238V301.141V307.044V312.947V318.851V324.754V330.669V336.572V342.475V348.378V354.282V360.191V366.094V371.997V377.9V383.804V389.707V395.622V401.525V407.428V413.331V419.235V425.138H41.3233H47.2283H53.1277V419.235V413.331V407.428V401.525V395.622V389.707V383.804V377.9V371.997V366.094V360.191V354.282V348.378V342.475V336.572V330.669V324.754V318.851V312.947V307.044V301.141V295.238V289.329V283.425V277.522V271.619V265.715V259.812V253.898V247.994V242.091V236.188V230.284V224.376V218.472V212.569V206.666V200.762V194.859V188.945V183.041V177.138V171.235V165.331V159.428V153.519V147.616V141.713V135.809V129.906V123.992V118.088H59.0384V112.185H64.9378V106.282V100.378V94.4751H59.0384V100.378H53.1277V106.282H47.2283V112.185H41.3233V118.088H35.4238V123.992V129.906Z" fill="#4800FF"/>
<path d="M41.3233 112.185H35.4238V118.088H41.3233V112.185Z" fill="#A400FC"/>
<path d="M41.3233 41.3286H35.4238V47.2319H41.3233V41.3286Z" fill="#3B0C79"/>
<path d="M41.3233 35.4253H35.4238V41.3286H41.3233V35.4253Z" fill="white"/>
<path d="M35.4248 47.2319H29.5254V53.1352H35.4248V47.2319Z" fill="#3B0C79"/>
<path d="M35.4248 41.3286H29.5254V47.2319H35.4248V41.3286Z" fill="white"/>
<path d="M29.5258 53.1353H23.6152V59.0497H29.5258V53.1353Z" fill="#3B0C79"/>
<path d="M29.5258 47.2319H23.6152V53.1352H29.5258V47.2319Z" fill="white"/>
<path d="M23.6143 59.0498H17.7148V64.9531H23.6143V59.0498Z" fill="#3B0C79"/>
<path d="M23.6143 53.1353H17.7148V59.0497H23.6143V53.1353Z" fill="white"/>
<path d="M11.8105 76.7597H17.7156V70.8564V64.9531H11.8105V70.8564V76.7597Z" fill="#3B0C79"/>
<path d="M17.7156 59.0498H11.8105V64.9531H17.7156V59.0498Z" fill="white"/>
<path d="M11.8096 484.188H5.91016V490.091H11.8096V484.188Z" fill="white"/>
<path d="M11.8096 478.285V472.381V466.478V460.575V454.66V448.757V442.854V436.95V431.047V425.138V419.235V413.332V407.428V401.525V395.622V389.707V383.804V377.901V371.997V366.094V360.191V354.282V348.379V342.475V336.572V330.669V324.754V318.851V312.948V307.044V301.141V295.238V289.329V283.425V277.522V271.619V265.716V259.812V253.898V247.995V242.091V236.188V230.285V224.376V218.472V212.569V206.666V200.763V194.859V188.945V183.041V177.138V171.235V165.332V159.428V153.519V147.616V141.713V135.81V129.906V123.992V118.088V112.185V106.282V100.379V94.4753V88.5664V82.6631V76.7598H5.91016V82.6631V88.5664V94.4753V100.379V106.282V112.185V118.088V123.992V129.906V135.81V141.713V147.616V153.519V159.428V165.332V171.235V177.138V183.041V188.945V194.859V200.763V206.666V212.569V218.472V224.376V230.285V236.188V242.091V247.995V253.898V259.812V265.716V271.619V277.522V283.425V289.329V295.238V301.141V307.044V312.948V318.851V324.754V330.669V336.572V342.475V348.379V354.282V360.191V366.094V371.997V377.901V383.804V389.707V395.622V401.525V407.428V413.332V419.235V425.138V431.047V436.95V442.854V448.757V454.66V460.575V466.478V472.381V478.285V484.188H11.8096V478.285Z" fill="#3B0C79"/>
<path d="M11.8096 70.8564V64.9531H5.91016V70.8564V76.7597H11.8096V70.8564Z" fill="white"/>
<path d="M5.91061 472.381V466.478V460.575V454.66V448.757V442.854V436.95V431.047V425.138V419.235V413.332V407.428V401.525V395.622V389.707V383.804V377.901V371.997V366.094V360.191V354.282V348.379V342.475V336.572V330.669V324.754V318.851V312.948V307.044V301.141V295.238V289.329V283.425V277.522V271.619V265.716V259.812V253.898V247.995V242.091V236.188V230.285V224.376V218.472V212.569V206.666V200.763V194.859V188.945V183.041V177.138V171.235V165.332V159.428V153.519V147.616V141.713V135.81V129.906V123.992V118.088V112.185V106.282V100.379V94.4753V88.5664V82.6631V76.7598H0V82.6631V88.5664V94.4753V100.379V106.282V112.185V118.088V123.992V129.906V135.81V141.713V147.616V153.519V159.428V165.332V171.235V177.138V183.041V188.945V194.859V200.763V206.666V212.569V218.472V224.376V230.285V236.188V242.091V247.995V253.898V259.812V265.716V271.619V277.522V283.425V289.329V295.238V301.141V307.044V312.948V318.851V324.754V330.669V336.572V342.475V348.379V354.282V360.191V366.094V371.997V377.901V383.804V389.707V395.622V401.525V407.428V413.332V419.235V425.138V431.047V436.95V442.854V448.757V454.66V460.575V466.478V472.381V478.285V484.188H5.91061V478.285V472.381Z" fill="white"/>
</g>
<defs>
<clipPath id="clip0_368_9188">
<rect width="366" height="496" fill="white"/>
</clipPath>
</defs>
</svg>
