<svg width="372" height="177" viewBox="0 0 372 177" fill="none" xmlns="http://www.w3.org/2000/svg">
<g clip-path="url(#clip0_368_9190)">
<path d="M366.1 106.196V112.1V117.998V123.897V129.801V135.699V141.598V147.496V153.395V159.293V165.197V171.096H372.001V165.197V159.293V153.395V147.496V141.598V135.699V129.801V123.897V117.998V112.1V106.196V100.297H366.1V106.196Z" fill="white"/>
<path d="M366.1 64.9004V70.7989V76.6974V82.5959V88.4944V94.393V100.297H372.001V94.393V88.4944V82.5959V76.6974V70.7989V64.9004V58.9907H366.1V64.9004Z" fill="white"/>
<path d="M366.1 53.0977V58.9907H372.001V53.0977V47.1992H366.1V53.0977Z" fill="white"/>
<path d="M366.1 41.3009V47.1994H372.001V41.3009V35.4023H366.1V41.3009Z" fill="white"/>
<path d="M366.1 29.4981V35.4022H372.001V29.4981V23.594H366.1V29.4981Z" fill="white"/>
<path d="M372.001 17.6956H366.1V23.5941H372.001V17.6956Z" fill="white"/>
<path d="M366.104 171.096H360.191V176.994H366.104V171.096Z" fill="white"/>
<path d="M366.098 159.293V153.395V147.496V141.598V135.699V129.801V123.897V117.998V112.1V106.196V100.297H360.191V106.196V112.1V117.998V123.897V129.801V135.699V141.598V147.496V153.395V159.293V165.197V171.096H366.098V165.197V159.293Z" fill="#3B0C79"/>
<path d="M366.098 94.393V88.4944V82.5959V76.6974V70.7989V64.9004V58.9907H360.191V64.9004V70.7989V76.6974V82.5959V88.4944V94.393V100.297H366.098V94.393Z" fill="#3B0C79"/>
<path d="M366.098 47.1992H360.191V53.0977V58.9907H366.098V53.0977V47.1992Z" fill="#3B0C79"/>
<path d="M366.098 35.4023H360.191V41.3009V47.1994H366.098V41.3009V35.4023Z" fill="#3B0C79"/>
<path d="M366.098 29.4981V23.594H360.191V29.4981V35.4022H366.098V29.4981Z" fill="#3B0C79"/>
<path d="M366.104 17.6956H360.191V23.5941H366.104V17.6956Z" fill="#3B0C79"/>
<path d="M366.104 11.7971H360.191V17.6956H366.104V11.7971Z" fill="white"/>
<path d="M360.186 171.096H354.285V176.994H360.186V171.096Z" fill="white"/>
<path d="M354.285 141.598V147.496V153.395V159.293V165.197V171.096H360.186V165.197V159.293V153.395V147.496V141.598V135.699H354.285V141.598Z" fill="#4A1999"/>
<path d="M354.286 106.196V112.1V117.998V123.897H348.38V129.801H342.479V135.699H348.38H354.286H360.187V129.801V123.897V117.998V112.1V106.196V100.297H354.286V106.196Z" fill="#3B0C79"/>
<path d="M354.285 64.9004V70.7989V76.6974V82.5959V88.4944V94.393V100.297H360.186V94.393V88.4944V82.5959V76.6974V70.7989V64.9004V58.9907H354.285V64.9004Z" fill="#3B0C79"/>
<path d="M354.285 53.0977V58.9907H360.186V53.0977V47.1992H354.285V53.0977Z" fill="#3B0C79"/>
<path d="M354.285 41.3009V47.1994H360.186V41.3009V35.4023H354.285V41.3009Z" fill="#3B0C79"/>
<path d="M354.285 29.4981V35.4022H360.186V29.4981V23.594H354.285V29.4981Z" fill="#3B0C79"/>
<path d="M360.186 11.7971H354.285V17.6956H360.186V11.7971Z" fill="white"/>
<path d="M354.286 159.293V153.395V147.496V141.598V135.699H348.38H342.479V141.598H348.38V147.496V153.395V159.293V165.197V171.096H354.286V165.197V159.293Z" fill="white"/>
<path d="M354.286 94.393V88.4944V82.5959V76.6974V70.7989V64.9004V58.9907H348.38H342.479V64.9004V70.7989V76.6974V82.5959V88.4944V94.393V100.297H348.38H354.286V94.393Z" fill="#4800FF"/>
<path d="M354.286 47.1992H348.38H342.479V53.0977V58.9907H348.38H354.286V53.0977V47.1992Z" fill="#4800FF"/>
<path d="M354.286 35.4023H348.38H342.479V41.3009V47.1994H348.38H354.286V41.3009V35.4023Z" fill="#4800FF"/>
<path d="M354.286 29.4981V23.594H348.38H342.479V29.4981V35.4022H348.38H354.286V29.4981Z" fill="#4800FF"/>
<path d="M354.286 11.7971H348.38H342.479V17.6956H348.38V23.5941H354.286H360.187V17.6956H354.286V11.7971Z" fill="#3B0C79"/>
<path d="M354.286 5.89844H348.379V11.7969H354.286V5.89844Z" fill="white"/>
<path d="M348.38 123.897H354.286V117.998V112.1V106.196V100.297H348.38H342.479V106.196V112.1V117.998V123.897V129.801H348.38V123.897Z" fill="#4800FF"/>
<path d="M348.38 17.6956H342.479V23.5941H348.38V17.6956Z" fill="#4800FF"/>
<path d="M348.38 5.89844H342.479V11.7969H348.38V5.89844Z" fill="#4A1999"/>
<path d="M348.38 0H342.479V5.89851H348.38V0Z" fill="white"/>
<path d="M336.565 106.196V112.1H330.664V117.998V123.897H324.758V129.801H330.664H336.565H342.478V123.897V117.998V112.1V106.196V100.297H336.565V106.196Z" fill="#4800FF"/>
<path d="M342.473 94.3928H336.566V100.303H342.473V94.3928Z" fill="#4800FF"/>
<path d="M336.566 64.9004V70.7989V76.6974H342.479V70.7989V64.9004V58.9907H336.566V64.9004Z" fill="#4800FF"/>
<path d="M336.566 53.0977V58.9907H342.479V53.0977V47.1992H336.566V53.0977Z" fill="#4800FF"/>
<path d="M330.665 135.699H324.758H318.857H312.956H307.049H307.044H301.148V141.598H307.044H307.049H312.956H318.857H324.758H330.665H336.566H342.478V135.699H336.566H330.665Z" fill="white"/>
<path d="M330.665 129.801H324.758H318.857H312.956H307.049H307.044H301.148V135.699H307.044H307.049H312.956H318.857H324.758H330.665H336.566H342.478V129.801H336.566H330.665Z" fill="#3B0C79"/>
<path d="M336.566 70.7989V64.9004V58.9907H330.665H324.758H318.857H312.956H307.049H307.044H301.148V64.9004V70.7989H307.044H307.049V76.6974V82.5959V88.4944V94.393V100.297H312.956H318.857H324.758H330.665H336.566V94.393H342.478V88.4944V82.5959V76.6974H336.566V70.7989Z" fill="#ABD2FF"/>
<path d="M336.566 47.1992H330.665H324.758H318.857H312.956H307.049H307.044H301.148V53.0977V58.9907H307.044H307.049H312.956H318.857H324.758H330.665H336.566V53.0977V47.1992Z" fill="#ABD2FF"/>
<path d="M330.665 41.3009V35.4023H324.758H318.857H312.956H307.049H307.044H301.148V41.3009V47.1994H307.044H307.049H312.956H318.857H324.758H330.665H336.566V41.3009H330.665Z" fill="#ABD2FF"/>
<path d="M330.664 35.4023V41.3009H336.565V47.1994H342.477V41.3009V35.4023H336.565H330.664Z" fill="#4800FF"/>
<path d="M330.664 23.594H324.758V29.4981H330.664V35.4022H336.565H342.478V29.4981V23.594H336.565H330.664Z" fill="#4800FF"/>
<path d="M330.664 17.6956H324.758V23.5941H330.664H336.565H342.478V17.6956H336.565H330.664Z" fill="#4800FF"/>
<path d="M330.665 11.7971H324.758H318.857H312.956H307.049H307.044H301.148V17.6956H307.044H307.049H312.956H318.857H324.758H330.665H336.566H342.478V11.7971H336.566H330.665Z" fill="#3B0C79"/>
<path d="M330.665 5.89844H324.758H318.857H312.956H307.049H307.044H301.148V11.7969H307.044H307.049H312.956H318.857H324.758H330.665H336.566H342.478V5.89844H336.566H330.665Z" fill="#4A1999"/>
<path d="M330.665 0H324.758H318.857H312.956H307.049H307.044H301.148V5.89851H307.044H307.049H312.956H318.857H324.758H330.665H336.566H342.478V0H336.566H330.665Z" fill="white"/>
<path d="M324.758 29.4981V23.594H318.857H312.956H307.049H307.044H301.148V29.4981V35.4022H307.044H307.049H312.956H318.857H324.758H330.665V29.4981H324.758Z" fill="#ABD2FF"/>
<path d="M318.857 17.6956H312.956H307.049H307.044H301.148V23.5941H307.044H307.049H312.956H318.857H324.758V17.6956H318.857Z" fill="#ABD2FF"/>
<path d="M307.049 129.801H312.956H318.857H324.758V123.897H330.665V117.998V112.1H336.566V106.196V100.297H330.665H324.758H318.857H312.956H307.049V106.196V112.1H307.044H301.148V117.998V123.897V129.801H307.044H307.049Z" fill="#ABD2FF"/>
<path d="M307.049 112.1V106.196V100.297H307.044H301.148V106.196V112.1H307.044H307.049Z" fill="#B2FF00"/>
<path d="M307.049 94.3929V88.4944V82.5958V76.6973V70.7988H307.044H301.148V76.6973V82.5958V88.4944V94.3929V100.297H307.044H307.049V94.3929Z" fill="#B2FF00"/>
<path d="M295.235 123.897H289.334H283.428V129.801H289.334H295.235H301.142V123.897V117.998H295.235V123.897Z" fill="#ABD2FF"/>
<path d="M295.236 53.0977V58.9907H301.143V53.0977V47.1992H295.236V53.0977Z" fill="#ABD2FF"/>
<path d="M289.336 135.699H283.429H277.528H271.627V141.598H277.528H283.429H289.336H295.237H301.143V135.699H295.237H289.336Z" fill="white"/>
<path d="M289.336 129.801H283.429H277.528H271.627V135.699H277.528H283.429H289.336H295.237H301.143V129.801H295.237H289.336Z" fill="#3B0C79"/>
<path d="M289.336 100.297H283.429H277.528H271.627V106.196V112.1V117.998V123.897V129.801H277.528H283.429V123.897H289.336H295.237V117.998H301.143V112.1V106.196V100.297H295.237H289.336Z" fill="#B2FF00"/>
<path d="M289.336 58.9907H283.429H277.528H271.627V64.9004V70.7989V76.6974V82.5959H277.528V88.4944V94.393V100.297H283.429H289.336H295.237H301.143V94.393V88.4944V82.5959V76.6974V70.7989V64.9004V58.9907H295.237H289.336Z" fill="#B2FF00"/>
<path d="M295.237 47.1992H289.336H283.429H277.528H271.627V53.0977V58.9907H277.528H283.429H289.336H295.237V53.0977V47.1992Z" fill="#B2FF00"/>
<path d="M289.334 35.4023H283.428V41.3009H289.334V47.1994H295.235H301.142V41.3009V35.4023H295.235H289.334Z" fill="#ABD2FF"/>
<path d="M289.335 23.594H283.428H277.527V29.4981H283.428V35.4022H289.335H295.236H301.143V29.4981V23.594H295.236H289.335Z" fill="#ABD2FF"/>
<path d="M289.336 17.6956H283.429H277.528H271.627V23.5941H277.528H283.429H289.336H295.237H301.143V17.6956H295.237H289.336Z" fill="#ABD2FF"/>
<path d="M289.336 11.7971H283.429H277.528H271.627V17.6956H277.528H283.429H289.336H295.237H301.143V11.7971H295.237H289.336Z" fill="#3B0C79"/>
<path d="M289.336 5.89844H283.429H277.528H271.627V11.7969H277.528H283.429H289.336H295.237H301.143V5.89844H295.237H289.336Z" fill="#4A1999"/>
<path d="M289.336 0H283.429H277.528H271.627V5.89851H277.528H283.429H289.336H295.237H301.143V0H295.237H289.336Z" fill="white"/>
<path d="M283.429 41.3009V35.4023H277.528H271.627V41.3009V47.1994H277.528H283.429H289.336V41.3009H283.429Z" fill="#B2FF00"/>
<path d="M277.528 29.4981V23.594H271.627V29.4981V35.4022H277.528H283.429V29.4981H277.528Z" fill="#B2FF00"/>
<path d="M277.528 94.393V88.4945V82.5959H271.627V88.4945V94.393V100.297H277.528V94.393Z" fill="#4800FF"/>
<path d="M265.714 117.998H259.812V123.897V129.801H265.714H271.62V123.897V117.998V112.1H265.714V117.998Z" fill="#B2FF00"/>
<path d="M265.715 64.9004V70.7989H271.621V64.9004V58.9907H265.715V64.9004Z" fill="#B2FF00"/>
<path d="M259.813 135.699H253.901H248H242.093H236.192H230.285H224.379H218.478H212.571H206.67H200.763H194.862H188.95H183.049H177.148H171.236H165.34H159.428H153.527H147.621H141.714H135.807H129.906V141.598H135.807H141.714H147.621H153.527H159.428H165.34H171.236H177.148H183.049H188.95H194.862H200.763H206.67H212.571H218.478H224.379H230.285H236.192H242.093H248H253.901H259.813H265.714H271.621V135.699H265.714H259.813Z" fill="white"/>
<path d="M259.813 129.801H253.901H248H242.093H236.192H230.285H224.379H218.478H212.571H206.67H200.763H194.862H188.95H183.049H177.148H171.236H165.34H159.428H153.527H147.621H141.714H135.807H129.906V135.699H135.807H141.714H147.621H153.527H159.428H165.34H171.236H177.148H183.049H188.95H194.862H200.763H206.67H212.571H218.478H224.379H230.285H236.192H242.093H248H253.901H259.813H265.714H271.621V129.801H265.714H259.813Z" fill="#3B0C79"/>
<path d="M259.813 100.297H253.901H248H242.093H236.192H230.286H224.379H218.478H212.571H206.67H200.764V106.196H194.863V112.1H188.951V117.998H183.049V123.897H177.148V129.801H183.049H188.951H194.863H200.764H206.67H212.571H218.478H224.379H230.286H236.192H242.093H248H253.901H259.813V123.897V117.998H265.714V112.1H271.621V106.196V100.297H265.714H259.813Z" fill="#4800FF"/>
<path d="M265.715 64.9004V58.9907H259.814H253.902H248.001H242.094H236.193H230.286H224.38H218.479H212.572H206.671H200.764H194.863V64.9004H200.764V70.7989V76.6974V82.5959V88.4944V94.393V100.297H206.671H212.572H218.479H224.38H230.286H236.193H242.094H248.001H253.902H259.814H265.715H271.621V94.393V88.4944V82.5959V76.6974V70.7989H265.715V64.9004Z" fill="#4800FF"/>
<path d="M259.812 47.1992V53.0977V58.9907H265.714H271.62V53.0977V47.1992H265.714H259.812Z" fill="#B2FF00"/>
<path d="M259.813 35.4023H253.901H248V41.3009H253.901V47.1994H259.813H265.714H271.621V41.3009V35.4023H265.714H259.813Z" fill="#B2FF00"/>
<path d="M259.812 23.594H253.9H247.999H242.092H236.191V29.4981H242.092V35.4022H247.999H253.9H259.812H265.713H271.62V29.4981V23.594H265.713H259.812Z" fill="#B2FF00"/>
<path d="M259.813 17.6956H253.901H248H242.093H236.192H230.286H224.379V23.5941H230.286H236.192H242.093H248H253.901H259.813H265.714H271.621V17.6956H265.714H259.813Z" fill="#B2FF00"/>
<path d="M259.813 11.7971H253.901H248H242.093H236.192H230.285H224.379H218.478H212.571H206.67H200.763H194.862H188.95H183.049H177.148H171.236H165.34H159.428H153.527H147.621H141.714H135.807H129.906V17.6956H135.807H141.714H147.621H153.527H159.428H165.34H171.236H177.148H183.049H188.95H194.862H200.763H206.67H212.571H218.478H224.379H230.285H236.192H242.093H248H253.901H259.813H265.714H271.621V11.7971H265.714H259.813Z" fill="#3B0C79"/>
<path d="M259.813 5.89844H253.901H248H242.093H236.192H230.285H224.379H218.478H212.571H206.67H200.763H194.862H188.95H183.049H177.148H171.236H165.34H159.428H153.527H147.621H141.714H135.807H129.906V11.7969H135.807H141.714H147.621H153.527H159.428H165.34H171.236H177.148H183.049H188.95H194.862H200.763H206.67H212.571H218.478H224.379H230.285H236.192H242.093H248H253.901H259.813H265.714H271.621V5.89844H265.714H259.813Z" fill="#4A1999"/>
<path d="M259.813 0H253.901H248H242.093H236.192H230.285H224.379H218.478H212.571H206.67H200.763H194.862H188.95H183.049H177.148H171.236H165.34H159.428H153.527H147.621H141.714H135.807H129.906V5.89851H135.807H141.714H147.621H153.527H159.428H165.34H171.236H177.148H183.049H188.95H194.862H200.763H206.67H212.571H218.478H224.379H230.285H236.192H242.093H248H253.901H259.813H265.714H271.621V0H265.714H259.813Z" fill="white"/>
<path d="M259.814 47.1992H253.902H248.001H242.094H236.193H230.286H224.38H218.479H212.572H206.671H200.764H194.863H188.951V53.0977V58.9907H194.863H200.764H206.671H212.572H218.479H224.38H230.286H236.193H242.094H248.001H253.902H259.814V53.0977V47.1992Z" fill="#4800FF"/>
<path d="M248 41.3009V35.4023H242.093H236.192H230.286H224.379H218.478H212.571H206.67H200.764H194.863H188.951H183.049H177.148V41.3009H183.049V47.1994H188.951H194.863H200.764H206.67H212.571H218.478H224.379H230.286H236.192H242.093H248H253.901V41.3009H248Z" fill="#4800FF"/>
<path d="M236.191 29.4981V23.594H230.285H224.378H218.477H212.57H206.669H200.763H194.862H188.95H183.049H177.148H171.235H165.34V29.4981H171.235V35.4022H177.148H183.049H188.95H194.862H200.763H206.669H212.57H218.477H224.378H230.285H236.191H242.092V29.4981H236.191Z" fill="#4800FF"/>
<path d="M218.477 17.6956H212.57H206.669H200.763H194.862H188.95H183.049H177.148H171.235H165.34V23.5941H171.235H177.148H183.049H188.95H194.862H200.763H206.669H212.57H218.477H224.378V17.6956H218.477Z" fill="#4800FF"/>
<path d="M200.764 94.393V88.4944V82.5959V76.6974V70.7989V64.9004H194.863V58.9907H188.95H183.049H177.148H171.236H165.341H159.428H153.527V64.9004V70.7989H159.428V76.6974V82.5959V88.4944V94.393V100.297H165.341H171.236H177.148H183.049H188.95H194.863H200.764V94.393Z" fill="#A400FC"/>
<path d="M188.951 47.1992H183.05H177.149H171.236H165.341H159.429H153.528H147.621V53.0977H153.528V58.9907H159.429H165.341H171.236H177.149H183.05H188.951V53.0977V47.1992Z" fill="#A400FC"/>
<path d="M177.149 41.3009V35.4023H171.237H165.342H159.429H153.528H147.622H141.715H135.809V41.3009H141.715V47.1994H147.622H153.528H159.429H165.342H171.237H177.149H183.05V41.3009H177.149Z" fill="#A400FC"/>
<path d="M165.34 29.4981V23.594H159.428H153.527H147.621H141.714H135.807H129.906V29.4981V35.4022H135.807H141.714H147.621H153.527H159.428H165.34H171.236V29.4981H165.34Z" fill="#A400FC"/>
<path d="M159.429 106.196V112.1H153.528V117.998H147.621V123.897H141.715V129.801H147.621H153.528H159.429H165.341H171.237H177.149V123.897H183.05V117.998H188.951V112.1H194.863V106.196H200.764V100.297H194.863H188.951H183.05H177.149H171.237H165.341H159.429V106.196Z" fill="#A400FC"/>
<path d="M159.428 17.6956H153.527H147.621H141.714H135.807H129.906V23.5941H135.807H141.714H147.621H153.527H159.428H165.34V17.6956H159.428Z" fill="#A400FC"/>
<path d="M159.428 94.393V88.4944V82.5959V76.6974V70.7989H153.527V64.9004V58.9907H147.621H141.714H135.807H129.906V64.9004V70.7989V76.6974V82.5959V88.4944V94.393V100.297H135.807H141.714H147.621H153.527H159.428V94.393Z" fill="#FF0000"/>
<path d="M147.621 53.0977V47.1992H141.714H135.807H129.906V53.0977V58.9907H135.807H141.714H147.621H153.527V53.0977H147.621Z" fill="#FF0000"/>
<path d="M141.714 129.801V123.897H147.621V117.998H153.527V112.1H159.428V106.196V100.297H153.527H147.621H141.714H135.807H129.906V106.196V112.1V117.998V123.897V129.801H135.807H141.714Z" fill="#FF0000"/>
<path d="M135.807 41.3009V35.4023H129.906V41.3009V47.1994H135.807H141.714V41.3009H135.807Z" fill="#FF0000"/>
<path d="M124.006 29.4981H129.907V23.594H124.006V29.4981Z" fill="#A400FC"/>
<path d="M118.099 135.699H112.198H106.285H100.384H94.4778H88.5767H82.6645H76.7635H70.8625H64.9502H59.0492H53.1426V141.598H59.0492H64.9502H70.8625H76.7635H82.6645H88.5767H94.4778H100.384H106.285H112.198H118.099H124.005H129.906V135.699H124.005H118.099Z" fill="white"/>
<path d="M118.099 129.801H112.198H106.285H100.384H94.4778H88.5767H82.6645H76.7635H70.8625H64.9502H59.0492H53.1426V135.699H59.0492H64.9502H70.8625H76.7635H82.6645H88.5767H94.4778H100.384H106.285H112.198H118.099H124.005H129.906V129.801H124.005H118.099Z" fill="#3B0C79"/>
<path d="M118.099 100.297H112.198V106.196V112.1V117.998H106.286V123.897H100.385V129.801H106.286H112.198H118.099H124.006H129.907V123.897V117.998V112.1V106.196V100.297H124.006H118.099Z" fill="#FF0000"/>
<path d="M118.099 58.9907H112.198H106.286H100.385V64.9004V70.7989H106.286V76.6974V82.5959V88.4944H112.198V94.393V100.297H118.099H124.006H129.907V94.393V88.4944V82.5959V76.6974V70.7989V64.9004V58.9907H124.006H118.099Z" fill="#FF0000"/>
<path d="M118.099 47.1992H112.198H106.286H100.385H94.4785V53.0977V58.9907H100.385H106.286H112.198H118.099H124.006H129.907V53.0977V47.1992H124.006H118.099Z" fill="#FF0000"/>
<path d="M118.098 35.4023H112.197H106.285H100.384H94.4772H88.5762V41.3009V47.1994H94.4772H100.384H106.285H112.197H118.098H124.005H129.906V41.3009V35.4023H124.005H118.098Z" fill="#FF0000"/>
<path d="M124.005 29.4981V23.594H118.098H112.197H106.285H100.384H94.4773H88.5763H82.6641V29.4981H88.5763V35.4022H94.4773H100.384H106.285H112.197H118.098H124.005H129.906V29.4981H124.005Z" fill="#FF0000"/>
<path d="M118.1 17.6956V23.5941H124.006H129.907V17.6956H124.006H118.1Z" fill="#A400FC"/>
<path d="M118.099 11.7971H112.198H106.285H100.384H94.4778H88.5767H82.6645H76.7635H70.8625H64.9502H59.0492H53.1426V17.6956H59.0492H64.9502H70.8625H76.7635H82.6645H88.5767H94.4778H100.384H106.285H112.198H118.099H124.005H129.906V11.7971H124.005H118.099Z" fill="#3B0C79"/>
<path d="M118.099 5.89844H112.198H106.285H100.384H94.4778H88.5767H82.6645H76.7635H70.8625H64.9502H59.0492H53.1426V11.7969H59.0492H64.9502H70.8625H76.7635H82.6645H88.5767H94.4778H100.384H106.285H112.198H118.099H124.005H129.906V5.89844H124.005H118.099Z" fill="#4A1999"/>
<path d="M118.099 0H112.198H106.285H100.384H94.4778H88.5767H82.6645H76.7635H70.8625H64.9502H59.0492H53.1426V5.89851H59.0492H64.9502H70.8625H76.7635H82.6645H88.5767H94.4778H100.384H106.285H112.198H118.099H124.005H129.906V0H124.005H118.099Z" fill="white"/>
<path d="M112.197 17.6956H106.285H100.384H94.4773H88.5763H82.6641V23.5941H88.5763H94.4773H100.384H106.285H112.197H118.098V17.6956H112.197Z" fill="#FF0000"/>
<path d="M112.197 94.393V88.4944H106.285V82.5959V76.6974V70.7989H100.384V64.9004V58.9907H94.4774H88.5764H82.6641H76.7631H70.8621H64.9499H59.0488V64.9004V70.7989V76.6974H64.9499V82.5959V88.4944V94.393V100.297H70.8621H76.7631H82.6641H88.5764H94.4774H100.384H106.285H112.197V94.393Z" fill="#A400FC"/>
<path d="M94.4774 47.1992H88.5764H82.6641H76.7631H70.8621H64.9499H59.0488V53.0977V58.9907H64.9499H70.8621H76.7631H82.6641H88.5764H94.4774V53.0977V47.1992Z" fill="#A400FC"/>
<path d="M88.5767 35.4023H82.6645H76.7635H70.8625H64.9502H59.0492H53.1426V41.3009V47.1994H59.0492H64.9502H70.8625H76.7635H82.6645H88.5767V41.3009V35.4023Z" fill="#A400FC"/>
<path d="M82.6645 29.4981V23.594H76.7635H70.8625H64.9502H59.0492H53.1426V29.4981V35.4022H59.0492H64.9502H70.8625H76.7635H82.6645H88.5767V29.4981H82.6645Z" fill="#A400FC"/>
<path d="M76.7635 17.6956H70.8624H64.9502H59.0492H53.1426V23.5941H59.0492H64.9502H70.8624H76.7635H82.6645V17.6956H76.7635Z" fill="#A400FC"/>
<path d="M64.9502 129.801H70.8625H76.7635H82.6645H88.5767H94.4778H100.384V123.897H106.285V117.998H112.198V112.1V106.196V100.297H106.285H100.384H94.4778H88.5767H82.6645H76.7635H70.8625H64.9502H59.0492V106.196V112.1V117.998V123.897H53.1426V129.801H59.0492H64.9502Z" fill="#A400FC"/>
<path d="M64.9502 94.393V88.4944V82.5959V76.6974H59.0492V70.7989V64.9004V58.9907H53.1426V64.9004V70.7989V76.6974V82.5959V88.4944V94.393V100.297H59.0492H64.9502V94.393Z" fill="#4800FF"/>
<path d="M59.0492 117.998V112.1V106.196V100.297H53.1426V106.196V112.1V117.998V123.897H59.0492V117.998Z" fill="#4800FF"/>
<path d="M59.0492 47.1992H53.1426V53.0977V58.9907H59.0492V53.0977V47.1992Z" fill="#4800FF"/>
<path d="M47.2422 29.4981V35.4022H53.1432V29.4981V23.594H47.2422V29.4981Z" fill="#A400FC"/>
<path d="M41.3304 135.699H35.435H29.534H23.6217H17.7207V141.598V147.496V153.395V159.293V165.197V171.096H23.6217V165.197V159.293V153.395V147.496V141.598H29.534H35.435H41.3304H47.2426H53.1437V135.699H47.2426H41.3304Z" fill="white"/>
<path d="M41.3289 129.801H35.4334H29.5324H23.6202V123.897H17.7191V117.998V112.1V106.196V100.297H11.8125V106.196V112.1V117.998V123.897V129.801V135.699V141.598V147.496V153.395V159.293V165.197V171.096H17.7191V165.197V159.293V153.395V147.496V141.598V135.699H23.6202H29.5324H35.4334H41.3289H47.2411H53.1421V129.801H47.2411H41.3289Z" fill="#3B0C79"/>
<path d="M41.3304 100.297H35.435H29.534H23.6217H17.7207V106.196V112.1V117.998V123.897H23.6217V129.801H29.534H35.435H41.3304H47.2426H53.1437V123.897V117.998V112.1V106.196V100.297H47.2426H41.3304Z" fill="#4800FF"/>
<path d="M41.3304 58.9907H35.435H29.534H23.6217H17.7207V64.9004V70.7989V76.6974V82.5959V88.4944V94.393V100.297H23.6217H29.534H35.435H41.3304H47.2426H53.1437V94.393V88.4944V82.5959V76.6974V70.7989V64.9004V58.9907H47.2426H41.3304Z" fill="#4800FF"/>
<path d="M41.3304 47.1992H35.435H29.534H23.6217H17.7207V53.0977V58.9907H23.6217H29.534H35.435H41.3304H47.2426H53.1437V53.0977V47.1992H47.2426H41.3304Z" fill="#4800FF"/>
<path d="M41.3304 35.4023H35.435H29.534H23.6217H17.7207V41.3009V47.1994H23.6217H29.534H35.435H41.3304H47.2426H53.1437V41.3009V35.4023H47.2426H41.3304Z" fill="#4800FF"/>
<path d="M47.2427 29.4981V23.594H41.3304H35.435H29.534H23.6217H17.7207V29.4981V35.4022H23.6217H29.534H35.435H41.3304H47.2427V29.4981Z" fill="#4800FF"/>
<path d="M41.3301 17.6956V23.5941H47.2423H53.1433V17.6956H47.2423H41.3301Z" fill="#A400FC"/>
<path d="M41.3298 11.7971H35.4343H29.5333H23.6211V17.6956H29.5333H35.4343H41.3298H47.242H53.143V11.7971H47.242H41.3298Z" fill="#3B0C79"/>
<path d="M41.3298 5.89844H35.4343H29.5333H23.6211V11.7969H29.5333H35.4343H41.3298H47.242H53.143V5.89844H47.242H41.3298Z" fill="#4A1999"/>
<path d="M41.3298 0H35.4343H29.5333H23.6211V5.89851H29.5333H35.4343H41.3298H47.242H53.143V0H47.242H41.3298Z" fill="white"/>
<path d="M35.4343 17.6956H29.5333H23.6211V23.5941H29.5333H35.4343H41.3298V17.6956H35.4343Z" fill="#4800FF"/>
<path d="M23.6217 17.6956H17.7207V23.5941H23.6217V17.6956Z" fill="#3B0C79"/>
<path d="M23.6217 11.7971H17.7207V17.6956H23.6217V11.7971Z" fill="#4A1999"/>
<path d="M23.6217 5.89844H17.7207V11.7969H23.6217V5.89844Z" fill="white"/>
<path d="M17.7191 94.393V88.4944V82.5959V76.6974V70.7989V64.9004V58.9907H11.8125V64.9004V70.7989V76.6974V82.5959V88.4944V94.393V100.297H17.7191V94.393Z" fill="#3B0C79"/>
<path d="M17.7191 47.1992H11.8125V53.0977V58.9907H17.7191V53.0977V47.1992Z" fill="#3B0C79"/>
<path d="M17.7191 35.4023H11.8125V41.3009V47.1994H17.7191V41.3009V35.4023Z" fill="#3B0C79"/>
<path d="M17.7191 29.4981V23.594H11.8125V29.4981V35.4022H17.7191V29.4981Z" fill="#3B0C79"/>
<path d="M11.8131 17.6956H5.91211V23.5941H11.8131H17.7198V17.6956H11.8131Z" fill="#4A1999"/>
<path d="M17.7198 17.6956V11.7971H11.8131H5.91211V17.6956H11.8131H17.7198Z" fill="white"/>
<path d="M5.91211 171.096V177H11.8131H17.7198V171.096H11.8131H5.91211Z" fill="white"/>
<path d="M11.8131 165.197V159.293V153.395V147.496V141.598V135.699V129.801V123.897V117.998V112.1V106.196V100.297H5.91211V106.196V112.1V117.998V123.897V129.801V135.699V141.598V147.496V153.395V159.293V165.197V171.096H11.8131V165.197Z" fill="#4A1999"/>
<path d="M11.8131 94.393V88.4944V82.5959V76.6974V70.7989V64.9004V58.9907H5.91211V64.9004V70.7989V76.6974V82.5959V88.4944V94.393V100.297H11.8131V94.393Z" fill="#4A1999"/>
<path d="M11.8131 47.1992H5.91211V53.0977V58.9907H11.8131V53.0977V47.1992Z" fill="#4A1999"/>
<path d="M11.8131 35.4023H5.91211V41.3009V47.1994H11.8131V41.3009V35.4023Z" fill="#4A1999"/>
<path d="M11.8131 29.4981V23.594H5.91211V29.4981V35.4022H11.8131V29.4981Z" fill="#4A1999"/>
<path d="M5.91221 159.293V153.395V147.496V141.598V135.699V129.801V123.897V117.998V112.1V106.196V100.297H0V106.196V112.1V117.998V123.897V129.801V135.699V141.598V147.496V153.395V159.293V165.197V171.096H5.91221V165.197V159.293Z" fill="white"/>
<path d="M5.91221 94.393V88.4944V82.5959V76.6974V70.7989V64.9004V58.9907H0V64.9004V70.7989V76.6974V82.5959V88.4944V94.393V100.297H5.91221V94.393Z" fill="white"/>
<path d="M5.91221 47.1992H0V53.0977V58.9907H5.91221V53.0977V47.1992Z" fill="white"/>
<path d="M5.91221 35.4023H0V41.3009V47.1994H5.91221V41.3009V35.4023Z" fill="white"/>
<path d="M5.91221 29.4981V23.594H0V29.4981V35.4022H5.91221V29.4981Z" fill="white"/>
<path d="M5.91221 17.6956H0V23.5941H5.91221V17.6956Z" fill="white"/>
</g>
<defs>
<clipPath id="clip0_368_9190">
<rect width="372" height="177" fill="white"/>
</clipPath>
</defs>
</svg>
