<svg width="171" height="360" viewBox="0 0 171 360" fill="none" xmlns="http://www.w3.org/2000/svg">
<g clip-path="url(#clip0_368_9186)">
<path d="M171.006 342.289H165.113V348.189H171.006V342.289Z" fill="white"/>
<path d="M171.006 336.388H165.113V342.289H171.006V336.388Z" fill="white"/>
<path d="M165.107 348.189H159.209V354.089H165.107V348.189Z" fill="white"/>
<path d="M165.107 330.488H159.209V336.388H165.107V330.488Z" fill="white"/>
<path d="M153.315 342.289H147.411H141.518H135.62H129.727H123.828H117.93H112.037H106.139H100.246H94.3417H88.4488H82.5503H76.6574H70.7645H64.8605H58.9676H53.0691H47.1762H41.2722H35.3793H29.4808H23.5879V348.189V354.089H29.4808H35.3793H41.2722H47.1762H53.0691H58.9676H64.8605H70.7645H76.6574H82.5503H88.4488H94.3417H100.246H106.139H112.037H117.93H123.828H129.727H135.62H141.518H147.411H153.315H159.208V348.189H165.107V342.289H159.208H153.315Z" fill="#3200CC"/>
<path d="M159.208 330.488H153.315V324.588H147.411V318.683H141.518H135.62H129.727H123.828H117.93H112.037H106.139H100.246H94.3417H88.4488H82.5503H76.6574H70.7645H64.8605H58.9676H53.0691H47.1762H41.2722V324.588H47.1762H53.0691H58.9676H64.8605H70.7645H76.6574H82.5503H88.4488H94.3417H100.246H106.139H112.037H117.93H123.828H129.727H135.62H141.518V330.488H135.62H129.727H123.828H117.93H112.037H106.139H100.246H94.3417H88.4488H82.5503H76.6574H70.7645H64.8605H58.9676H53.0691H47.1762H41.2722H35.3793H29.4808H23.5879V336.388V342.289H29.4808H35.3793H41.2722H47.1762H53.0691H58.9676H64.8605H70.7645H76.6574H82.5503H88.4488H94.3417H100.246H106.139H112.037H117.93H123.828H129.727H135.62H141.518H147.411H153.315H159.208H165.107V336.388H159.208V330.488Z" fill="#3200CC"/>
<path d="M159.209 324.588H153.316V330.488H159.209V324.588Z" fill="white"/>
<path d="M147.411 354.089H141.518H135.62H129.727H123.828H117.93H112.037H106.139H100.246H94.3417H88.4488H82.5503H76.6574H70.7645H64.8605H58.9676H53.0691H47.1762H41.2722H35.3793H29.4808H23.5879V360H29.4808H35.3793H41.2722H47.1762H53.0691H58.9676H64.8605H70.7645H76.6574H82.5503H88.4488H94.3417H100.246H106.139H112.037H117.93H123.828H129.727H135.62H141.518H147.411H153.315H159.208V354.089H153.315H147.411Z" fill="white"/>
<path d="M153.316 318.683H147.412V324.594H153.316V318.683Z" fill="white"/>
<path d="M147.412 312.777H141.52V318.677H147.412V312.777Z" fill="white"/>
<path d="M141.525 306.883H135.621V312.783H141.525V306.883Z" fill="white"/>
<path d="M135.619 300.982H129.727V306.883H135.619V300.982Z" fill="white"/>
<path d="M117.93 59.0175V64.9176V70.8177V76.7177V82.6178V88.5179H123.828V82.6178V76.7177V70.8177V64.9176V59.0175V53.1118H117.93V59.0175Z" fill="white"/>
<path d="M112.037 177.047V182.947V188.847V194.753V200.653H117.93V194.753V188.847V182.947V177.047V171.147H112.037V177.047Z" fill="white"/>
<path d="M112.037 129.835V135.735H117.93V141.635V147.536V153.436V159.347V165.247V171.141V171.147H123.828V165.247V159.347V153.436V147.536V141.635V135.735H117.93V129.835V123.935V118.03H112.037V123.935V129.835Z" fill="white"/>
<path d="M112.037 100.329V106.224H117.93V100.329V100.324V94.4292H112.037V100.324V100.329Z" fill="white"/>
<path d="M117.93 88.5181H112.037V94.4237H117.93V88.5181Z" fill="white"/>
<path d="M117.93 47.2119H112.037V53.112H117.93V47.2119Z" fill="white"/>
<path d="M112.037 300.982H117.93H123.829H129.727V295.082H123.829H117.93H112.037H106.139V300.982H112.037Z" fill="white"/>
<path d="M106.139 206.553V212.453V218.353V224.265V230.165H112.037V224.265V218.353V212.453V206.553V200.653H106.139V206.553Z" fill="white"/>
<path d="M112.038 188.847H106.14V182.947H100.247V177.047H94.3428V182.947V188.847H88.4499V194.753V200.653H82.5514V206.553V212.453H76.6585V218.353H70.7656V224.265V230.165V236.065V241.959V241.965H76.6585V247.859V253.765V259.671V265.571V271.471H82.5514V277.371V283.271H88.4499H94.3428V277.371V271.471V265.571V259.671V253.765H100.247V247.859V241.965V241.959V236.065V230.165H106.14V224.265V218.353V212.453V206.553V200.653H112.038V194.753V188.847Z" fill="#3200CC"/>
<path d="M106.139 112.13V118.03H112.037V112.13V106.224H106.139V112.13Z" fill="white"/>
<path d="M112.037 41.3118H106.139V47.2118H112.037V41.3118Z" fill="white"/>
<path d="M106.139 41.3116H112.037V35.4116V29.5115H106.139V35.4116V41.3116Z" fill="white"/>
<path d="M106.139 289.171H100.246V295.082H106.139V289.171Z" fill="white"/>
<path d="M100.246 236.065V241.959V241.965V247.859V253.765H106.139V247.859V241.965V241.959V236.065V230.165H100.246V236.065Z" fill="white"/>
<path d="M100.246 23.6115V29.5059H106.139V23.6115V23.6059V17.7002H100.246V23.6059V23.6115Z" fill="white"/>
<path d="M100.24 283.271H94.3418V289.171H100.24V283.271Z" fill="white"/>
<path d="M94.3418 259.671V265.571V271.471V277.371V283.271H100.246V277.371V271.471V265.571V259.671V253.765H94.3418V259.671Z" fill="white"/>
<path d="M100.24 11.8H94.3418V17.7001H100.24V11.8Z" fill="white"/>
<path d="M88.4492 171.141V171.147H94.3421V177.047H100.246V182.947H106.139V188.847H112.038V182.947V177.047H106.139V171.147H100.246V171.141V165.247H94.3421V159.347H88.4492V165.247V171.141Z" fill="#A400FC"/>
<path d="M94.3421 23.6116H88.4492V29.5117H94.3421V23.6116Z" fill="#B2FF00"/>
<path d="M94.3421 5.90015H88.4492V11.8002H94.3421V5.90015Z" fill="white"/>
<path d="M82.5515 295.082H76.6586V300.982H70.7657H64.8616H58.9688V306.877H64.8616H70.7657H76.6586H82.5515H88.45H94.3429H100.247H106.14H112.038H117.931H123.83H129.728V300.982H123.83H117.931H112.038H106.14V295.082H100.247V289.171H94.3429V283.271H88.45H82.5515V289.171V295.082Z" fill="#3200CC"/>
<path d="M82.5515 171.141V171.147H76.6586V177.047H70.7657V182.947V188.847H64.8616V194.753H58.9688V200.653V206.553V212.453H64.8616H70.7657V206.553H76.6586V200.653V194.753H82.5515V188.847V182.947H88.45V177.047H94.3429V171.147H88.45V171.141V165.247V159.347H82.5515V165.247V171.141Z" fill="#3200CC"/>
<path d="M88.4499 153.436V147.536H82.5514V141.635V135.735H76.6585V129.835V123.935V118.03H70.7656V123.935V129.835V135.735V141.635H76.6585V147.536V153.436H82.5514V159.347H88.4499V153.436Z" fill="#A400FC"/>
<path d="M82.5514 11.8H76.6585V17.7001H70.7656V23.6058V23.6114V29.5059H76.6585V23.6114H82.5514V29.5059H88.4499V23.6114H94.3428V29.5059H100.247V23.6114V23.6058V17.7001H94.3428V11.8H88.4499H82.5514Z" fill="#3200CC"/>
<path d="M76.6582 295.082H82.5511V289.171V283.271H76.6582V289.171V295.082Z" fill="#A400FC"/>
<path d="M82.5511 271.471H76.6582V277.371V283.271H82.5511V277.371V271.471Z" fill="#A400FC"/>
<path d="M76.6585 47.2118H70.7656V53.1119V59.0176H76.6585V53.1119H82.5514H88.4499H94.3428V59.0176H100.247V64.9177H106.14H112.038V59.0176H106.14V53.1119H100.247V47.2118H94.3428V41.3118H88.4499H82.5514V47.2118H76.6585Z" fill="#A400FC"/>
<path d="M82.5511 23.6116H76.6582V29.5117H82.5511V23.6116Z" fill="#B2FF00"/>
<path d="M82.5514 5.90008H88.4499V0H82.5514H76.6585H70.7656V5.90008H76.6585H82.5514Z" fill="white"/>
<path d="M76.6585 271.471H70.7656V277.371V283.271H76.6585V277.371V271.471Z" fill="white"/>
<path d="M76.6585 265.571V259.671V253.765V247.859V241.965H70.7656V247.859V253.765V259.671V265.571V271.471H76.6585V265.571Z" fill="#A400FC"/>
<path d="M76.6585 64.9177H70.7656V70.8178H76.6585V64.9177Z" fill="#A400FC"/>
<path d="M70.7656 41.3116H76.6585H82.5514H88.4499H94.3428H100.247H106.14V35.4116V29.5115H100.247H94.3428H88.4499H82.5514H76.6585H70.7656V35.4116V41.3116Z" fill="#3200CC"/>
<path d="M70.7657 295.082H76.6586V289.171V283.271H70.7657V289.171H64.8616H58.9688V295.082H64.8616H70.7657Z" fill="white"/>
<path d="M70.7654 259.671V253.765V247.859V241.965H64.8613V247.859V253.765V259.671V265.571V271.471H70.7654V265.571V259.671Z" fill="white"/>
<path d="M70.7657 241.959V236.065V230.165V224.265V218.353H76.6586V212.453H82.5515V206.553V200.653H88.45V194.753V188.847H94.3429V182.947V177.047H88.45V182.947H82.5515V188.847V194.753H76.6586V200.653V206.553H70.7657V212.453H64.8616H58.9688V218.353V224.265H64.8616V230.165V236.065V241.959V241.965H70.7657V241.959Z" fill="#A400FC"/>
<path d="M64.8617 53.1119V59.0176H58.9688H53.0703V64.9177V70.8178V76.7178V82.6179V88.518H58.9688V82.6179V76.7178H64.8617V70.8178H70.7657V64.9177H76.6586V70.8178H70.7657V76.7178V82.6179H64.8617V88.518H58.9688V94.4237H64.8617H70.7657H76.6586H82.5515H88.45H94.3429H100.247H106.14H112.038V88.518H117.931V82.6179V76.7178V70.8178V64.9177V59.0176V53.1119H112.038V47.2118H106.14V41.3118H100.247H94.3429V47.2118H100.247V53.1119H106.14V59.0176H112.038V64.9177H106.14H100.247V59.0176H94.3429V53.1119H88.45H82.5515H76.6586V59.0176H70.7657V53.1119V47.2118H76.6586H82.5515V41.3118H76.6586H70.7657H64.8617V47.2118V53.1119Z" fill="#3200CC"/>
<path d="M64.8613 23.606V23.6116V29.5061H70.7654V23.6116V23.606V17.7003H76.6583V11.8002H82.5512H88.4496V5.90015H82.5512H76.6583H70.7654V11.8002H64.8613V17.7003V23.606Z" fill="#A400FC"/>
<path d="M70.7654 5.90015H64.8613V11.8002H70.7654V5.90015Z" fill="white"/>
<path d="M64.8616 300.982H70.7657H76.6586V295.082H70.7657H64.8616H58.9688V300.982H64.8616Z" fill="#A400FC"/>
<path d="M64.8616 236.065V230.165V224.265H58.9688V230.165V236.065V241.965H64.8616V241.959V236.065Z" fill="white"/>
<path d="M64.8616 82.618H70.7657V76.718V70.8179H64.8616V76.718H58.9688V82.618V88.5181H64.8616V82.618Z" fill="#A400FC"/>
<path d="M64.8616 41.3116H70.7657V35.4116V29.5115H64.8616V35.4116H58.9688V41.3116H64.8616Z" fill="#A400FC"/>
<path d="M64.8616 29.5115H58.9688V35.4116H64.8616V29.5115Z" fill="white"/>
<path d="M64.8616 23.6114V23.6058V17.7001V11.8H58.9688V17.7001V23.6058V23.6114V29.5059H64.8616V23.6114Z" fill="white"/>
<path d="M58.9688 212.453H53.0703V218.353V224.264H58.9688V218.353V212.453Z" fill="white"/>
<path d="M58.9688 206.553V200.653V194.753H64.8617V188.847H70.7657V182.947V177.047H76.6586V171.147H82.5515V171.141V165.247V159.347H76.6586V165.247H70.7657V171.141V171.147H64.8617V177.047V182.947H58.9688V188.847H53.0703V194.753V200.653V206.553V212.453H58.9688V206.553Z" fill="#A400FC"/>
<path d="M53.0687 100.329H47.1758V106.224V112.129V118.03V123.935V129.835V135.735V141.635H53.0687V147.536V153.436V159.347V165.247V171.141V171.147V177.047V182.947V188.847H58.9672V182.947H64.8601V177.047V171.147H70.7641V171.141V165.247H76.657V159.347H82.5499V153.436H76.657V147.536V141.635H70.7641V135.735V129.835V123.935V118.03H76.657V123.935V129.835V135.735H82.5499V141.635V147.536H88.4484V153.436V159.347H94.3413V165.247H100.245V171.141V171.147H106.138V177.047H112.037V171.147H117.93V171.141V165.247V159.347V153.436V147.536V141.635V135.735H112.037V129.835V123.935V118.03H106.138V112.129V106.224H112.037V100.329V100.324V94.4292H106.138H100.245H94.3413H88.4484H82.5499H76.657H70.7641H64.8601H58.9672H53.0687V100.324V100.329Z" fill="#3200CC"/>
<path d="M53.0687 88.518V82.6179V76.7178V70.8177V64.9177V59.0176H47.1758V64.9177V70.8177V76.7178V82.6179V88.518V94.4237H53.0687H58.9672V88.518H53.0687Z" fill="#A400FC"/>
<path d="M53.0703 59.0176H58.9688H64.8617V53.1119V47.2118V41.3118H58.9688V47.2118V53.1119H53.0703V59.0176Z" fill="#A400FC"/>
<path d="M58.9688 47.2118V41.3118H53.0703V47.2118V53.1119H58.9688V47.2118Z" fill="white"/>
<path d="M58.9744 35.4116H53.0703V41.3117H58.9744V35.4116Z" fill="white"/>
<path d="M47.1758 312.777V318.683H53.0687H58.9672H64.8601H70.7641H76.657H82.5499H88.4484H94.3413H100.245H106.138H112.037H117.93H123.828H129.727H135.619H141.518V312.777H135.619V306.883H129.727H123.828H117.93H112.037H106.138H100.245H94.3413H88.4484H82.5499H76.657H70.7641H64.8601H58.9672H53.0687V312.777H47.1758Z" fill="#3200CC"/>
<path d="M53.0704 300.982H58.9689V295.082H53.0704H47.1775H41.2734V300.982H47.1775H53.0704Z" fill="white"/>
<path d="M53.0687 206.553V200.653V194.753V188.847H47.1758V194.753V200.653V206.553V212.453H53.0687V206.553Z" fill="white"/>
<path d="M53.0687 182.947V177.047V171.147V171.141V165.247V159.347V153.436V147.536V141.635H47.1758V147.536V153.436V159.347V165.247V171.141V171.147V177.047V182.947V188.847H53.0687V182.947Z" fill="#A400FC"/>
<path d="M47.1758 100.329H53.0687V100.324V94.4292H47.1758V100.324V100.329Z" fill="#A400FC"/>
<path d="M47.1775 306.877H53.0704H58.9689V300.982H53.0704H47.1775H41.2734V306.877H47.1775Z" fill="#A400FC"/>
<path d="M47.1775 177.047V171.147V171.141V165.247V159.347V153.436V147.536V141.635H41.2734V147.536V153.436V159.347V165.247V171.141V171.147V177.047V182.947V188.847H47.1775V182.947V177.047Z" fill="white"/>
<path d="M47.1775 135.735V129.835V123.935V118.03V112.13V106.224V100.329H41.2734V106.224V112.13V118.03V123.935V129.835V135.735V141.636H47.1775V135.735Z" fill="#A400FC"/>
<path d="M47.1775 88.5179V82.6178V76.7177V70.8177V64.9176V59.0175H53.0704V53.1118H47.1775V59.0175H41.2734V64.9176V70.8177V76.7177V82.6178V88.5179V94.4236H47.1775V88.5179Z" fill="white"/>
<path d="M41.2718 312.777H35.3789V318.677H41.2718V312.777Z" fill="#3200CC"/>
<path d="M41.2718 312.777V318.683H47.1759V312.777H53.0688V306.883H47.1759H41.2718H35.3789V312.777H41.2718Z" fill="#A400FC"/>
<path d="M41.2718 300.982H35.3789V306.883H41.2718V300.982Z" fill="white"/>
<path d="M41.2718 135.735V129.835V123.935V118.03V112.129V106.224V100.329H47.1759V100.324V94.4292H41.2718V100.324H35.3789V106.224V112.129V118.03V123.935V129.835V135.735V141.635H41.2718V135.735Z" fill="white"/>
<path d="M35.3793 330.488H41.2722H47.1762H53.0691H58.9676H64.8605H70.7645H76.6574H82.5503H88.4488H94.3417H100.246H106.139H112.037H117.93H123.828H129.727H135.62H141.518V324.588H135.62H129.727H123.828H117.93H112.037H106.139H100.246H94.3417H88.4488H82.5503H76.6574H70.7645H64.8605H58.9676H53.0691H47.1762H41.2722V318.683H35.3793V324.588H29.4808V318.683H23.5879V324.588V330.488H29.4808H35.3793Z" fill="#A400FC"/>
<path d="M35.3789 318.683H29.4805V324.594H35.3789V318.683Z" fill="#3200CC"/>
<path d="M35.3789 312.777H29.4805V318.677H35.3789V312.777Z" fill="#A400FC"/>
<path d="M35.3789 306.883H29.4805V312.783H35.3789V306.883Z" fill="white"/>
<path d="M29.4808 312.777H23.5879V318.677H29.4808V312.777Z" fill="white"/>
<path d="M17.6954 336.388H11.7969V342.288H17.6954H23.5882V336.388V330.488H17.6954V336.388Z" fill="#3200CC"/>
<path d="M23.5882 324.588H17.6953V330.488H23.5882V324.588Z" fill="#A400FC"/>
<path d="M23.5882 318.683H17.6953V324.594H23.5882V318.683Z" fill="white"/>
<path d="M11.7969 354.089V360H17.6954H23.5882V354.089H17.6954H11.7969Z" fill="white"/>
<path d="M11.7969 342.289V348.189V354.089H17.6954H23.5882V348.189V342.289H17.6954H11.7969Z" fill="#3200CC"/>
<path d="M17.6954 330.488H11.7969V336.388H17.6954V330.488Z" fill="#A400FC"/>
<path d="M17.6954 324.588H11.7969V330.488H17.6954V324.588Z" fill="white"/>
<path d="M11.7913 348.189H5.89844V354.089H11.7913V348.189Z" fill="white"/>
<path d="M11.7913 342.289H5.89844V348.189H11.7913V342.289Z" fill="#A400FC"/>
<path d="M11.7913 336.388H5.89844V342.289H11.7913V336.388Z" fill="#A400FC"/>
<path d="M11.7913 330.488H5.89844V336.388H11.7913V330.488Z" fill="white"/>
<path d="M5.89848 342.289H0V348.189H5.89848V342.289Z" fill="white"/>
<path d="M5.89848 336.388H0V342.289H5.89848V336.388Z" fill="white"/>
</g>
<defs>
<clipPath id="clip0_368_9186">
<rect width="171" height="360" fill="white"/>
</clipPath>
</defs>
</svg>
