<svg width="219" height="242" viewBox="0 0 219 242" fill="none" xmlns="http://www.w3.org/2000/svg">
<g clip-path="url(#clip0_368_9192)">
<path d="M213.084 76.7307V82.6318V88.5329V94.4339V100.341V106.242V112.148V118.049V123.951V129.857V135.758V141.659V147.56V153.461V159.363V165.269V171.17V177.077V182.978V188.879V194.78V200.687V206.588V212.489V218.39V224.291V230.198V236.099H218.999V230.198V224.291V218.39V212.489V206.588V200.687V194.78V188.879V182.978V177.077V171.17V165.269V159.363V153.461V147.56V141.659V135.758V129.857V123.951V118.049V112.148V106.242V100.341V94.4339V88.5329V82.6318V76.7307H213.084Z" fill="white"/>
<path d="M213.085 224.291V218.39V212.489V206.588V200.687V194.78V188.879V182.978V177.077V171.17V165.269V159.363V153.461V147.56V141.659V135.758V129.857V123.951V118.049V112.148V106.242V100.341V94.4339V88.5329V82.6318V76.7307H207.165H201.249H195.334V82.6318V88.5329V94.4339H201.249V100.341V106.242V112.148V118.049V123.951V129.857V135.758V141.659V147.56V153.461V159.363V165.269V171.17V177.077V182.978V188.879V194.78V200.687V206.588V212.489V218.39V224.291V230.198V236.099H207.165H213.085V230.198V224.291Z" fill="#3B0C79"/>
<path d="M213.085 70.8296H207.164V76.7307H213.085V70.8296Z" fill="white"/>
<path d="M201.249 236.099H195.334V242H201.249H207.165H213.085V236.099H207.165H201.249Z" fill="white"/>
<path d="M207.165 76.7307V70.8296H201.249H195.334V76.7307H201.249H207.165Z" fill="#4A1999"/>
<path d="M207.165 70.8298V64.9287H201.249H195.334V70.8298H201.249H207.165Z" fill="white"/>
<path d="M201.249 230.198V224.291V218.39V212.489V206.588V200.687V194.78V188.879V182.978V177.077V171.17V165.269V159.363V153.462V147.561V141.659V135.758V129.857V123.951V118.05V112.148V106.242V100.341V94.4341H195.334V100.341V106.242V112.148V118.05V123.951V129.857V135.758V141.659V147.561V153.462V159.363V165.269V171.17V177.077V182.978V188.879V194.78V200.687V206.588V212.489V218.39V224.291V230.198V236.099H201.249V230.198Z" fill="#4A1999"/>
<path d="M201.249 29.511H195.334V35.4121H201.249V29.511Z" fill="white"/>
<path d="M189.406 64.9286V70.8297H195.327V64.9286V59.0163V53.1208H189.406V59.0163V64.9286Z" fill="white"/>
<path d="M195.327 35.4177H189.406V41.3188H195.327V35.4177Z" fill="white"/>
<path d="M195.327 29.511H189.406V35.4121H195.327V29.511Z" fill="#E5FF00"/>
<path d="M195.327 23.6042H189.406V29.5165H195.327V23.6042Z" fill="white"/>
<path d="M183.491 88.533H177.564V94.434H183.491V100.341V106.242V112.148H189.406V118.05V123.951V129.857V135.758V141.659V147.56V153.462V159.363V165.269V171.17V177.077V182.978V188.879V194.78V200.687V206.588V212.489V218.39V224.291V230.198V236.099H195.327V230.198V224.291V218.39V212.489V206.588V200.687V194.78V188.879V182.978V177.077V171.17V165.269V159.363V153.462V147.56V141.659V135.758V129.857V123.951V118.05V112.148V106.242V100.341V94.434V88.533H189.406H183.491Z" fill="white"/>
<path d="M183.492 76.7307H177.565V70.8296V64.9285V59.0163V53.1208H183.492V47.2197H177.565H171.65V53.1208H165.729V59.0163H171.65V64.9285V70.8296V76.7307V82.6318H165.729V88.5328H159.814H153.893H147.972H142.057H136.136H130.22H124.299H118.384H112.458H106.542H100.627H94.7062H88.7909H82.8644H76.9492H71.0283H65.113H59.1865H53.2712V82.6318H47.3559V76.7307V70.8296V64.9285V59.0163H53.2712V53.1208H47.3559V47.2197H41.435H35.5197V53.1208H41.435V59.0163V64.9285V70.8296V76.7307H35.5197H29.5933H23.678H17.7571V82.6318H11.8418V88.5328V94.4339V100.341V106.242V112.148V118.049V123.95V129.857V135.758V141.659V147.56V153.461V159.363V165.269V171.17V177.077V182.978V188.879V194.78V200.687V206.588V212.489V218.39V224.291V230.198V236.099H17.7571H23.678V230.198V224.291V218.39V212.489V206.588V200.687V194.78V188.879V182.978V177.077V171.17V165.269V159.363V153.461V147.56V141.659V135.758V129.857V123.95V118.049V112.148V106.242V100.341V94.4339V88.5328H29.5933H35.5197H41.435H47.3559V94.4339H53.2712H59.1865H65.113H71.0283H76.9492H82.8644H88.7909H94.7062H100.627H106.542H112.458H118.384H124.299H130.22H136.136H142.057H147.972H153.893H159.814H165.729H171.65V100.341H177.565V106.242H171.65V112.148H165.729H159.814H153.893H147.972H142.057H136.136H130.22H124.299H118.384H112.458H106.542H100.627H94.7062H88.7909H82.8644H76.9492H71.0283H65.113H59.1865H53.2712H47.3559V118.049H53.2712H59.1865H65.113H71.0283H76.9492H82.8644H88.7909H94.7062H100.627H106.542H112.458H118.384H124.299H130.22H136.136H142.057H147.972H153.893H159.814H165.729H171.65H177.565V112.148H183.492V106.242V100.341V94.4339H177.565V88.5328H183.492H189.407H195.328V82.6318V76.7307H189.407H183.492Z" fill="#3B0C79"/>
<path d="M183.491 70.8296H177.564V76.7307H183.491H189.406H195.327V70.8296H189.406H183.491Z" fill="#4A1999"/>
<path d="M183.492 59.0163V64.9286V70.8297H189.407V64.9286V59.0163V53.1208H183.492V59.0163Z" fill="#3B0C79"/>
<path d="M189.407 35.4177H183.492V41.3188H189.407V35.4177Z" fill="#E5FF00"/>
<path d="M189.407 29.511H183.492V35.4121H189.407V29.511Z" fill="#B2FF00"/>
<path d="M189.407 23.6042H183.492V29.5165H189.407V23.6042Z" fill="#E5FF00"/>
<path d="M189.407 17.7031H183.492V23.6042H189.407V17.7031Z" fill="white"/>
<path d="M183.491 112.148H177.564V118.05H183.491V112.148Z" fill="white"/>
<path d="M177.564 59.0163V64.9286V70.8297H183.491V64.9286V59.0163V53.1208H177.564V59.0163Z" fill="white"/>
<path d="M183.492 35.4177H177.566V41.3188H171.65V47.2199H177.566H183.492V53.121H189.407V47.2199V41.3188H183.492V35.4177Z" fill="white"/>
<path d="M183.491 29.511H177.564V35.4121H183.491V29.511Z" fill="#E5FF00"/>
<path d="M183.491 23.6042H177.564V29.5165H183.491V23.6042Z" fill="white"/>
<path d="M171.65 106.242H177.566V100.341H171.65V106.242Z" fill="#3200CC"/>
<path d="M177.566 29.511H171.65V35.4121H177.566V29.511Z" fill="white"/>
<path d="M165.729 118.05H159.814H153.893H147.972H142.057H136.136H130.221H124.3H118.385H112.458H106.543H100.628H94.7067H88.7914H82.8649H76.9497H71.0288H65.1135H59.187H53.2717H47.3564H41.4355V123.951H47.3564H53.2717H59.187H65.1135H71.0288H76.9497H82.8649H88.7914H94.7067H100.628H106.543H112.458H118.385H124.3H130.221H136.136H142.057H147.972H153.893H159.814H165.729H171.65H177.566V118.05H171.65H165.729Z" fill="white"/>
<path d="M171.655 47.2197H165.729V53.1208H171.655V47.2197Z" fill="white"/>
<path d="M159.813 100.341H153.892H147.971H142.056H136.135H130.22H124.299H118.384H112.457H106.542H100.627H94.7058H88.7905H82.864H76.9487H71.0278H65.1125H59.186H53.2708H47.3555V106.242V112.148H53.2708H59.186H65.1125H71.0278H76.9487H82.864H88.7905H94.7058H100.627H106.542H112.457H118.384H124.299H130.22H136.135H142.056H147.971H153.892H159.813H165.728H171.649V106.242V100.341H165.728H159.813Z" fill="#4800FF"/>
<path d="M159.814 41.3186V47.2197V53.1208H165.73V47.2197H171.651V41.3186H165.73H159.814Z" fill="#3B0C79"/>
<path d="M165.73 41.3188H171.651V35.4177H165.73H159.814V41.3188H165.73Z" fill="white"/>
<path d="M159.813 76.7307H153.893V82.6318H159.813V76.7307Z" fill="#FF0000"/>
<path d="M159.813 64.9287H153.893V70.8298H159.813V64.9287Z" fill="#FF0000"/>
<path d="M153.892 53.1208H53.2708V59.0219H47.3555V82.6374H53.2708V88.5385H165.728V82.6374H171.655V59.0219H165.728V53.1208H153.892ZM76.9487 82.6318V76.7307H71.0278V70.8297H65.1125V82.6318H59.186V70.8297H65.1125V64.9286H59.186V59.0163H65.1125V64.9286H71.0278V59.0163H82.864V64.9286H71.0278V70.8297H76.9487V76.7307H82.864V82.6318H76.9487ZM100.627 82.6318V76.7307H88.7849V70.8297H94.7002V64.9286H100.627V59.0163H112.457V64.9286H118.384V59.0163H124.299V64.9286H118.384V76.7307H112.457V64.9286H100.627V76.7307H106.542V82.6318H100.627ZM153.892 82.6318V76.7307H147.977V70.8297H142.062V82.6318H136.141V70.8297H130.225V64.9286H136.141V59.0163H142.062V64.9286H147.977V59.0163H153.892V64.9286H159.813V70.8297H153.892V76.7307H159.813V82.6318H153.892Z" fill="#B2FF00"/>
<path d="M159.813 47.2197V41.3186H153.893V47.2197V53.1208H159.813V47.2197Z" fill="white"/>
<path d="M159.813 11.8022H153.893V17.7033H159.813V11.8022Z" fill="white"/>
<path d="M153.888 70.8296H147.973V76.7307H153.888V70.8296Z" fill="#FF0000"/>
<path d="M153.888 64.9287H147.973V70.8298H153.888V64.9287Z" fill="#B2FF00"/>
<path d="M153.888 59.0164H147.973V64.9286H153.888V59.0164Z" fill="#FF0000"/>
<path d="M147.973 35.4177V41.3188V47.2199V53.121H153.894V47.2199V41.3188H159.814V35.4177H153.894H147.973Z" fill="#3B0C79"/>
<path d="M153.894 35.4177H159.814V29.511H153.894H147.973V35.4177H153.894Z" fill="white"/>
<path d="M153.888 17.7031H147.973V23.6042H153.888V17.7031Z" fill="white"/>
<path d="M153.888 11.8022H147.973V17.7033H153.888V11.8022Z" fill="#E5FF00"/>
<path d="M153.888 5.90112H147.973V11.8022H153.888V5.90112Z" fill="white"/>
<path d="M142.057 64.9286V59.0164H136.136V64.9286H130.221V70.8297H136.136V76.7308V82.6318H142.057V76.7308V70.8297H147.972V64.9286H142.057Z" fill="#FF0000"/>
<path d="M147.972 47.2199V41.3188V35.4177H142.057V41.3188V47.2199V53.121H147.972V47.2199Z" fill="white"/>
<path d="M147.972 17.7031H142.057V23.6042H147.972V17.7031Z" fill="#E5FF00"/>
<path d="M147.972 11.8022H142.057V17.7033H147.972V11.8022Z" fill="#B2FF00"/>
<path d="M147.972 5.90112H142.057V11.8022H147.972V5.90112Z" fill="#E5FF00"/>
<path d="M147.972 0H142.057V5.90108H147.972V0Z" fill="white"/>
<path d="M136.135 29.511V35.4177V41.3187V47.2198V53.1209H142.056V47.2198V41.3187V35.4177H147.971V29.511H142.056H136.135Z" fill="#3B0C79"/>
<path d="M142.056 11.8022H136.135V17.7033H142.056V11.8022Z" fill="#E5FF00"/>
<path d="M142.056 5.90112H136.135V11.8022H142.056V5.90112Z" fill="white"/>
<path d="M130.221 35.4177V41.3187V47.2198V53.1209H136.136V47.2198V41.3187V35.4177V29.511H130.221V35.4177Z" fill="white"/>
<path d="M124.299 35.4176V41.3187V47.2197V53.1208H130.22V47.2197V41.3187V35.4176V29.5109H136.135V23.6042H130.22H124.299V29.5109V35.4176Z" fill="#3B0C79"/>
<path d="M130.22 23.6044H136.135V29.5111H142.056H147.971V23.6044H142.056V17.7033H136.135V11.8022H130.22V17.7033H124.299V23.6044H130.22Z" fill="white"/>
<path d="M124.3 59.0164H118.385V64.9286H124.3V59.0164Z" fill="#FF0000"/>
<path d="M124.3 47.2197V41.3187V35.4176V29.5109V23.6042H118.385V29.5109V35.4176V41.3187V47.2197V53.1208H124.3V47.2197Z" fill="white"/>
<path d="M112.457 76.7309H118.384V70.8298V64.9287H112.457V70.8298V76.7309Z" fill="#FF0000"/>
<path d="M112.458 64.9286V59.0164H106.542H100.627V64.9286H106.542H112.458Z" fill="#FF0000"/>
<path d="M112.458 47.2197V41.3187V35.4176V29.5109V23.6042H106.543V29.5109V35.4176V41.3187V47.2197V53.1208H112.458V47.2197Z" fill="white"/>
<path d="M106.542 76.7307H100.627V82.6318H106.542V76.7307Z" fill="#FF0000"/>
<path d="M106.543 17.7033H112.458H118.385H124.3V11.8022H118.385H112.458H106.543H100.628H94.707V17.7033H100.628H106.543Z" fill="white"/>
<path d="M100.627 64.9287H94.7063V70.8298H88.791V76.7309H94.7063H100.627V70.8298V64.9287Z" fill="#FF0000"/>
<path d="M94.707 35.4176V41.3187V47.2197V53.1208H100.628V47.2197V41.3187V35.4176V29.5109V23.6042H94.707V29.5109V35.4176Z" fill="white"/>
<path d="M100.628 23.6042V29.5109V35.4175V41.3186V47.2197V53.1208H106.543V47.2197V41.3186V35.4175V29.5109V23.6042H112.458V29.5109V35.4175V41.3186V47.2197V53.1208H118.385V47.2197V41.3186V35.4175V29.5109V23.6042H124.3V17.7031H118.385H112.458H106.543H100.628H94.707V23.6042H100.628Z" fill="#3B0C79"/>
<path d="M88.7917 35.4176V41.3187V47.2197V53.1208H94.707V47.2197V41.3187V35.4176V29.5109V23.6042H88.7917H82.8652V29.5109H88.7917V35.4176Z" fill="#3B0C79"/>
<path d="M88.7917 47.2198V41.3187V35.4177V29.511H82.8652V35.4177V41.3187V47.2198V53.1209H88.7917V47.2198Z" fill="white"/>
<path d="M82.8645 76.7307H76.9492V82.6318H82.8645V76.7307Z" fill="#FF0000"/>
<path d="M82.8635 64.9286V59.0164H76.9482H71.0273V64.9286H76.9482H82.8635Z" fill="#FF0000"/>
<path d="M82.8635 29.5111V23.6044H88.79H94.7053V17.7033H88.79V11.8022H82.8635V17.7033H76.9482V23.6044H71.0273V29.5111H76.9482H82.8635Z" fill="white"/>
<path d="M82.8645 11.8022H76.9492V17.7033H82.8645V11.8022Z" fill="#E5FF00"/>
<path d="M82.8645 5.90112H76.9492V11.8022H82.8645V5.90112Z" fill="white"/>
<path d="M76.9482 70.8296H71.0273V76.7307H76.9482V70.8296Z" fill="#FF0000"/>
<path d="M76.9482 47.2199V41.3188V35.4177H71.0273V41.3188V47.2199V53.121H76.9482V47.2199Z" fill="white"/>
<path d="M76.9482 35.4177V41.3187V47.2198V53.1209H82.8635V47.2198V41.3187V35.4177V29.511H76.9482H71.0273V35.4177H76.9482Z" fill="#3B0C79"/>
<path d="M76.9482 17.7031H71.0273V23.6042H76.9482V17.7031Z" fill="#E5FF00"/>
<path d="M76.9482 11.8022H71.0273V17.7033H76.9482V11.8022Z" fill="#B2FF00"/>
<path d="M76.9482 5.90112H71.0273V11.8022H76.9482V5.90112Z" fill="#E5FF00"/>
<path d="M76.9482 0H71.0273V5.90108H76.9482V0Z" fill="white"/>
<path d="M71.0286 64.9287H65.1133V70.8298H71.0286V64.9287Z" fill="#FF0000"/>
<path d="M71.0273 35.4177V29.511H65.112H59.1855V35.4177H65.112H71.0273Z" fill="white"/>
<path d="M71.0286 17.7031H65.1133V23.6042H71.0286V17.7031Z" fill="white"/>
<path d="M71.0286 11.8022H65.1133V17.7033H71.0286V11.8022Z" fill="#E5FF00"/>
<path d="M71.0286 5.90112H65.1133V11.8022H71.0286V5.90112Z" fill="white"/>
<path d="M59.1855 76.7307V82.6317H65.112V76.7307V70.8296H59.1855V76.7307Z" fill="#FF0000"/>
<path d="M65.112 59.0164H59.1855V64.9286H65.112V59.0164Z" fill="#FF0000"/>
<path d="M59.1855 53.1208H65.112V47.2197V41.3186H59.1855V47.2197V53.1208Z" fill="white"/>
<path d="M65.112 41.3188V47.2199V53.121H71.0273V47.2199V41.3188V35.4177H65.112H59.1855V41.3188H65.112Z" fill="#3B0C79"/>
<path d="M65.112 11.8022H59.1855V17.7033H65.112V11.8022Z" fill="white"/>
<path d="M59.186 47.2197V41.3186H53.2708H47.3555V47.2197H53.2708V53.1208H59.186V47.2197Z" fill="#3B0C79"/>
<path d="M53.2708 100.341H59.186H65.1125H71.0278H76.9487H82.864H88.7905H94.7058H100.627H106.542H112.457H118.384H124.299H130.22H136.135H142.056H147.971H153.892H159.813H165.728H171.649V94.4341H165.728H159.813H153.892H147.971H142.056H136.135H130.22H124.299H118.384H112.457H106.542H100.627H94.7058H88.7905H82.864H76.9487H71.0278H65.1125H59.186H53.2708H47.3555V100.341H53.2708Z" fill="#3200CC"/>
<path d="M53.2708 47.2197H47.3555V53.1208H53.2708V47.2197Z" fill="white"/>
<path d="M53.2708 41.3188H59.186V35.4177H53.2708H47.3555V41.3188H53.2708Z" fill="white"/>
<path d="M47.362 112.148H41.4355V118.05H47.362V112.148Z" fill="#4A1999"/>
<path d="M47.362 106.242H41.4355V112.143H47.362V106.242Z" fill="#3B0C79"/>
<path d="M47.3564 106.242V100.341H41.4355V106.242H47.3564Z" fill="#3200CC"/>
<path d="M47.362 94.4341H41.4355V100.341H47.362V94.4341Z" fill="#3B0C79"/>
<path d="M41.4355 94.434H47.3564V88.533H41.4355V94.434Z" fill="#4A1999"/>
<path d="M47.362 29.511H41.4355V35.4121H47.362V29.511Z" fill="white"/>
<path d="M41.4348 112.148H35.5195V118.05H41.4348V112.148Z" fill="white"/>
<path d="M41.4348 106.242V100.341V94.4341H35.5195V100.341V106.242V112.148H41.4348V106.242Z" fill="#4A1999"/>
<path d="M35.5195 64.9286V70.8297H41.4348V64.9286V59.0163V53.1208H35.5195V59.0163V64.9286Z" fill="white"/>
<path d="M41.4348 29.511H35.5195V35.4121H41.4348V29.511Z" fill="#E5FF00"/>
<path d="M41.4348 23.6042H35.5195V29.5165H41.4348V23.6042Z" fill="white"/>
<path d="M35.5195 106.242V100.341V94.434H41.4348V88.533H35.5195H29.593H23.6777V94.434V100.341V106.242V112.148V118.05V123.951V129.857V135.758V141.659V147.56V153.462V159.363V165.269V171.17V177.077V182.978V188.879V194.78V200.687V206.588V212.489V218.39V224.291V230.198V236.099H29.593V230.198V224.291V218.39V212.489V206.588V200.687V194.78V188.879V182.978V177.077V171.17V165.269V159.363V153.462V147.56V141.659V135.758V129.857V123.951V118.05V112.148H35.5195V106.242Z" fill="white"/>
<path d="M29.5938 64.9286V70.8297H35.5202V64.9286V59.0163V53.1208H29.5938V59.0163V64.9286Z" fill="#3B0C79"/>
<path d="M35.5202 47.2199H41.4355H47.3564V41.3188H41.4355V35.4177H35.5202V41.3188H29.5938V47.2199V53.121H35.5202V47.2199Z" fill="white"/>
<path d="M35.5202 35.4177H29.5938V41.3188H35.5202V35.4177Z" fill="#E5FF00"/>
<path d="M35.5202 29.511H29.5938V35.4121H35.5202V29.511Z" fill="#B2FF00"/>
<path d="M35.5202 23.6042H29.5938V29.5165H35.5202V23.6042Z" fill="#E5FF00"/>
<path d="M35.5202 17.7031H29.5938V23.6042H35.5202V17.7031Z" fill="white"/>
<path d="M29.593 35.4177H23.6777V41.3188H29.593V35.4177Z" fill="white"/>
<path d="M29.593 29.511H23.6777V35.4121H29.593V29.511Z" fill="#E5FF00"/>
<path d="M29.593 23.6042H23.6777V29.5165H29.593V23.6042Z" fill="white"/>
<path d="M23.678 70.8297H29.5933V64.9286V59.0163V53.1208H23.678V59.0163V64.9286H17.7571H11.8418V70.8297H17.7571H23.678Z" fill="white"/>
<path d="M23.6843 29.511H17.7578V35.4121H23.6843V29.511Z" fill="white"/>
<path d="M11.8425 236.099H5.91602V242H11.8425H17.7578H23.6787V236.099H17.7578H11.8425Z" fill="white"/>
<path d="M11.8425 230.198V224.291V218.39V212.489V206.588V200.687V194.78V188.879V182.978V177.077V171.17V165.269V159.362V153.461V147.56V141.659V135.758V129.857V123.95V118.049V112.148V106.242V100.341V94.4339V88.5328V82.6317H17.7578V76.7307H23.6787H29.594H35.5205H41.4357V70.8296H35.5205H29.594H23.6787H17.7578H11.8425V76.7307H5.91602V82.6317V88.5328V94.4339V100.341V106.242V112.148V118.049V123.95V129.857V135.758V141.659V147.56V153.461V159.362V165.269V171.17V177.077V182.978V188.879V194.78V200.687V206.588V212.489V218.39V224.291V230.198V236.099H11.8425V230.198Z" fill="#4A1999"/>
<path d="M11.8369 70.8296H5.91602V76.7307H11.8369V70.8296Z" fill="white"/>
<path d="M0 82.6318V88.5329V94.4339V100.341V106.242V112.148V118.049V123.951V129.857V135.758V141.659V147.56V153.461V159.363V165.269V171.17V177.077V182.978V188.879V194.78V200.687V206.588V212.489V218.39V224.291V230.198V236.099H5.91529V230.198V224.291V218.39V212.489V206.588V200.687V194.78V188.879V182.978V177.077V171.17V165.269V159.363V153.461V147.56V141.659V135.758V129.857V123.951V118.049V112.148V106.242V100.341V94.4339V88.5329V82.6318V76.7307H0V82.6318Z" fill="white"/>
</g>
<defs>
<clipPath id="clip0_368_9192">
<rect width="219" height="242" fill="white"/>
</clipPath>
</defs>
</svg>
