<svg width="205" height="201" viewBox="0 0 205 201" fill="none" xmlns="http://www.w3.org/2000/svg">
<g clip-path="url(#clip0_368_6997)">
<path d="M201.055 86.7065H197.115V90.6467H201.055V86.7065Z" fill="#4800FF"/>
<path d="M201.054 78.8262V70.9402H197.114V82.7664H193.169V78.8262H189.229V74.8804H181.344V78.8262H185.284V82.7664H189.229V86.7065H193.169V90.6467H189.229V98.5327H185.284V102.473H173.458V94.5869H165.573V98.5327H169.519V102.473H165.573V106.413H149.803V110.353H169.519V106.413H189.229V102.473H193.169V94.5869H197.114V102.473H193.169V110.353H185.284V118.234H181.344V122.179H177.398V118.234H173.458V122.179H165.573V126.12H153.748V122.179H145.863V118.234H137.978V114.293H122.207V118.234H130.092V122.179H141.917V126.12H149.803V130.06H173.458V126.12H185.284V122.179H189.229V118.234H193.169V114.293H197.114V106.413H201.054V94.5869H204.999V82.7664H201.054V78.8262ZM201.054 90.6467H197.114V86.7065H201.054V90.6467Z" fill="#3200CC"/>
<path d="M197.115 98.5327V94.5869H193.17V98.5327V102.473H197.115V98.5327Z" fill="#4800FF"/>
<path d="M165.575 51.2336H161.635V55.1794H165.575H169.52V51.2336H165.575Z" fill="#4800FF"/>
<path d="M149.803 55.1794H153.749H157.688V59.1196H153.749V63.0598H149.803V67H153.749H157.688V63.0598H161.634V59.1196H165.574H169.519V55.1794H165.574H161.634V51.2336H165.574H169.519V55.1794H173.459H177.399V59.1196H181.344H185.284V63.0598H189.229V67H193.169V70.9402H197.115H201.055V67H197.115V63.0598H193.169V59.1196H189.229V55.1794H185.284V51.2336H181.344H177.399V47.2935H173.459H169.519H165.574H161.634H157.688V51.2336H153.749H149.803H145.863V55.1794H149.803Z" fill="#A400FC"/>
<path d="M141.917 193.12H137.977H134.037H130.092H126.152H122.207H118.267H114.321H110.382H106.442H102.496H98.5566H94.6111H90.6713H86.7259H82.786H78.8406H74.9008H70.9609V197.06V201H74.9008H78.8406H82.786H86.7259H90.6713H94.6111H98.5566H102.496H106.442H110.382H114.321H118.267H122.207H126.152H130.092H134.037H137.977H141.917H145.863H149.802V197.06V193.12H145.863H141.917Z" fill="#363659"/>
<path d="M141.918 31.5327V35.4729V39.4131V43.3533V47.2935V51.2336H137.978V55.1794V59.1196V63.0598V67H134.039V70.9402V74.8804H130.093V78.8262H126.153V82.7663H122.208V86.7065H118.268H114.323V90.6467H110.383V94.5869H114.323H118.268V90.6467H122.208H126.153V86.7065H130.093V82.7663H134.039V78.8262H137.978V74.8804V70.9402H141.918V67V63.0598H145.864V59.1196V55.1794V51.2336V47.2935V43.3533V39.4131V35.4729V31.5327V27.5869H141.918V31.5327Z" fill="#3200CC"/>
<path d="M141.918 27.5869H145.863V23.6467V19.7065H141.918V23.6467V27.5869Z" fill="#A400FC"/>
<path d="M134.039 19.7065H137.979H141.919V15.7664H137.979V11.8262H134.039V15.7664V19.7065Z" fill="#A400FC"/>
<path d="M134.037 185.234H137.977V189.179H134.037H130.092H126.152H122.207H118.267H114.321H110.382H106.442H102.496H98.5566H94.6111H90.6713H86.7259V185.234H90.6713H94.6111V181.293H90.6713H86.7259H82.786H78.8406H74.9008V185.234V189.179H70.9609V193.12H74.9008H78.8406H82.786H86.7259H90.6713H94.6111H98.5566H102.496H106.442H110.382H114.321H118.267H122.207H126.152H130.092H134.037H137.977H141.917H145.863H149.802V189.179H145.863V185.234V181.293H141.917H137.977H134.037H130.092V185.234H134.037Z" fill="#B2B2D1"/>
<path d="M130.092 114.293H137.978V118.234H145.863V122.179H153.748V126.12H165.573V122.179H173.459V118.234H177.398V122.179H181.344V118.234H185.284V110.353H193.169V102.473H189.229V106.413H169.519V110.353H149.803V106.413H165.573V102.473H169.519V98.5327H165.573V94.5869H173.459V102.473H185.284V98.5327H189.229V90.6467H193.169V86.7065H189.229V82.7663H185.284V78.8262H181.344V74.8804H189.229V78.8262H193.169V82.7663H197.114V70.9402H193.169V67H189.229V63.0598H185.284V59.1196H177.398V55.1794H169.519V59.1196H161.633V63.0598H157.688V67H149.803V63.0598H153.748V59.1196H157.688V55.1794H145.863V63.0598H141.918V70.9402H137.978V78.8262H134.038V82.7663H130.092V86.7065H126.153V90.6467H118.267V94.5869H110.382V90.6467H114.322V86.7065H122.207V82.7663H126.153V78.8262H130.092V74.8804H134.038V67H137.978V51.2336H141.918V19.7065H134.038V11.8262H126.153V7.88037H110.382V3.94019H106.442V7.88037H90.6717V11.8262H82.7865V19.7065H74.9012V23.6467H67.0159V27.5869H63.0761V31.5327H59.1307V43.3533H55.1909V51.2336H59.1307V59.1196H55.1909V63.0598H63.0761V70.9402H59.1307V67H51.2454V63.0598H47.3056V59.1196H31.5351V55.1794H27.5952V63.0598H35.4805V67H27.5952V70.9402H23.6498V82.7663H15.7645V74.8804H19.71V67H27.5952V63.0598H15.7645V70.9402H11.8247V74.8804H7.88488V86.7065H3.93945V90.6467H7.88488V102.473H11.8247V110.353H15.7645V114.293H23.6498V118.234H27.5952V122.179H59.1307V118.234H63.0761V114.293H67.0159V110.353H70.9614V106.413H67.0159V102.473H59.1307V110.353H55.1909V114.293H39.4203V110.353H35.4805V106.413H39.4203V110.353H51.2454V106.413H55.1909V102.473H59.1307V98.5327H63.0761V90.6467H59.1307V86.7065H55.1909V82.7663H63.0761V86.7065H67.0159V94.5869H70.9614V98.5327H74.9012V102.473H78.841V106.413H82.7865V110.353H86.7263V114.293H90.6717V118.234H94.6116V122.179H98.557V106.413H94.6116V98.5327H98.557V94.5869H102.497V90.6467H106.442V118.234H110.382V110.353H114.322V106.413H118.267V102.473H122.207V98.5327H126.153V94.5869H130.092V98.5327H134.038V102.473H130.092V106.413H126.153V110.353H122.207V114.293H130.092ZM67.0159 51.2336V35.4729H74.9012V31.5327H82.7865V35.4729H74.9012V39.4131H70.9614V55.1794H67.0159V51.2336ZM86.7263 23.6467H90.6717V19.7065H94.6116V15.7663H110.382V19.7065H114.322V23.6467H110.382V19.7065H98.557V23.6467H90.6717V39.4131H86.7263V23.6467ZM130.092 51.2336V63.0598H126.153V67H114.322V63.0598H122.207V59.1196H126.153V51.2336H118.267V43.3533H122.207V39.4131H126.153V31.5327H118.267V27.5869H130.092V43.3533H126.153V47.2935H130.092V51.2336ZM110.382 63.0598V70.9402H106.442V74.8804H90.6717V70.9402H102.497V67H106.442V55.1794H102.497V51.2336H106.442V55.1794H110.382V63.0598ZM31.5351 102.473H23.6498V98.5327H31.5351V94.5869H35.4805V90.6467H39.4203V86.7065H35.4805V78.8262H39.4203V82.7663H43.3658V94.5869H39.4203V98.5327H35.4805V102.473H31.5351Z" fill="#4800FF"/>
<path d="M130.092 94.5869H126.152V98.5327H130.092V94.5869Z" fill="#4A1999"/>
<path d="M130.092 11.8262H134.038V7.88037H130.092H126.152V11.8262H130.092Z" fill="#A400FC"/>
<path d="M126.153 110.353V106.413H130.093V102.473H134.038V98.5327H130.093H126.153V102.473H122.208V106.413H118.268V110.353H114.322V114.293V118.234H118.268V114.293H122.208V110.353H126.153Z" fill="#3B0C79"/>
<path d="M126.152 98.5327H122.207V102.473H126.152V98.5327Z" fill="#4A1999"/>
<path d="M126.153 43.3533H130.093V39.4131V35.4729V31.5327V27.5869H126.153H122.208H118.268V31.5327H122.208H126.153V35.4729V39.4131H122.208V43.3533H118.268V47.2935V51.2336H122.208H126.153V55.1794V59.1196H122.208V63.0598H118.268H114.322V67H118.268H122.208H126.153V63.0598H130.093V59.1196V55.1794V51.2336V47.2935H126.153V43.3533Z" fill="#3200CC"/>
<path d="M118.268 177.353H122.207V181.293V185.234H126.153H130.093V181.293H126.153V177.353V173.413H122.207V169.473H118.268V173.413V177.353Z" fill="#3B0C79"/>
<path d="M122.207 102.473H118.268V106.413H122.207V102.473Z" fill="#4A1999"/>
<path d="M118.268 106.413H114.322V110.353H118.268V106.413Z" fill="#4A1999"/>
<path d="M114.322 165.527V161.587H110.382V157.647V153.707V149.766V145.826V141.88V137.94V134H106.442H102.496V130.06V126.12H98.5567V122.179H94.6112V118.234H90.6714V114.293H86.726V110.353H82.7861V106.413H78.8407V102.473H74.9009V98.5327H70.9611V94.5869H67.0156V98.5327V102.473H70.9611V106.413H74.9009V110.353H78.8407V114.293H82.7861V118.234H86.726V122.179H90.6714V126.12H94.6112V130.06H98.5567V134V137.94H102.496V141.88V145.826H98.5567V149.766H102.496V153.707V157.647V161.587H98.5567V165.527V169.473H94.6112V173.413V177.353V181.293V185.234H98.5567H102.496V181.293H106.442V185.234H110.382V181.293V177.353H114.322V181.293V185.234H118.267V181.293H122.207V177.353H118.267V173.413V169.473H114.322V165.527Z" fill="#4A1999"/>
<path d="M110.382 126.12H106.442V122.179V118.234V114.293H102.496V118.234V122.179H98.5566V126.12H102.496V130.06V134H106.442H110.382V137.94V141.88V145.826V149.766V153.707V157.647V161.587H114.322V165.527V169.473H118.267V165.527V161.587V157.647V153.707V149.766H114.322V145.826V141.88V137.94V134V130.06V126.12V122.179H110.382V126.12Z" fill="#3B0C79"/>
<path d="M114.323 110.353H110.383V114.293V118.234H106.443V122.179V126.12H110.383V122.179H114.323V118.234V114.293V110.353Z" fill="#4A1999"/>
<path d="M114.323 19.7065H110.383V23.6467H114.323V19.7065Z" fill="#A400FC"/>
<path d="M106.442 55.1794V59.1196V63.0598V67H102.497V70.9402H98.5571H94.6117H90.6719V74.8804H94.6117H98.5571H102.497H106.442V70.9402H110.382V67V63.0598V59.1196V55.1794H106.442Z" fill="#3200CC"/>
<path d="M102.498 102.473V106.413V110.353H106.443V106.413V102.473V98.5327V94.5869V90.6467H102.498V94.5869V98.5327V102.473Z" fill="#3B0C79"/>
<path d="M106.443 51.2336H102.498V55.1794H106.443V51.2336Z" fill="#3200CC"/>
<path d="M102.496 141.88V137.94H98.5566V141.88V145.826H102.496V141.88Z" fill="#3B0C79"/>
<path d="M102.497 118.234V114.293H106.442V110.353H102.497V106.413V102.473V98.5327V94.5869H98.5568V98.5327H94.6113V102.473V106.413H98.5568V110.353V114.293V118.234V122.179H102.497V118.234Z" fill="#4A1999"/>
<path d="M98.5568 130.06H94.6113V134H98.5568V130.06Z" fill="#3B0C79"/>
<path d="M98.5571 23.6467V19.7065H102.497H106.442H110.382V15.7664H106.442H102.497H98.5571H94.6117V19.7065H90.6719V23.6467H94.6117H98.5571Z" fill="#A400FC"/>
<path d="M94.6117 126.12H90.6719V130.06H94.6117V126.12Z" fill="#3B0C79"/>
<path d="M90.672 122.179H86.7266V126.12H90.672V122.179Z" fill="#3B0C79"/>
<path d="M86.7266 35.4729V39.4131H90.672V35.4729V31.5327V27.5869V23.6467H86.7266V27.5869V31.5327V35.4729Z" fill="#A400FC"/>
<path d="M86.7269 118.234H82.7871V122.179H86.7269V118.234Z" fill="#3B0C79"/>
<path d="M82.7872 114.293H78.8418V118.234H82.7872V114.293Z" fill="#3B0C79"/>
<path d="M82.7876 35.4729V31.5327H78.8422H74.9023V35.4729H78.8422H82.7876Z" fill="#A400FC"/>
<path d="M78.8422 110.353H74.9023V114.293H78.8422V110.353Z" fill="#3B0C79"/>
<path d="M74.9017 106.413H70.9618V110.353H67.0164V114.293H63.0766V118.234H59.1312V122.179H55.1913H51.2459H47.3061H43.3662H39.4208H35.481H31.5355H27.5957V126.12H31.5355H35.481H39.4208H43.3662H47.3061H51.2459H55.1913H59.1312H63.0766V122.179H67.0164V118.234H70.9618V114.293H74.9017V110.353V106.413Z" fill="#3200CC"/>
<path d="M70.9611 102.473H67.0156V106.413H70.9611V102.473Z" fill="#3B0C79"/>
<path d="M70.9611 51.2337V47.2935V43.3533V39.4131H74.9009V35.4729H70.9611H67.0156V39.4131V43.3533V47.2935V51.2337V55.1794H70.9611V51.2337Z" fill="#A400FC"/>
<path d="M67.0165 94.5869V90.6467V86.7065H63.0767V82.7664H59.1312H55.1914V86.7065H59.1312V90.6467H63.0767V94.5869V98.5327H59.1312V102.473H63.0767H67.0165V98.5327V94.5869Z" fill="#3200CC"/>
<path d="M55.1904 106.413H51.245V110.353H47.3052H43.3653H39.4199V114.293H43.3653H47.3052H51.245H55.1904V110.353H59.1303V106.413V102.473H55.1904V106.413Z" fill="#3200CC"/>
<path d="M39.4203 106.413H35.4805V110.353H39.4203V106.413Z" fill="#3200CC"/>
<path d="M39.4209 98.5327V94.5869H43.3663V90.6467V86.7066V82.7664H39.4209V78.8262H35.4811V82.7664V86.7066H39.4209V90.6467H35.4811V94.5869H31.5357V98.5327H27.5958H23.6504V102.473H27.5958H31.5357H35.4811V98.5327H39.4209Z" fill="#3200CC"/>
<path d="M31.5355 67H35.481V63.0598H31.5355H27.5957V67H31.5355Z" fill="#A400FC"/>
<path d="M27.5956 118.234H23.6502V114.293H19.7104H15.7649V110.353H11.8251V106.413V102.473H7.88526V98.5327V94.5869V90.6467H3.93983V86.7065H7.88526V82.7663V78.8262V74.8804H11.8251V70.9402H15.7649V67V63.0598H19.7104H23.6502H27.5956V59.1196V55.1794H31.5354V59.1196H35.4809H39.4207H43.3661H47.306V63.0598H51.2458V67H55.1912H59.1311V70.9402H63.0765V67V63.0598H59.1311H55.1912V59.1196H59.1311V55.1794V51.2336H55.1912V47.2935V43.3533H59.1311V39.4131V35.4729V31.5327H63.0765V27.5869H67.0163V23.6467H70.9618H74.9016V19.7065H78.8414H82.7868V15.7664V11.8262H86.7267H90.6721V7.88038H94.6119H98.5574H102.497H106.443V3.94019H110.382V7.88038H114.322H118.268H122.208H126.153V3.94019H122.208H118.268V0H114.322H110.382H106.443H102.497V3.94019H98.5574H94.6119H90.6721H86.7267V7.88038H82.7868H78.8414V11.8262H74.9016V15.7664H70.9618H67.0163V19.7065H63.0765V23.6467H59.1311V27.5869H55.1912V31.5327V35.4729H51.2458V39.4131V43.3533V47.2935V51.2336V55.1794H47.306H43.3661H39.4207H35.4809V51.2336H31.5354H27.5956H23.6502V55.1794H19.7104H15.7649V59.1196H11.8251V63.0598V67H7.88526V70.9402H3.93983V74.8804V78.8262V82.7663H0V86.7065V90.6467V94.5869H3.93983V98.5327V102.473V106.413V110.353H7.88526V114.293H11.8251V118.234H15.7649V122.179H19.7104H23.6502V126.12H27.5956V122.179V118.234Z" fill="#A400FC"/>
<path d="M19.7111 67V70.9402V74.8804H15.7656V78.8262V82.7664H19.7111H23.6509V78.8262V74.8804V70.9402H27.5963V67H23.6509H19.7111Z" fill="#A400FC"/>
</g>
<defs>
<clipPath id="clip0_368_6997">
<rect width="205" height="201" fill="white"/>
</clipPath>
</defs>
</svg>
