<svg width="224" height="301" viewBox="0 0 224 301" fill="none" xmlns="http://www.w3.org/2000/svg">
<g clip-path="url(#clip0_368_9194)">
<path d="M218.104 147.555V153.456V159.356V165.257V171.163V177.063V182.964V188.864V194.764V200.665V206.576V212.477V218.377V224.278V230.178V236.079V241.985V247.885V253.785V259.686V265.586V271.498V277.398V283.299V289.199H224V283.299V277.398V271.498V265.586V259.686V253.785V247.885V241.985V236.079V230.178V224.278V218.377V212.477V206.576V200.665V194.764V188.864V182.964V177.063V171.163V165.257V159.356V153.456V147.555V141.655H218.104V147.555Z" fill="white"/>
<path d="M218.104 82.6338V88.5342V94.4347V100.335V106.241V112.142V118.042V123.942V129.843V135.743V141.655H224V135.743V129.843V123.942V118.042V112.142V106.241V100.335V94.4347V88.5342V82.6338V76.7334H218.104V82.6338Z" fill="white"/>
<path d="M218.104 11.812V17.7124V23.6129V29.5133V35.4137V41.3197V47.2202V53.1206V59.021V64.9214V70.833V76.7335H224V70.833V64.9214V59.021V53.1206V47.2202V41.3197V35.4137V29.5133V23.6129V17.7124V11.812H218.104Z" fill="white"/>
<path d="M218.104 289.199H212.213V295.1H218.104V289.199Z" fill="white"/>
<path d="M218.103 283.299V277.398V271.498V265.586V259.686V253.785V247.885V241.985V236.079V230.178V224.278V218.377V212.477V206.576V200.665V194.764V188.864V182.964V177.063V171.163V165.257V159.356V153.456V147.555V141.655H212.212V147.555V153.456V159.356V165.257V171.163V177.063V182.964V188.864V194.764V200.665V206.576V212.477V218.377V224.278V230.178V236.079V241.985V247.885V253.785V259.686V265.586V271.498V277.398H206.315V283.299H200.424H194.533H188.631H182.74H176.838H170.947H165.05H159.159H153.262H147.371H141.475H135.578H129.687H123.79H117.899H111.997H106.106H100.215H94.3181H88.427H82.5248H76.6337H70.7371H64.846H58.9438H53.0527V289.199H58.9438H64.846H70.7371H76.6337H82.5248H88.427H94.3181H100.215H106.106H111.997H117.899H123.79H129.687H135.578H141.475H147.371H153.262H159.159H165.05H170.947H176.838H182.74V295.1H188.631H194.533H200.424H206.315H212.212V289.199H218.103V283.299Z" fill="#3B0C79"/>
<path d="M218.104 129.843V123.942V118.042V112.142V106.241V100.335V94.4347V88.5342V82.6338V76.7334H212.213V82.6338V88.5342V94.4347V100.335V106.241V112.142V118.042V123.942V129.843V135.743V141.655H218.104V135.743V129.843Z" fill="#3B0C79"/>
<path d="M218.104 64.9215V59.021V53.1206V47.2202V41.3198V35.4138V29.5133V23.6129V17.7125V11.812H212.213V5.91162H206.316V11.812V17.7125H212.213V23.6129V29.5133V35.4138V41.3198V47.2202V53.1206V59.021V64.9215V70.8331V76.7335H218.104V70.8331V64.9215Z" fill="#3B0C79"/>
<path d="M218.104 5.91162H212.213V11.812H218.104V5.91162Z" fill="white"/>
<path d="M212.213 129.843V123.942V118.042V112.142V106.241V100.335V94.4347V88.5342V82.6338V76.7334H206.316V82.6338V88.5342V94.4347V100.335V106.241V112.142V118.042V123.942V129.843H200.425H194.534H188.632H182.741H176.838V123.942V118.042V112.142V106.241V100.335V94.4347V88.5342V82.6338V76.7334H170.947V82.6338V88.5342V94.4347V100.335V106.241V112.142V118.042V123.942V129.843V135.743V141.655H176.838V135.743H182.741H188.632H194.534H200.425H206.316V141.655H212.213V135.743V129.843Z" fill="#A2A0C2"/>
<path d="M212.212 64.9214V59.021V53.1206V47.2202V41.3197V35.4137V29.5133V23.6129V17.7124H206.315V11.812H200.424H194.533H188.631H182.74H176.838H170.947H165.05H159.159H153.262H147.371H141.475H135.578H129.687H123.79H117.899H111.997H106.106H100.215H94.3181H88.427H82.5248H76.6337H70.7371H64.846H58.9438H53.0527V17.7124V23.6129H58.9438H64.846H70.7371H76.6337H82.5248H88.427H94.3181H100.215H106.106H111.997H117.899H123.79H129.687H135.578H141.475H147.371H153.262H159.159H165.05V29.5133H170.947V35.4137V41.3197V47.2202V53.1206V59.021V64.9214V70.833V76.7335H176.838V70.833H182.74H188.631H194.533H200.424H206.315V76.7335H212.212V70.833V64.9214Z" fill="#A2A0C2"/>
<path d="M200.425 295.1H194.534H188.631H182.74V301H188.631H194.534H200.425H206.316H212.212V295.1H206.316H200.425Z" fill="white"/>
<path d="M200.424 135.743H194.533H188.631H182.74H176.838V141.655H182.74H188.631H194.533H200.424H206.316V135.743H200.424Z" fill="#3B0C79"/>
<path d="M200.424 70.833H194.533H188.631H182.74H176.838V76.7334H182.74H188.631H194.533H200.424H206.316V70.833H200.424Z" fill="#3B0C79"/>
<path d="M194.533 188.864H188.631V194.764H194.533V188.864Z" fill="#4800FF"/>
<path d="M188.631 200.665H200.425V182.964H182.74V200.665H188.631ZM188.631 188.864H194.534V194.764H188.631V188.864Z" fill="#3B0C79"/>
<path d="M182.74 147.555V153.456H188.631H194.534H200.425V147.555V141.655H194.534H188.631H182.74V147.555Z" fill="#4800FF"/>
<path d="M182.74 88.5342V94.4347V100.335V106.241V112.142V118.042V123.942H188.631H194.534H200.425V118.042V112.142V106.241V100.335V94.4347V88.5342V82.6338V76.7334H194.534H188.631H182.74V82.6338V88.5342Z" fill="#4800FF"/>
<path d="M176.838 289.199H170.947H165.05H159.159H153.262H147.371H141.475H135.578H129.687H123.79H117.899H111.997H106.106H100.215H94.3181H88.427H82.5248H76.6337H70.7371H64.846H58.9438H53.0527V295.1H58.9438H64.846H70.7371H76.6337H82.5248H88.427H94.3181H100.215H106.106H111.997H117.899H123.79H129.687H135.578H141.475H147.371H153.262H159.159H165.05H170.947H176.838H182.74V289.199H176.838Z" fill="white"/>
<path d="M176.838 147.555V153.456V159.356H182.74H188.631H194.533H200.424H206.316V153.456V147.555V141.655H200.424V147.555V153.456H194.533H188.631H182.74V147.555V141.655H176.838V147.555Z" fill="#3B0C79"/>
<path d="M176.838 88.5342V94.4347V100.335V106.241V112.142V118.042V123.942V129.843H182.74H188.631H194.533H200.424H206.316V123.942V118.042V112.142V106.241V100.335V94.4347V88.5342V82.6338V76.7334H200.424V82.6338V88.5342V94.4347V100.335V106.241V112.142V118.042V123.942H194.533H188.631H182.74V118.042V112.142V106.241V100.335V94.4347V88.5342V82.6338V76.7334H176.838V82.6338V88.5342Z" fill="#3B0C79"/>
<path d="M165.051 247.885V253.785V259.686H170.947V253.785V247.885V241.985V236.079H165.051V241.985V247.885Z" fill="#3B0C79"/>
<path d="M165.051 147.555V153.456V159.356V165.257V171.163V177.063V182.964V188.864H170.947V182.964V177.063V171.163V165.257V159.356V153.456V147.555V141.655H165.051V147.555Z" fill="white"/>
<path d="M170.947 129.843V123.942V118.042V112.142V106.241V100.335V94.4347V88.5342V82.6338V76.7334H165.051V82.6338V88.5342V94.4347V100.335V106.241V112.142V118.042V123.942V129.843V135.743V141.655H170.947V135.743V129.843Z" fill="white"/>
<path d="M170.947 64.9216V59.0211V53.1207V47.2203V41.3199V35.4139V29.5134H165.051V35.4139V41.3199V47.2203V53.1207V59.0211V64.9216V70.8332V76.7336H170.947V70.8332V64.9216Z" fill="white"/>
<path d="M165.051 129.843V123.942V118.042V112.142V106.241V100.335V94.4347V88.5342V82.6338V76.7334H159.16V82.6338V88.5342H153.263V94.4347V100.335V106.241H147.372V112.142V118.042H141.475V123.942H135.579V129.843V135.743H129.688V141.655H135.579H141.475H147.372H153.263H159.16H165.051V135.743V129.843Z" fill="#B2FF00"/>
<path d="M165.05 64.9216V59.0211V53.1207V47.2203V41.3199V35.4139V29.5134H159.159H153.262H147.371H141.475H135.578H129.687H123.79H117.899H111.997H106.106H100.215H94.3181H88.427H82.5248H76.6337H70.7371H64.846H58.9438H53.0527V35.4139V41.3199V47.2203V53.1207V59.0211V64.9216V70.8332V76.7336H58.9438H64.846H70.7371H76.6337H82.5248H88.427H94.3181H100.215H106.106H111.997H117.899H123.79H129.687H135.578H141.475H147.371H153.262H159.159H165.05V70.8332V64.9216Z" fill="#E5FF00"/>
<path d="M135.578 135.743V129.843V123.942H141.475V118.042H147.371V112.142V106.241H153.262V100.335V94.4347V88.5342H159.159V82.6338V76.7334H153.262H147.371H141.475H135.578H129.687H123.79H117.899H111.997H106.106H100.215H94.3181H88.427H82.5248H76.6337H70.7371H64.846H58.9438H53.0527V82.6338V88.5342V94.4347V100.335V106.241V112.142V118.042V123.942V129.843V135.743V141.655H58.9438H64.846H70.7371H76.6337H82.5248H88.427H94.3181H100.215H106.106H111.997H117.899H123.79H129.687V135.743H135.578Z" fill="#E5FF00"/>
<path d="M82.5254 218.377H88.4276V212.477V206.576H82.5254V212.477V218.377Z" fill="#3B0C79"/>
<path d="M64.846 283.299H206.315V277.398H212.218V253.791V218.377V182.964V147.55V141.649H206.315V147.55V159.351H176.843V147.55V141.649H170.952V147.55V182.964V188.864H165.056V194.764H53.0527V200.665H82.5248V206.571H88.4214V218.372H82.5248V224.272H53.0527V230.173H165.05V236.073H170.947V253.78V259.68H165.05V265.581H53.0527V283.288H64.846V283.299ZM182.74 188.864V182.964H200.424V200.665H182.74V188.864Z" fill="#A2A0C2"/>
<path d="M64.846 265.586H70.7371H76.6337H82.5248H88.427H94.3181H100.215H106.106H111.997H117.899H123.79H129.687H135.578H141.475H147.371H153.262H159.159H165.05V259.686H159.159H153.262H147.371H141.475H135.578H129.687H123.79H117.899H111.997H106.106H100.215H94.3181H88.427H82.5248H76.6337H70.7371H64.846H58.9438H53.0527V265.586H58.9438H64.846Z" fill="#3B0C79"/>
<path d="M64.846 259.686H70.7371H76.6337H82.5248H88.427H94.3181H100.215H106.106H111.997H117.899H123.79H129.687H135.578H141.475H147.371H153.262H159.159H165.05V253.785V247.885V241.985V236.079H159.159H153.262H147.371H141.475H135.578H129.687H123.79H117.899H111.997H106.106H100.215H94.3181H88.427H82.5248H76.6337H70.7371H64.846H58.9438H53.0527V241.985V247.885V253.785V259.686H58.9438H64.846Z" fill="#4800FF"/>
<path d="M64.846 236.079H70.7371H76.6337H82.5248H88.427H94.3181H100.215H106.106H111.997H117.899H123.79H129.687H135.578H141.475H147.371H153.262H159.159H165.05V230.178H159.159H153.262H147.371H141.475H135.578H129.687H123.79H117.899H111.997H106.106H100.215H94.3181H88.427H82.5248H76.6337H70.7371H64.846H58.9438H53.0527V236.079H58.9438H64.846Z" fill="#3B0C79"/>
<path d="M64.846 224.278H70.7371H76.6337H82.5248V218.377H76.6337H70.7371H64.846H58.9438H53.0527V224.278H58.9438H64.846Z" fill="#3B0C79"/>
<path d="M64.846 218.377H70.7371H76.6337H82.5248V212.477V206.576H76.6337H70.7371H64.846H58.9438H53.0527V212.477V218.377H58.9438H64.846Z" fill="#FF0000"/>
<path d="M64.846 206.576H70.7371H76.6337H82.5248V200.665H76.6337H70.7371H64.846H58.9438H53.0527V206.576H58.9438H64.846Z" fill="#3B0C79"/>
<path d="M64.846 194.764H70.7371H76.6337H82.5248H88.427H94.3181H100.215H106.106H111.997H117.899H123.79H129.687H135.578H141.475H147.371H153.262H159.159H165.05V188.864H159.159H153.262H147.371H141.475H135.578H129.687H123.79H117.899H111.997H106.106H100.215H94.3181H88.427H82.5248H76.6337H70.7371H64.846H58.9438H53.0527V194.764H58.9438H64.846Z" fill="white"/>
<path d="M64.846 188.864H70.7371H76.6337H82.5248H88.427H94.3181H100.215H106.106H111.997H117.899H123.79H129.687H135.578H141.475H147.371H153.262H159.159H165.05V182.964V177.063V171.163V165.257V159.356V153.456V147.555V141.655H159.159H153.262H147.371H141.475H135.578H129.687H123.79V147.555H117.899V153.456H111.997H106.106V159.356H100.215V165.257H94.3181H88.427V171.163H82.5248V177.063H76.6337H70.7371H64.846V182.964H58.9438H53.0527V188.864H58.9438H64.846Z" fill="#B2FF00"/>
<path d="M64.846 182.964V177.063H70.7371H76.6337H82.5248V171.163H88.427V165.257H94.3181H100.215V159.356H106.106V153.456H111.997H117.899V147.555H123.79V141.655H117.899H111.997H106.106H100.215H94.3181H88.427H82.5248H76.6337H70.7371H64.846H58.9438H53.0527V147.555V153.456V159.356V165.257V171.163V177.063V182.964H58.9438H64.846Z" fill="#E5FF00"/>
<path d="M64.846 29.5132H70.7371H76.6337H82.5248H88.427H94.3181H100.215H106.106H111.997H117.899H123.79H129.687H135.578H141.475H147.371H153.262H159.159H165.05V23.6128H159.159H153.262H147.371H141.475H135.578H129.687H123.79H117.899H111.997H106.106H100.215H94.3181H88.427H82.5248H76.6337H70.7371H64.846H58.9438H53.0527V29.5132H58.9438H64.846Z" fill="white"/>
<path d="M64.846 11.812H70.7371H76.6337H82.5248H88.427H94.3181H100.215H106.106H111.997H117.899H123.79H129.687H135.578H141.475H147.371H153.262H159.159H165.05H170.947H176.838H182.74H188.631H194.533H200.424H206.315V5.91162H200.424H194.533H188.631H182.74H176.838H170.947H165.05H159.159H153.262H147.371H141.475H135.578H129.687H123.79H117.899H111.997H106.106H100.215H94.3181H88.427H82.5248H76.6337H70.7371H64.846H58.9438H53.0527V11.812H58.9438H64.846Z" fill="#4A1999"/>
<path d="M64.846 5.9116H70.7371H76.6337H82.5248H88.427H94.3181H100.215H106.106H111.997H117.899H123.79H129.687H135.578H141.475H147.371H153.262H159.159H165.05H170.947H176.838H182.74H188.631H194.533H200.424H206.315H212.212V0H206.315H200.424H194.533H188.631H182.74H176.838H170.947H165.05H159.159H153.262H147.371H141.475H135.578H129.687H123.79H117.899H111.997H106.106H100.215H94.3181H88.427H82.5248H76.6337H70.7371H64.846H58.9438H53.0527V5.9116H58.9438H64.846Z" fill="white"/>
<path d="M53.0532 182.964H47.1621V188.864H53.0532V182.964Z" fill="#B2FF00"/>
<path d="M41.2656 289.199V295.1H47.1623H53.0533V289.199H47.1623H41.2656Z" fill="white"/>
<path d="M41.265 283.299H35.374H29.4717H23.5807H17.684V277.398H11.793V283.299V289.199V295.099H17.684H23.5807H29.4717H35.374H41.265V289.199H47.1617H53.0527V283.299H47.1617H41.265Z" fill="#3B0C79"/>
<path d="M41.2659 259.686H35.3749H29.4727V265.586H35.3749H41.2659H47.1626H53.0537V259.686H47.1626H41.2659Z" fill="#3B0C79"/>
<path d="M41.2659 236.079H35.3749H29.4727V241.985V247.885V253.785V259.686H35.3749H41.2659H47.1626H53.0537V253.785V247.885V241.985V236.079H47.1626H41.2659Z" fill="#4800FF"/>
<path d="M41.2659 230.178H35.3749H29.4727V236.079H35.3749H41.2659H47.1626H53.0537V230.178H47.1626H41.2659Z" fill="#3B0C79"/>
<path d="M41.2659 218.377H35.3749H29.4727V224.278H35.3749H41.2659H47.1626H53.0537V218.377H47.1626H41.2659Z" fill="#3B0C79"/>
<path d="M41.2659 206.576H35.3749H29.4727V212.477V218.377H35.3749H41.2659H47.1626H53.0537V212.477V206.576H47.1626H41.2659Z" fill="#FF0000"/>
<path d="M41.2659 200.665H35.3749H29.4727V206.576H35.3749H41.2659H47.1626H53.0537V200.665H47.1626H41.2659Z" fill="#3B0C79"/>
<path d="M41.265 194.764H35.374H29.4717V188.864H23.5807V182.964V177.063V171.163V165.257V159.356V153.456V147.555V141.655H17.684H11.793V147.555V153.456V159.356V165.257V171.163V177.063V182.964V188.864V194.764V200.665V206.576V212.477V218.377V224.278V230.178V236.079V241.985V247.885V253.785V259.686V265.586V271.498V277.398H17.684V283.299H23.5807H29.4717H35.374H41.265H47.1617H53.0527V277.398V271.498V265.586H47.1617H41.265H35.374H29.4717V259.686H23.5807V253.785V247.885V241.985V236.079H29.4717V230.178H35.374H41.265H47.1617H53.0527V224.278H47.1617H41.265H35.374H29.4717V218.377H23.5807V212.477V206.576H29.4717V200.665H35.374H41.265H47.1617H53.0527V194.764H47.1617H41.265Z" fill="#A2A0C2"/>
<path d="M41.2659 188.864H35.3749H29.4727V194.764H35.3749H41.2659H47.1626H53.0537V188.864H47.1626H41.2659Z" fill="white"/>
<path d="M41.2659 141.655H35.3749H29.4727V147.555V153.456V159.356V165.257V171.163V177.063V182.964V188.864H35.3749H41.2659H47.1626V182.964H53.0537V177.063V171.163V165.257V159.356V153.456V147.555V141.655H47.1626H41.2659Z" fill="#E5FF00"/>
<path d="M41.2659 76.7334H35.3749H29.4727V82.6338V88.5342V94.4347V100.335V106.241V112.142V118.042V123.942V129.843V135.743V141.655H35.3749H41.2659H47.1626H53.0537V135.743V129.843V123.942V118.042V112.142V106.241V100.335V94.4347V88.5342V82.6338V76.7334H47.1626H41.2659Z" fill="#E5FF00"/>
<path d="M41.2659 29.5134H35.3749H29.4727V35.4139V41.3199V47.2203V53.1207V59.0211V64.9216V70.8332V76.7336H35.3749H41.2659H47.1626H53.0537V70.8332V64.9216V59.0211V53.1207V47.2203V41.3199V35.4139V29.5134H47.1626H41.2659Z" fill="#E5FF00"/>
<path d="M41.2659 23.6128H35.3749H29.4727V29.5132H35.3749H41.2659H47.1626H53.0537V23.6128H47.1626H41.2659Z" fill="white"/>
<path d="M41.265 11.812H35.374H29.4717H23.5807H17.684V17.7124H11.793V23.6129V29.5133V35.4137V41.3197V47.2202V53.1206V59.021V64.9214V70.833V76.7335H17.684H23.5807V70.833V64.9214V59.021V53.1206V47.2202V41.3197V35.4137V29.5133H29.4717V23.6129H35.374H41.265H47.1617H53.0527V17.7124V11.812H47.1617H41.265Z" fill="#A2A0C2"/>
<path d="M41.2649 5.91162H35.3738H29.4716H23.5806H17.6839H11.7928V11.812H5.89062V17.7125V23.6129V29.5133V35.4138V41.3198V47.2202V53.1206V59.021V64.9215V70.8331V76.7335H11.7928V70.8331V64.9215V59.021V53.1206V47.2202V41.3198V35.4138V29.5133V23.6129V17.7125H17.6839V11.812H23.5806H29.4716H35.3738H41.2649H47.1616H53.0526V5.91162H47.1616H41.2649Z" fill="#4A1999"/>
<path d="M41.265 0H35.374H29.4717H23.5807H17.684H11.793V5.9116H17.684H23.5807H29.4717H35.374H41.265H47.1617H53.0527V0H47.1617H41.265Z" fill="white"/>
<path d="M29.4717 295.1H23.5807H17.684H11.793V301H17.684H23.5807H29.4717H35.374H41.265V295.1H35.374H29.4717Z" fill="white"/>
<path d="M29.4711 253.785V247.885V241.985V236.079H23.5801V241.985V247.885V253.785V259.686H29.4711V253.785Z" fill="#3B0C79"/>
<path d="M29.4711 212.477V206.576H23.5801V212.477V218.377H29.4711V212.477Z" fill="#3B0C79"/>
<path d="M23.5801 147.555V153.456V159.356V165.257V171.163V177.063V182.964V188.864H29.4711V182.964V177.063V171.163V165.257V159.356V153.456V147.555V141.655H23.5801V147.555Z" fill="white"/>
<path d="M29.4711 129.843V123.942V118.042V112.142V106.241V100.335V94.4347V88.5342V82.6338V76.7334H23.5801V82.6338V88.5342V94.4347V100.335V106.241V112.142V118.042V123.942V129.843V135.743V141.655H29.4711V135.743V129.843Z" fill="white"/>
<path d="M29.4711 64.9216V59.0211V53.1207V47.2203V41.3199V35.4139V29.5134H23.5801V35.4139V41.3199V47.2203V53.1207V59.0211V64.9216V70.8332V76.7336H29.4711V70.8332V64.9216Z" fill="white"/>
<path d="M23.5807 129.843V123.942V118.042V112.142V106.241V100.335V94.4347V88.5342V82.6338V76.7334H17.684H11.793V82.6338V88.5342V94.4347V100.335V106.241V112.142V118.042V123.942V129.843V135.743V141.655H17.684H23.5807V135.743V129.843Z" fill="#A2A0C2"/>
<path d="M11.7928 289.199H5.89062V295.1H11.7928V289.199Z" fill="white"/>
<path d="M11.7928 289.199V283.299V277.398V271.498V265.586V259.686V253.785V247.885V241.985V236.079V230.178V224.278V218.377V212.477V206.576V200.665V194.764V188.864V182.964V177.063V171.163V165.257V159.356V153.456V147.555V141.655H5.89062V147.555V153.456V159.356V165.257V171.163V177.063V182.964V188.864V194.764V200.665V206.576V212.477V218.377V224.278V230.178V236.079V241.985V247.885V253.785V259.686V265.586V271.498V277.398V283.299V289.199H11.7928Z" fill="#4A1999"/>
<path d="M11.7928 129.843V123.942V118.042V112.142V106.241V100.335V94.4347V88.5342V82.6338V76.7334H5.89062V82.6338V88.5342V94.4347V100.335V106.241V112.142V118.042V123.942V129.843V135.743V141.655H11.7928V135.743V129.843Z" fill="#4A1999"/>
<path d="M11.7928 5.91162H5.89062V11.812H11.7928V5.91162Z" fill="white"/>
<path d="M5.89107 283.299V277.398V271.498V265.586V259.686V253.785V247.885V241.985V236.079V230.178V224.278V218.377V212.477V206.576V200.665V194.764V188.864V182.964V177.063V171.163V165.257V159.356V153.456V147.555V141.655H0V147.555V153.456V159.356V165.257V171.163V177.063V182.964V188.864V194.764V200.665V206.576V212.477V218.377V224.278V230.178V236.079V241.985V247.885V253.785V259.686V265.586V271.498V277.398V283.299V289.199H5.89107V283.299Z" fill="white"/>
<path d="M5.89107 129.843V123.942V118.042V112.142V106.241V100.335V94.4347V88.5342V82.6338V76.7334H0V82.6338V88.5342V94.4347V100.335V106.241V112.142V118.042V123.942V129.843V135.743V141.655H5.89107V135.743V129.843Z" fill="white"/>
<path d="M5.89107 64.9214V59.021V53.1206V47.2202V41.3197V35.4137V29.5133V23.6129V17.7124V11.812H0V17.7124V23.6129V29.5133V35.4137V41.3197V47.2202V53.1206V59.021V64.9214V70.833V76.7335H5.89107V70.833V64.9214Z" fill="white"/>
</g>
<defs>
<clipPath id="clip0_368_9194">
<rect width="224" height="301" fill="white"/>
</clipPath>
</defs>
</svg>
