<svg width="183" height="716" viewBox="0 0 183 716" fill="none" xmlns="http://www.w3.org/2000/svg">
<path d="M180 715.65L-0.310005 668.72V638.833L180 592.15V614.627L132.082 626.483V681.07L180 692.926V715.65ZM113.31 676.624V631.176L57.735 645.008C47.1963 647.643 38.3867 649.701 31.306 651.183C24.2253 652.665 19.6147 653.571 17.474 653.9C19.6147 654.229 24.2253 655.135 31.306 656.617C38.3867 658.099 47.114 660.157 57.488 662.792L113.31 676.624ZM180 556.925H-0.310005V505.796C-0.310005 489.33 3.80666 476.486 12.04 467.264C20.2733 457.878 31.7177 453.185 46.373 453.185C54.6063 453.185 61.7693 454.914 67.862 458.372C73.9547 461.83 78.6477 466.77 81.941 473.192C85.2343 479.45 86.7987 487.024 86.634 495.916H82.929C82.7643 486.366 84.5757 478.132 88.363 471.216C92.1503 464.136 97.5843 458.702 104.665 454.914C111.746 450.962 120.144 448.986 129.859 448.986C140.068 448.986 148.96 451.127 156.535 455.408C164.11 459.69 169.955 465.782 174.072 473.686C178.024 481.59 180 491.059 180 502.091V556.925ZM159.993 535.189V504.561C159.993 494.187 157.276 486.036 151.842 480.108C146.243 474.016 138.669 470.969 129.118 470.969C119.238 470.969 111.252 474.016 105.159 480.108C98.9017 486.036 95.773 494.187 95.773 504.561V535.189H159.993ZM76.507 535.189V506.043C76.507 496.493 73.9547 489 68.85 483.566C63.7453 477.968 56.8293 475.168 48.102 475.168C39.3747 475.168 32.4587 477.885 27.354 483.319C22.2493 488.753 19.697 496.246 19.697 505.796V535.189H76.507ZM182.47 357.693C182.47 368.561 180.412 377.947 176.295 385.851C172.178 393.59 166.25 399.601 158.511 403.882C150.607 407.999 141.303 410.057 130.6 410.057H49.09C38.222 410.057 28.9183 407.999 21.179 403.882C13.4397 399.601 7.51165 393.59 3.39499 385.851C-0.721671 377.947 -2.78 368.561 -2.78 357.693C-2.78 346.825 -0.721671 337.521 3.39499 329.782C7.51165 321.878 13.4397 315.868 21.179 311.751C28.9183 307.47 38.1397 305.329 48.843 305.329H130.6C141.303 305.329 150.607 307.47 158.511 311.751C166.25 315.868 172.178 321.878 176.295 329.782C180.412 337.521 182.47 346.825 182.47 357.693ZM162.463 357.693C162.463 347.978 159.746 340.568 154.312 335.463C148.713 330.194 140.809 327.559 130.6 327.559H49.09C38.8807 327.559 31.059 330.194 25.625 335.463C20.0263 340.568 17.227 347.978 17.227 357.693C17.227 367.244 20.0263 374.654 25.625 379.923C31.059 385.192 38.8807 387.827 49.09 387.827H130.6C140.809 387.827 148.713 385.192 154.312 379.923C159.746 374.654 162.463 367.244 162.463 357.693ZM182.47 209.589C182.47 226.385 177.859 239.229 168.638 248.121C159.252 257.013 146.573 261.459 130.6 261.459H-0.310005V239.229H130.6C140.48 239.229 148.302 236.842 154.065 232.066C159.828 227.126 162.71 219.634 162.71 209.589C162.71 199.709 159.828 192.299 154.065 187.359C148.302 182.419 140.48 179.949 130.6 179.949H-0.310005V157.719H130.6C146.737 157.719 159.417 162.165 168.638 171.057C177.859 179.785 182.47 192.629 182.47 209.589ZM180 72.6009H19.697V122.001H-0.557002V0.970933H19.697V50.3709H180V72.6009Z" fill="white"/>
</svg>
