<svg width="183" height="553" viewBox="0 0 183 553" fill="none" xmlns="http://www.w3.org/2000/svg">
<path d="M180 552.228H-0.310005V523.082L57.982 504.31C63.2513 502.499 68.5207 500.852 73.79 499.37C78.8947 497.888 82.8467 496.818 85.646 496.159C82.8467 495.336 78.8947 494.265 73.79 492.948C68.5207 491.631 63.169 490.149 57.735 488.502L-0.310005 470.718L-0.310005 441.572H180V463.308H114.545C107.3 463.308 99.0663 463.061 89.845 462.567C80.6237 462.073 71.2377 461.414 61.687 460.591C51.9717 459.768 42.7503 458.944 34.023 458.121C25.131 457.133 17.3917 456.31 10.805 455.651L100.96 484.797V508.262L10.805 537.655C17.227 536.832 24.7193 536.008 33.282 535.185C41.68 534.362 50.6543 533.621 60.205 532.962C69.591 532.303 78.977 531.727 88.363 531.233C97.749 530.739 106.476 530.492 114.545 530.492H180V552.228ZM180 398.196H-0.310005V294.456H19.944V376.213H75.766L75.766 303.101H95.773L95.773 376.213H159.746L159.746 294.456H180L180 398.196ZM180 252.563H-0.310005V222.923L154.065 167.842C149.948 168.171 144.926 168.583 138.998 169.077C132.905 169.406 126.566 169.736 119.979 170.065C113.228 170.23 106.888 170.312 100.96 170.312H-0.310005V148.823H180V178.463L25.625 233.297C29.577 232.968 34.5993 232.638 40.692 232.309C46.62 231.98 52.9597 231.733 59.711 231.568C66.2977 231.239 72.6373 231.074 78.73 231.074H180V252.563ZM182.47 52.5895C182.47 69.3854 177.859 82.2295 168.638 91.1215C159.252 100.013 146.573 104.459 130.6 104.459H-0.310005V82.2295H130.6C140.48 82.2295 148.302 79.8418 154.065 75.0665C159.828 70.1265 162.71 62.6341 162.71 52.5895C162.71 42.7094 159.828 35.2994 154.065 30.3594C148.302 25.4194 140.48 22.9494 130.6 22.9494H-0.310005V0.719441H130.6C146.737 0.719441 159.417 5.16544 168.638 14.0574C177.859 22.7848 182.47 35.6288 182.47 52.5895Z" fill="url(#paint0_linear_4_62)"/>
<defs>
<linearGradient id="paint0_linear_4_62" x1="99.3948" y1="-51" x2="99.3948" y2="571" gradientUnits="userSpaceOnUse">
<stop stop-color="#F8CAA5"/>
<stop offset="1" stop-color="#F9CFAE"/>
</linearGradient>
</defs>
</svg>
