<svg width="183" height="553" viewBox="0 0 183 553" fill="none" xmlns="http://www.w3.org/2000/svg">
<path d="M180 552.77H-0.310005V523.13L154.065 468.049C149.948 468.378 144.926 468.79 138.998 469.284C132.905 469.613 126.566 469.943 119.979 470.272C113.228 470.437 106.888 470.519 100.96 470.519H-0.310005L-0.310005 449.03H180V478.67L25.625 533.504C29.577 533.175 34.5993 532.845 40.692 532.516C46.62 532.187 52.9597 531.94 59.711 531.775C66.2977 531.446 72.6373 531.281 78.73 531.281H180V552.77ZM180 402.196H-0.310005V298.456H19.944V380.213H75.766L75.766 307.101H95.773L95.773 380.213H159.746L159.746 298.456H180L180 402.196ZM180 251.87L-0.310005 272.618V251.376L133.07 237.791C136.693 237.462 140.48 237.132 144.432 236.803C148.219 236.474 151.842 236.227 155.3 236.062C158.758 235.733 161.64 235.568 163.945 235.568C161.64 235.239 158.758 234.992 155.3 234.827C151.842 234.498 148.219 234.168 144.432 233.839C140.48 233.345 136.693 232.851 133.07 232.357L-0.310005 215.561V192.59L133.07 177.276C136.693 176.782 140.48 176.37 144.432 176.041C148.219 175.547 151.842 175.135 155.3 174.806C158.758 174.312 161.64 173.983 163.945 173.818C161.64 173.653 158.758 173.489 155.3 173.324C151.842 172.995 148.219 172.665 144.432 172.336C140.48 171.842 136.693 171.43 133.07 171.101L-0.310005 157.022V136.768L180 158.01V185.921L44.15 201.235C40.3627 201.564 36.6577 201.976 33.035 202.47C29.4123 202.799 26.0367 203.129 22.908 203.458C19.7793 203.787 17.227 204.034 15.251 204.199C17.227 204.364 19.7793 204.693 22.908 205.187C26.0367 205.516 29.4123 205.846 33.035 206.175C36.6577 206.504 40.3627 206.916 44.15 207.41L180 223.959V251.87ZM182.47 55.6014C182.47 67.4575 180.494 77.6668 176.542 86.2295C172.59 94.6275 166.909 101.132 159.499 105.742C152.089 110.353 143.279 112.741 133.07 112.905V90.6755C142.127 90.6755 149.29 87.6291 154.559 81.5364C159.828 75.2791 162.463 66.6341 162.463 55.6014C162.463 45.2274 159.911 37.1588 154.806 31.3955C149.701 25.4674 142.621 22.5034 133.564 22.5034C126.319 22.5034 119.979 24.4794 114.545 28.4314C109.111 32.2188 105.324 37.7351 103.183 44.9805L95.526 69.4335C91.7387 81.7835 85.399 91.3341 76.507 98.0855C67.615 104.672 57.1587 107.965 45.138 107.965C35.4227 107.965 27.0247 105.825 19.944 101.543C12.6987 97.0975 7.09999 90.9225 3.14799 83.0185C-0.968678 75.1145 -3.02701 65.8108 -3.02701 55.1074C-3.02701 39.2994 1.41899 26.6201 10.311 17.0695C19.0383 7.51878 30.7297 2.66111 45.385 2.49644V24.7264C36.493 24.7264 29.577 27.4434 24.637 32.8774C19.5323 38.1468 16.98 45.6391 16.98 55.3545C16.98 64.9051 19.2853 72.3975 23.896 77.8314C28.5067 83.1008 34.9287 85.7355 43.162 85.7355C50.572 85.7355 56.994 83.7595 62.428 79.8074C67.862 75.8555 71.7317 70.1745 74.037 62.7645L81.941 38.0644C85.7283 26.0438 92.1503 16.7401 101.207 10.1534C110.264 3.56678 120.885 0.273454 133.07 0.273454C142.95 0.273454 151.595 2.57879 159.005 7.18945C166.415 11.8001 172.178 18.3044 176.295 26.7024C180.412 34.9358 182.47 44.5688 182.47 55.6014Z" fill="white"/>
</svg>
