<svg width="162" height="46" viewBox="0 0 162 46" fill="none" xmlns="http://www.w3.org/2000/svg">
<path d="M25.8842 39.4544L27.2415 34.2126L18.8799 37.0652L25.8842 39.4544Z" fill="black"/>
<path d="M17.4989 37.5359L16.3184 37.9398L17.934 44.2032H24.6532L25.66 40.3201L17.5004 37.5359H17.4989Z" fill="black"/>
<path d="M14.9453 32.6104L16.0961 37.074L22.061 35.0382L14.9453 32.6104Z" fill="black"/>
<path d="M0.640625 43.2884V44.2031H9.50855L9.44619 40.283L0.640625 43.2884Z" fill="black"/>
<path d="M9.29472 30.683L0.640625 27.731V42.3455L9.43134 39.3475L9.29472 30.683Z" fill="black"/>
<path d="M33.1709 41.9416L39.7996 44.2031H42.0017V29.1772L33.3253 32.1367L33.1709 41.9416Z" fill="black"/>
<path d="M33.1348 44.2032H37.0401L33.1556 42.8787L33.1348 44.2032Z" fill="black"/>
<path d="M21.3493 29.9939L13.0872 0.859863H0.640625V26.7895L9.27987 29.737L8.95765 9.39665L14.679 31.5798L23.4386 34.569L27.5087 33.1806L33.686 9.34171L33.34 31.1908L42.0015 28.2358V0.859863H29.6099L21.3493 29.9939Z" fill="black"/>
<path d="M74.2727 0.75H58.687L47.8857 37.4824L81.7419 25.9327L74.2727 0.75ZM60.2284 27.6819L66.2868 6.69858L72.2904 27.6819H60.2284Z" fill="black"/>
<path d="M81.9944 26.7866L64.8926 32.6223L73.171 35.4467H74.4926L74.6381 35.9471L85.8462 39.7707L81.9944 26.7866Z" fill="black"/>
<path d="M74.9395 36.991L76.9797 44.0384L77.0272 44.2032H87.1603L86.1565 40.8176L74.9395 36.991Z" fill="black"/>
<path d="M54.2061 36.2693L57.4669 37.3815L58.0267 35.4466H70.4139L63.5135 33.093L54.2061 36.2693Z" fill="black"/>
<path d="M47.5792 38.5293L45.9102 44.2032H55.4938L57.2193 38.2383L52.8254 36.74L47.5792 38.5293Z" fill="black"/>
<path d="M93.6494 22.8098L96.8123 28.7272V35.001L106.616 31.657V28.6173L108.031 25.9801L96.196 21.9426L93.6494 22.8098Z" fill="black"/>
<path d="M96.8125 44.203H106.616V32.5984L96.8125 35.9424V44.203Z" fill="black"/>
<path d="M108.459 25.1844L113.337 16.0938L97.5762 21.4706L108.459 25.1844Z" fill="black"/>
<path d="M101.714 18.5393L93.0127 0.804932H81.8877L93.225 22.014L113.954 14.9413L121.541 0.804932H110.416L101.714 18.5393Z" fill="black"/>
<path d="M128.356 25.1814L134.851 27.3969C134.825 26.8994 134.813 26.3872 134.813 25.8645V22.9778L128.356 25.1814Z" fill="black"/>
<path d="M134.813 0.804932H125.01V25.3803L134.813 22.0363V0.804932Z" fill="black"/>
<path d="M141.312 45.25H144.782C155.118 45.25 159.581 39.8434 160.907 32.2673L131.079 42.4435C133.537 44.2254 136.872 45.25 141.312 45.25Z" fill="black"/>
<path d="M151.556 0.804932V7.61031L161.359 10.9543V0.804932H151.556Z" fill="black"/>
<path d="M149.9 33.4732C148.773 35.1868 146.964 36.2173 144.176 36.2173H141.917C137.214 36.2173 135.363 33.0039 134.923 28.3621L126.977 25.6521L125.01 26.3233V26.5802C125.01 32.894 126.367 38.4179 130.25 41.7842L152.258 34.2765L149.9 33.4732Z" fill="black"/>
<path d="M151.555 17.2653V25.8645C151.555 28.5076 151.239 30.8805 150.35 32.6847L153.637 33.8058L161.06 31.274C161.267 29.7757 161.359 28.2047 161.359 26.5802V17.4762L156.15 15.6987L151.555 17.2653Z" fill="black"/>
<path d="M161.359 16.5346V13.9211L157.531 15.2279L161.359 16.5346Z" fill="black"/>
<path d="M151.556 16.3238L161.359 12.9798V11.8973L151.556 8.55176V16.3238Z" fill="black"/>
</svg>
