<svg width="418" height="107" viewBox="0 0 418 107" fill="none" xmlns="http://www.w3.org/2000/svg">
<g clip-path="url(#clip0_452_2454)">
<path d="M23.3445 0.51416C10.4731 0.51416 0 11.0316 0 23.9613V83.0637C0 95.9935 10.4731 106.514 23.3445 106.514C36.2158 106.514 46.689 95.9935 46.689 83.0637V23.9613C46.689 11.0316 36.2158 0.51416 23.3445 0.51416ZM46.3653 83.0637C46.3653 95.8147 36.0378 106.189 23.3445 106.189C10.6511 106.189 0.323645 95.8147 0.323645 83.0637V23.9613C0.323645 11.2104 10.6511 0.839274 23.3445 0.839274C36.0378 0.839274 46.3653 11.2104 46.3653 23.9613V83.0637Z" fill="white"/>
<path d="M23.344 2.46484C11.5439 2.46484 1.94141 12.1077 1.94141 23.9613V83.0637C1.94141 94.9206 11.5439 104.563 23.344 104.563C35.1441 104.563 44.7466 94.9206 44.7466 83.0637V23.9613C44.7466 12.1077 35.1441 2.46484 23.344 2.46484ZM44.423 83.0637C44.423 94.7385 34.9661 104.238 23.344 104.238C11.7219 104.238 2.26505 94.7385 2.26505 83.0637V23.9613C2.26505 12.2865 11.7219 2.78996 23.344 2.78996C34.9661 2.78996 44.423 12.2865 44.423 23.9613V83.0637Z" fill="white"/>
<path d="M23.3436 4.41553C12.6147 4.41553 3.88281 13.1838 3.88281 23.9613V83.0637C3.88281 93.8445 12.6147 102.613 23.3436 102.613C34.0724 102.613 42.8043 93.8445 42.8043 83.0637V23.9613C42.8043 13.1838 34.0756 4.41553 23.3436 4.41553ZM42.4807 83.0637C42.4807 93.6624 33.8976 102.288 23.3436 102.288C12.7895 102.288 4.20646 93.6624 4.20646 83.0637V23.9613C4.20646 13.3627 12.7927 4.74064 23.3436 4.74064C33.8944 4.74064 42.4807 13.3627 42.4807 23.9613V83.0637Z" fill="white"/>
<path d="M28.2555 32.3071H18.9766V33.6921H28.2555V32.3071Z" fill="white"/>
<path d="M28.2555 36.8943H18.9766V38.7897H28.2555V36.8943Z" fill="white"/>
<path d="M23.3431 6.36621C13.6694 6.36621 5.82422 14.2437 5.82422 23.9614V83.0637C5.82422 92.7846 13.6694 100.662 23.3431 100.662C28.1816 100.662 32.5605 98.6919 35.7322 95.5091C38.9007 92.323 40.862 87.9242 40.862 83.0637V23.9614C40.862 14.2437 33.0201 6.36621 23.3431 6.36621ZM15.786 38.9946V28.7763H31.418V45.6659C31.4051 46.3454 31.1656 46.9306 30.6963 47.428C30.2303 47.9255 29.6574 48.1921 28.981 48.2343H25.7543L24.5762 44.7881H27.722C27.8579 44.7751 27.9809 44.7166 28.0877 44.6126C28.1978 44.5118 28.2528 44.3785 28.2528 44.2159V41.9336H18.6276C18.1551 44.3102 17.2068 46.5145 15.786 48.5399L13.4104 45.6854C14.9931 43.7413 15.786 41.511 15.786 38.9946ZM23.4402 66.5902H19.9481V75.5016H17.0029V66.5902H13.2875V63.3651H17.0029V59.35H13.5529V56.2679H23.136V59.35H19.9481V63.3651H23.4402V66.5902ZM23.5826 57.1262H26.5245V70.7289H23.5826V57.1262ZM31.541 71.7498C31.4731 72.7024 31.0944 73.5184 30.405 74.2076C29.7124 74.8936 28.8936 75.2578 27.9453 75.2968H25.4694L24.4532 72.1172H27.5828C27.8515 72.1009 28.0877 71.9904 28.2916 71.779C28.4955 71.5677 28.6088 71.3206 28.6379 71.0345V55.7184H31.541V71.7498Z" fill="white"/>
<path d="M122.727 89.54L125.685 78.0635L107.461 84.3089L122.727 89.54Z" fill="white"/>
<path d="M104.448 85.3396L101.875 86.2239L105.396 99.9372H120.041L122.235 91.4355L104.451 85.3396H104.448Z" fill="white"/>
<path d="M98.8828 74.5554L101.391 84.3283L114.392 79.871L98.8828 74.5554Z" fill="white"/>
<path d="M67.707 97.9343V99.937H87.0351L86.8992 91.354L67.707 97.9343Z" fill="white"/>
<path d="M86.569 70.3356L67.707 63.8723V95.87L86.8668 89.3059L86.569 70.3356Z" fill="white"/>
<path d="M138.605 94.9856L153.053 99.937H157.853V67.0388L138.942 73.5183L138.605 94.9856Z" fill="white"/>
<path d="M138.531 99.9371H147.043L138.577 97.0371L138.531 99.9371Z" fill="white"/>
<path d="M112.843 68.8271L94.8349 5.03979H67.707V61.8111L86.5367 68.2646L85.8344 23.7306L98.3044 72.2993L117.396 78.8438L126.267 75.804L139.731 23.6103L138.977 71.4475L157.855 64.9777V5.03979H130.847L112.843 68.8271Z" fill="white"/>
<path d="M228.191 4.79907H194.222L170.68 85.2224L244.471 59.9351L228.191 4.79907ZM197.581 63.7649L210.786 17.8231L223.871 63.7649H197.581Z" fill="white"/>
<path d="M245.02 61.8044L207.746 74.5814L225.789 80.7651H228.67L228.987 81.8607L253.416 90.2324L245.02 61.8044Z" fill="white"/>
<path d="M229.645 84.1462L234.091 99.5761L234.195 99.937H256.28L254.093 92.5244L229.645 84.1462Z" fill="white"/>
<path d="M184.453 82.5662L191.56 85.0013L192.78 80.7651H219.779L204.739 75.6121L184.453 82.5662Z" fill="white"/>
<path d="M170.009 87.5145L166.371 99.9371H187.259L191.02 86.8773L181.443 83.5969L170.009 87.5145Z" fill="white"/>
<path d="M270.426 53.0981L277.319 66.0539V79.7899L298.686 72.4684V65.8133L301.771 60.0393L275.976 51.1995L270.426 53.0981Z" fill="white"/>
<path d="M277.316 99.9372H298.683V74.5295L277.316 81.8511V99.9372Z" fill="white"/>
<path d="M302.7 58.2965L313.332 38.3931L278.98 50.1654L302.7 58.2965Z" fill="white"/>
<path d="M288.002 43.7477L269.037 4.91943H244.789L269.499 51.3554L314.68 35.8702L331.215 4.91943H306.968L288.002 43.7477Z" fill="white"/>
<path d="M346.07 58.29L360.227 63.1407C360.168 62.0516 360.142 60.9299 360.142 59.7855V53.4653L346.07 58.29Z" fill="white"/>
<path d="M360.14 4.91943H338.773V58.7257L360.14 51.4042V4.91943Z" fill="white"/>
<path d="M374.306 102.229H381.87C404.399 102.229 414.124 90.3917 417.014 73.8044L352.004 96.0845C357.36 99.9858 364.629 102.229 374.306 102.229Z" fill="white"/>
<path d="M396.633 4.91943V19.8194L418 27.1409V4.91943H396.633Z" fill="white"/>
<path d="M393.023 76.4445C390.566 80.1963 386.624 82.4526 380.546 82.4526H375.624C365.374 82.4526 361.338 75.4172 360.38 65.2541L343.062 59.3208L338.773 60.7903V61.3528C338.773 75.1766 341.732 87.2708 350.195 94.6411L398.162 78.2034L393.023 76.4445Z" fill="white"/>
<path d="M396.632 40.9583V59.7856C396.632 65.5726 395.943 70.7679 394.004 74.718L401.169 77.1727L417.348 71.6295C417.798 68.3491 417.999 64.9094 417.999 61.3526V41.4199L406.645 37.5283L396.632 40.9583Z" fill="white"/>
<path d="M418 39.3587V33.6367L409.656 36.4977L418 39.3587Z" fill="white"/>
<path d="M396.633 38.8971L418 31.5755V29.2054L396.633 21.8806V38.8971Z" fill="white"/>
</g>
<defs>
<clipPath id="clip0_452_2454">
<rect width="418" height="106" fill="white" transform="translate(0 0.51416)"/>
</clipPath>
</defs>
</svg>
