<svg width="48" height="49" viewBox="0 0 48 49" fill="none" xmlns="http://www.w3.org/2000/svg">
<g id="instagram-logo 1" clip-path="url(#clip0_452_2424)">
<g id="&#227;&#131;&#172;&#227;&#130;&#164;&#227;&#131;&#164;&#227;&#131;&#188;_1">
<g id="Group">
<path id="Vector" d="M24 48.5142C37.2534 48.5142 48 37.7676 48 24.5142C48 11.2607 37.2534 0.51416 24 0.51416C10.7466 0.51416 0 11.2575 0 24.5142C0 37.7708 10.7434 48.5142 24 48.5142Z" fill="white"/>
<path id="Vector_2" d="M24.0072 17.2035C22.5628 17.2035 21.1503 17.633 19.9478 18.4347C18.7452 19.2364 17.8099 20.3785 17.2564 21.7115C16.7028 23.0476 16.5597 24.5142 16.8396 25.9331C17.1227 27.3488 17.8163 28.6532 18.8375 29.6744C19.8587 30.6956 21.1599 31.3923 22.5787 31.6723C23.9944 31.9554 25.4642 31.809 26.8004 31.2555C28.1365 30.7019 29.2755 29.7666 30.0771 28.5641C30.8788 27.3615 31.3083 25.949 31.3083 24.5047C31.3083 23.5439 31.1206 22.5959 30.7548 21.7083C30.3889 20.8207 29.8513 20.0158 29.1705 19.3382C28.4928 18.6606 27.6848 18.1229 26.8004 17.7539C25.9128 17.3881 24.9616 17.2004 24.004 17.2004L24.0072 17.2035ZM24.0072 29.2576C23.0687 29.2576 22.1493 28.9777 21.3698 28.4559C20.5904 27.9342 19.9796 27.1929 19.6201 26.3244C19.2606 25.4559 19.1652 24.5015 19.3497 23.5821C19.5342 22.6595 19.986 21.8133 20.6508 21.1516C21.3157 20.4867 22.162 20.0349 23.0814 19.8504C24.004 19.6659 24.9584 19.7613 25.8237 20.1208C26.6922 20.4803 27.4335 21.0879 27.9552 21.8706C28.4769 22.65 28.7569 23.5694 28.7569 24.5079C28.7569 25.7677 28.2511 26.9734 27.3635 27.861C26.4727 28.7518 25.267 29.2513 24.0103 29.2544L24.0072 29.2576ZM33.3062 16.9045C33.3062 17.2417 33.2076 17.5726 33.0199 17.8525C32.8322 18.1325 32.565 18.352 32.2564 18.4793C31.9446 18.6097 31.601 18.6415 31.2702 18.5747C30.9393 18.5079 30.6371 18.3456 30.3985 18.107C30.1599 17.8684 29.9976 17.563 29.934 17.2353C29.8704 16.9077 29.9022 16.5609 30.0326 16.2491C30.163 15.9374 30.3794 15.6733 30.6625 15.4856C30.9425 15.2979 31.2733 15.1993 31.6106 15.1993C31.8332 15.1993 32.0559 15.2438 32.2627 15.3297C32.4695 15.4156 32.6572 15.5397 32.8163 15.6988C32.9753 15.8578 33.0994 16.0455 33.1853 16.2523C33.2712 16.4591 33.3126 16.6818 33.3126 16.9045H33.3062ZM38.1482 18.6351C38.1959 16.4209 37.3688 14.2767 35.8481 12.6638C34.2352 11.1463 32.0941 10.3159 29.8799 10.3541C27.5289 10.2205 20.4759 10.2205 18.1249 10.3541C15.9138 10.3128 13.7728 11.1399 12.1599 12.6574C10.6392 14.2672 9.80885 16.4114 9.85021 18.6288C9.7166 20.9798 9.7166 28.0328 9.85021 30.3838C9.80567 32.6012 10.636 34.7454 12.1599 36.3552C13.7728 37.8695 15.917 38.6966 18.1312 38.6553C20.4822 38.7889 27.5353 38.7889 29.8863 38.6553C32.1005 38.703 34.2447 37.8759 35.8545 36.3552C37.372 34.7422 38.1959 32.598 38.1546 30.3838C38.2882 28.0328 38.2882 20.9861 38.1546 18.6351H38.1482ZM35.1068 32.9066C34.8651 33.5174 34.5024 34.0742 34.0379 34.5418C33.5734 35.0063 33.0199 35.3721 32.4059 35.6171C30.5321 36.3679 26.0782 36.1897 24.0072 36.1897C21.9361 36.1897 17.4791 36.3552 15.6084 35.6171C14.9944 35.3753 14.4377 35.0095 13.9732 34.545C13.5087 34.0773 13.1429 33.5206 12.9011 32.9098C12.1503 31.036 12.3285 26.5821 12.3285 24.5111C12.3285 22.44 12.163 17.983 12.9011 16.1123C13.1429 15.4983 13.5087 14.9448 13.9732 14.4771C14.4377 14.0127 14.9944 13.6468 15.6084 13.405C17.4822 12.6542 21.9361 12.8324 24.0072 12.8324C26.0782 12.8324 30.5353 12.6669 32.4059 13.405C33.0167 13.6468 33.5734 14.0127 34.0379 14.4803C34.5024 14.9448 34.8651 15.5015 35.1068 16.1123C35.8576 17.9861 35.6795 22.44 35.6795 24.5111C35.6795 26.5821 35.8576 31.0392 35.1068 32.9098V32.9066Z" fill="black"/>
</g>
</g>
</g>
<defs>
<clipPath id="clip0_452_2424">
<rect width="48" height="48" fill="white" transform="translate(0 0.51416)"/>
</clipPath>
</defs>
</svg>
