<svg width="49" height="49" viewBox="0 0 49 49" fill="none" xmlns="http://www.w3.org/2000/svg">
<g id="line-logo" clip-path="url(#clip0_452_2434)">
<g id="&#227;&#131;&#172;&#227;&#130;&#164;&#227;&#131;&#164;&#227;&#131;&#188;_1">
<g id="Group">
<path id="Vector" d="M48.3447 24.5142C48.3447 29.2607 46.9385 33.9023 44.3012 37.8471C41.6639 41.7952 37.9163 44.8683 33.5292 46.6881C29.1453 48.5046 24.3192 48.9786 19.6618 48.0529C15.0075 47.1271 10.7286 44.8397 7.37227 41.4834C4.01596 38.1271 1.73176 33.8514 0.802808 29.1939C-0.119779 24.5396 0.35424 19.7135 2.17078 15.3296C3.98733 10.9458 7.06368 7.19497 11.0085 4.55764C14.9566 1.92031 19.5981 0.51416 24.3447 0.51416C30.7106 0.51416 36.8124 3.04332 41.3139 7.54491C45.8155 12.0465 48.3447 18.1515 48.3447 24.5142Z" fill="white"/>
<path id="Vector_2" d="M40.3471 23.1144C40.3471 15.9437 33.1605 10.1123 24.3291 10.1123C15.4977 10.1123 8.30469 15.9437 8.30469 23.1144C8.30469 29.5407 14.0056 34.9235 21.7045 35.9416C22.2294 36.0529 22.9388 36.2852 23.117 36.7337C23.2442 37.2077 23.2601 37.7009 23.1711 38.1812C23.1711 38.1812 22.9834 39.3138 22.942 39.5524C22.872 39.9564 22.6207 41.1367 24.3323 40.4177C28.9738 37.9744 33.2177 34.8376 36.9176 31.1187C39.0618 28.9999 40.293 26.1303 40.3535 23.1208" fill="black"/>
<path id="Vector_3" d="M35.0233 27.2564C35.1028 27.2564 35.1792 27.2246 35.2364 27.1673C35.2937 27.1101 35.3255 27.0337 35.3255 26.9542V25.8185C35.3255 25.7389 35.2937 25.6626 35.2364 25.6053C35.1792 25.548 35.1028 25.5162 35.0233 25.5162H31.966V24.3359H35.0233C35.1028 24.3359 35.1792 24.3041 35.2364 24.2469C35.2937 24.1896 35.3255 24.1133 35.3255 24.0337V22.898C35.3255 22.8185 35.2937 22.7421 35.2364 22.6848C35.1792 22.6276 35.1028 22.5958 35.0233 22.5958H31.966V21.4155H35.0233C35.1028 21.4155 35.1792 21.3837 35.2364 21.3264C35.2937 21.2691 35.3255 21.1928 35.3255 21.1133V19.9775C35.3255 19.898 35.2937 19.8216 35.2364 19.7644C35.1792 19.7071 35.1028 19.6753 35.0233 19.6753H30.5249C30.4454 19.6753 30.369 19.7071 30.3117 19.7644C30.2545 19.8216 30.2227 19.898 30.2227 19.9775V26.9351C30.2227 27.0146 30.2545 27.091 30.3117 27.1483C30.369 27.2055 30.4454 27.2373 30.5249 27.2373H35.0233V27.2501V27.2564Z" fill="white"/>
<path id="Vector_4" d="M18.3741 27.2564C18.4537 27.2564 18.53 27.2246 18.5873 27.1674C18.6445 27.1101 18.6764 27.0338 18.6764 26.9542V25.8185C18.6764 25.739 18.6445 25.6626 18.5873 25.6053C18.53 25.5481 18.4537 25.5163 18.3741 25.5163H15.3169V19.9648C15.3169 19.8853 15.2851 19.8089 15.2278 19.7517C15.1705 19.6944 15.0942 19.6626 15.0146 19.6626H13.8725C13.793 19.6626 13.7167 19.6944 13.6594 19.7517C13.6021 19.8089 13.5703 19.8853 13.5703 19.9648V26.9383C13.5703 27.0178 13.6021 27.0942 13.6594 27.1515C13.7167 27.2087 13.793 27.2405 13.8725 27.2405H18.3709V27.2533L18.3741 27.2564Z" fill="white"/>
<path id="Vector_5" d="M21.0747 19.6499H19.9389C19.8594 19.6499 19.7831 19.6817 19.7258 19.739C19.6685 19.7962 19.6367 19.8726 19.6367 19.9521V26.9447C19.6367 27.0242 19.6685 27.1006 19.7258 27.1579C19.7831 27.2151 19.8594 27.2469 19.9389 27.2469H21.0747C21.1542 27.2469 21.2306 27.2151 21.2878 27.1579C21.3451 27.1006 21.3769 27.0242 21.3769 26.9447V19.9585C21.3769 19.879 21.3451 19.8026 21.2878 19.7453C21.2306 19.6881 21.1542 19.6563 21.0747 19.6563" fill="white"/>
<path id="Vector_6" d="M28.8138 19.6499H27.678C27.5985 19.6499 27.5222 19.6817 27.4649 19.739C27.4076 19.7962 27.3758 19.8726 27.3758 19.9521V24.107L24.1754 19.7867L24.1499 19.7549L24.1309 19.7358L24.115 19.7199H24.1054L24.0895 19.7103H24.08L24.064 19.7008H24.0545L24.0354 19.6944H22.7788C22.6993 19.6944 22.6229 19.7263 22.5656 19.7835C22.5084 19.8408 22.4766 19.9171 22.4766 19.9967V26.9892C22.4766 27.0688 22.5084 27.1451 22.5656 27.2024C22.6229 27.2597 22.6993 27.2915 22.7788 27.2915H23.9145C23.9941 27.2915 24.0704 27.2597 24.1277 27.2024C24.1849 27.1451 24.2168 27.0688 24.2168 26.9892V22.8058L27.4204 27.1292C27.4426 27.1579 27.4681 27.1833 27.4999 27.2056L27.519 27.2151H27.589C27.6144 27.2215 27.6431 27.2247 27.6685 27.2247H28.7979C28.8774 27.2247 28.9538 27.1928 29.011 27.1356C29.0683 27.0783 29.1001 27.002 29.1001 26.9224V19.9585C29.1001 19.879 29.0683 19.8026 29.011 19.7453C28.9538 19.6881 28.8774 19.6563 28.7979 19.6563" fill="white"/>
</g>
</g>
</g>
<defs>
<clipPath id="clip0_452_2434">
<rect width="48" height="48" fill="white" transform="translate(0.34375 0.51416)"/>
</clipPath>
</defs>
</svg>
