<svg width="48" height="49" viewBox="0 0 48 49" fill="none" xmlns="http://www.w3.org/2000/svg">
<g id="x-logo" clip-path="url(#clip0_452_2429)">
<g id="&#227;&#131;&#172;&#227;&#130;&#164;&#227;&#131;&#164;&#227;&#131;&#188;_1">
<g id="Group">
<path id="Vector" d="M23.8197 48.5141C22.1809 48.5141 20.5452 48.3641 19.0548 48.0641C14.4383 47.1609 10.2703 44.9045 6.99579 41.4418C5.95377 40.3886 4.91175 39.1854 4.01814 37.829C2.23091 35.2726 1.04048 32.2631 0.443689 29.2535C-0.153105 26.0939 -0.153105 22.7843 0.443689 19.6216C1.04048 16.612 2.23091 13.6024 4.01814 11.046C6.55056 7.13326 10.2703 4.12369 14.4383 2.3173C15.9256 1.71411 17.416 1.26411 18.9032 0.964112C22.0293 0.360921 25.3038 0.360921 28.433 0.964112C31.4106 1.5673 34.3883 2.7705 36.9207 4.57688C40.792 7.13645 43.7696 10.896 45.5569 15.1088C46.1537 16.612 46.5989 18.1184 46.8957 19.6216C47.4925 22.7811 47.4925 26.0907 46.8957 29.2535C46.2989 32.2631 45.1085 35.2726 43.3213 37.829C39.1532 44.6013 31.7075 48.5141 23.8165 48.5141H23.8197Z" fill="white"/>
<path id="Vector_2" d="M26.6508 23.3844L35.8805 12.5493H33.6481L25.7571 21.878L19.3566 12.5493H11.9141L21.5922 26.694L11.9141 37.9791H14.1465L22.4827 28.0472L29.1832 37.9791H36.4773L26.6508 23.3844ZM23.6731 26.8472L22.6311 25.494L14.8886 14.2089H18.3114L24.5636 23.2376L25.6056 24.5908L33.7933 36.3291H30.2189L23.6668 26.8504L23.6731 26.8472Z" fill="black"/>
</g>
</g>
</g>
<defs>
<clipPath id="clip0_452_2429">
<rect width="47.3425" height="48" fill="white" transform="translate(0 0.51416)"/>
</clipPath>
</defs>
</svg>
